<svg width="86" height="86" viewBox="0 0 86 86" fill="none" xmlns="http://www.w3.org/2000/svg">
<g filter="url(#filter0_dd_1633_4758)">
<g clip-path="url(#clip0_1633_4758)">
<rect x="3" y="2" width="80" height="80" rx="20" fill="url(#paint0_linear_1633_4758)"/>
<rect x="7.51562" y="6.51538" width="70.9692" height="70.9692" rx="35.4846" fill="white"/>
<rect x="3" y="2" width="10" height="10" fill="white" fill-opacity="0.01"/>
<rect x="13" y="2" width="10" height="10" fill="white" fill-opacity="0.01"/>
<rect x="23" y="2" width="10" height="10" fill="white" fill-opacity="0.01"/>
<rect x="33" y="2" width="10" height="10" fill="white" fill-opacity="0.01"/>
<rect x="43" y="2" width="10" height="10" fill="white" fill-opacity="0.01"/>
<rect x="53" y="2" width="10" height="10" fill="white" fill-opacity="0.01"/>
<rect x="63" y="2" width="10" height="10" fill="white" fill-opacity="0.01"/>
<rect x="73" y="2" width="10" height="10" fill="white" fill-opacity="0.01"/>
<rect x="3" y="12" width="10" height="10" fill="white" fill-opacity="0.01"/>
<rect x="13" y="12" width="10" height="10" fill="white" fill-opacity="0.01"/>
<rect x="23" y="12" width="10" height="10" fill="white" fill-opacity="0.01"/>
<rect x="33" y="12" width="10" height="10" fill="white" fill-opacity="0.01"/>
<rect x="43" y="12" width="10" height="10" fill="white" fill-opacity="0.01"/>
<rect x="53" y="12" width="10" height="10" fill="white" fill-opacity="0.01"/>
<rect x="63" y="12" width="10" height="10" fill="white" fill-opacity="0.01"/>
<rect x="73" y="12" width="10" height="10" fill="white" fill-opacity="0.01"/>
<rect x="3" y="22" width="10" height="10" fill="white" fill-opacity="0.01"/>
<rect x="13" y="22" width="10" height="10" fill="white" fill-opacity="0.01"/>
<rect x="23" y="22" width="10" height="10" fill="white" fill-opacity="0.01"/>
<rect x="33" y="22" width="10" height="10" fill="white" fill-opacity="0.01"/>
<rect x="43" y="22" width="10" height="10" fill="white" fill-opacity="0.01"/>
<rect x="53" y="22" width="10" height="10" fill="white" fill-opacity="0.01"/>
<rect x="63" y="22" width="10" height="10" fill="white" fill-opacity="0.01"/>
<rect x="73" y="22" width="10" height="10" fill="white" fill-opacity="0.01"/>
<rect x="3" y="32" width="10" height="10" fill="white" fill-opacity="0.01"/>
<rect x="13" y="32" width="10" height="10" fill="white" fill-opacity="0.01"/>
<rect x="23" y="32" width="10" height="10" fill="white" fill-opacity="0.01"/>
<rect x="33" y="32" width="10" height="10" fill="white" fill-opacity="0.01"/>
<rect x="43" y="32" width="10" height="10" fill="white" fill-opacity="0.01"/>
<rect x="53" y="32" width="10" height="10" fill="white" fill-opacity="0.01"/>
<rect x="63" y="32" width="10" height="10" fill="white" fill-opacity="0.01"/>
<rect x="73" y="32" width="10" height="10" fill="white" fill-opacity="0.01"/>
<rect x="3" y="42" width="10" height="10" fill="white" fill-opacity="0.01"/>
<rect x="13" y="42" width="10" height="10" fill="white" fill-opacity="0.01"/>
<rect x="23" y="42" width="10" height="10" fill="white" fill-opacity="0.01"/>
<rect x="33" y="42" width="10" height="10" fill="white" fill-opacity="0.01"/>
<rect x="43" y="42" width="10" height="10" fill="white" fill-opacity="0.01"/>
<rect x="53" y="42" width="10" height="10" fill="white" fill-opacity="0.01"/>
<rect x="63" y="42" width="10" height="10" fill="white" fill-opacity="0.01"/>
<rect x="73" y="42" width="10" height="10" fill="white" fill-opacity="0.01"/>
<rect x="3" y="52" width="10" height="10" fill="white" fill-opacity="0.01"/>
<rect x="13" y="52" width="10" height="10" fill="white" fill-opacity="0.01"/>
<rect x="23" y="52" width="10" height="10" fill="white" fill-opacity="0.01"/>
<rect x="33" y="52" width="10" height="10" fill="white" fill-opacity="0.01"/>
<rect x="43" y="52" width="10" height="10" fill="white" fill-opacity="0.01"/>
<rect x="53" y="52" width="10" height="10" fill="white" fill-opacity="0.01"/>
<rect x="63" y="52" width="10" height="10" fill="white" fill-opacity="0.01"/>
<rect x="73" y="52" width="10" height="10" fill="white" fill-opacity="0.01"/>
<rect x="3" y="62" width="10" height="10" fill="white" fill-opacity="0.01"/>
<rect x="13" y="62" width="10" height="10" fill="white" fill-opacity="0.01"/>
<rect x="23" y="62" width="10" height="10" fill="white" fill-opacity="0.01"/>
<rect x="33" y="62" width="10" height="10" fill="white" fill-opacity="0.01"/>
<rect x="43" y="62" width="10" height="10" fill="white" fill-opacity="0.01"/>
<rect x="53" y="62" width="10" height="10" fill="white" fill-opacity="0.01"/>
<rect x="63" y="62" width="10" height="10" fill="white" fill-opacity="0.01"/>
<rect x="73" y="62" width="10" height="10" fill="white" fill-opacity="0.01"/>
<rect x="3" y="72" width="10" height="10" fill="white" fill-opacity="0.01"/>
<rect x="13" y="72" width="10" height="10" fill="white" fill-opacity="0.01"/>
<rect x="23" y="72" width="10" height="10" fill="white" fill-opacity="0.01"/>
<rect x="33" y="72" width="10" height="10" fill="white" fill-opacity="0.01"/>
<rect x="43" y="72" width="10" height="10" fill="white" fill-opacity="0.01"/>
<rect x="53" y="72" width="10" height="10" fill="white" fill-opacity="0.01"/>
<rect x="63" y="72" width="10" height="10" fill="white" fill-opacity="0.01"/>
<rect x="73" y="72" width="10" height="10" fill="white" fill-opacity="0.01"/>
<g filter="url(#filter65_dd_1633_4758)">
<path d="M15.1686 6.39972L24.3314 2.52541V16.0875L8.73438 35.4669L15.1686 6.39972Z" fill="#D4D4D8"/>
<path d="M10.0195 30.1449L24.135 2.82885H24.7013L25.2241 13.459L10.0195 30.1449Z" fill="#9F9FA9"/>
<path d="M70.8314 6.39971L61.6686 2.5254V16.0875L77.2656 35.4669L70.8314 6.39971Z" fill="#D4D4D8"/>
<path d="M75.9805 30.145L61.865 2.82894H61.2987L60.7759 13.4591L75.9805 30.145Z" fill="#9F9FA9"/>
<path d="M15.1686 77.6004L24.3314 81.4747V67.9126L8.73438 48.5333L15.1686 77.6004Z" fill="#D4D4D8"/>
<path d="M10.0195 53.8555L24.135 81.1715H24.7013L25.2241 70.5413L10.0195 53.8555Z" fill="#9F9FA9"/>
<path d="M70.8314 77.6005L61.6686 81.4748V67.9127L77.2656 48.5334L70.8314 77.6005Z" fill="#D4D4D8"/>
<path d="M75.9805 53.8554L61.865 81.1714H61.2987L60.7759 70.5412L75.9805 53.8554Z" fill="#9F9FA9"/>
<rect x="24.25" y="2" width="37.5164" height="80.1083" fill="#09090B"/>
<rect x="40.7383" y="2" width="4.54021" height="80.1083" fill="#27272A"/>
<g clip-path="url(#clip1_1633_4758)">
<rect x="8" y="7" width="70" height="70" rx="35" fill="#3F3F46"/>
<rect x="12.4414" y="11.4409" width="61.1182" height="61.1182" rx="30.5591" fill="#1E1E1E"/>
<circle cx="42.9985" cy="55.9166" r="8.37111" fill="url(#paint1_linear_1633_4758)"/>
<circle cx="42.9981" cy="55.9167" r="6.34425" fill="#18181B"/>
<circle cx="28.2847" cy="43.4711" r="8.37111" fill="url(#paint2_linear_1633_4758)"/>
<circle cx="57.7149" cy="43.471" r="8.37111" fill="url(#paint3_linear_1633_4758)"/>
<circle cx="28.2847" cy="43.471" r="6.34425" fill="#18181B"/>
<circle cx="57.7149" cy="43.471" r="6.34425" fill="#18181B"/>
<rect x="15.4102" y="14.4097" width="55.1807" height="55.1807" rx="27.5904" stroke="#F4F4F5" stroke-width="5.9375" stroke-dasharray="1.88 12.5"/>
<rect x="13.5352" y="12.5347" width="58.9307" height="58.9307" rx="29.4654" stroke="#18181B" stroke-width="2.1875" stroke-dasharray="1.88 12.5"/>
<rect x="13.3789" y="12.3784" width="59.2432" height="59.2432" rx="29.6216" stroke="#9F9FA9" stroke-width="1.875" stroke-dasharray="1.88 12.5"/>
<rect x="38.6118" y="42.5573" width="6.25" height="6.25" rx="3.125" transform="rotate(-52 38.6118 42.5573)" fill="#F4F4F5"/>
<path d="M27.9135 31.423L27.4766 29.892L29.0679 29.9455L41.3858 39.5693L40.2314 41.0469L27.9135 31.423Z" fill="#F4F4F5"/>
<g filter="url(#filter66_i_1633_4758)">
<path d="M28.8091 31.528L29.3863 30.7892L40.4899 39.4643L39.9127 40.2031L28.8091 31.528Z" fill="#D4D4D8"/>
</g>
<g filter="url(#filter67_f_1633_4758)">
<rect x="43.6045" y="37.9973" width="5.75986" height="5.75986" rx="2.87993" transform="rotate(53.0823 43.6045 37.9973)" fill="#D4D4D8"/>
</g>
<path d="M63.9772 25.1207L65.5692 25.0972L65.1034 26.6197L45.2466 41.5165L44.1203 40.0175L63.9772 25.1207Z" fill="#F4F4F5"/>
<g filter="url(#filter68_i_1633_4758)">
<path d="M63.937 25.7369L64.5002 26.4865L46.1315 40.2868L45.5684 39.5373L63.937 25.7369Z" fill="#D4D4D8"/>
</g>
<rect x="40.6807" y="39.6807" width="4.6386" height="4.6386" rx="2.3193" fill="#F4F4F5"/>
<path d="M43.0664 13.7582H43.2324L44.249 49.5414H43.0664V49.5404H41.8848L42.9014 13.7572L43.0664 13.7582Z" fill="white"/>
<circle cx="43.0479" cy="42" r="35" fill="url(#paint4_linear_1633_4758)"/>
<g opacity="0.1" filter="url(#filter69_f_1633_4758)">
<path d="M55.4052 27.5706C48.687 21.1898 40.6781 18.7153 42.2004 17.1126C43.7227 15.5098 52.2869 17.3995 59.0051 23.7804C65.7233 30.1612 68.0513 38.6169 66.5291 40.2196C65.0068 41.8223 62.1234 33.9515 55.4052 27.5706Z" fill="white"/>
</g>
</g>
</g>
</g>
</g>
<defs>
<filter id="filter0_dd_1633_4758" x="0" y="0" width="86" height="86" filterUnits="userSpaceOnUse" color-interpolation-filters="sRGB">
<feFlood flood-opacity="0" result="BackgroundImageFix"/>
<feColorMatrix in="SourceAlpha" type="matrix" values="0 0 0 0 0 0 0 0 0 0 0 0 0 0 0 0 0 0 127 0" result="hardAlpha"/>
<feOffset dy="1"/>
<feGaussianBlur stdDeviation="1"/>
<feColorMatrix type="matrix" values="0 0 0 0 0 0 0 0 0 0 0 0 0 0 0 0 0 0 0.06 0"/>
<feBlend mode="normal" in2="BackgroundImageFix" result="effect1_dropShadow_1633_4758"/>
<feColorMatrix in="SourceAlpha" type="matrix" values="0 0 0 0 0 0 0 0 0 0 0 0 0 0 0 0 0 0 127 0" result="hardAlpha"/>
<feOffset dy="1"/>
<feGaussianBlur stdDeviation="1.5"/>
<feColorMatrix type="matrix" values="0 0 0 0 0 0 0 0 0 0 0 0 0 0 0 0 0 0 0.1 0"/>
<feBlend mode="normal" in2="effect1_dropShadow_1633_4758" result="effect2_dropShadow_1633_4758"/>
<feBlend mode="normal" in="SourceGraphic" in2="effect2_dropShadow_1633_4758" result="shape"/>
</filter>
<filter id="filter65_dd_1633_4758" x="1.75" y="2" width="82.5" height="92.6083" filterUnits="userSpaceOnUse" color-interpolation-filters="sRGB">
<feFlood flood-opacity="0" result="BackgroundImageFix"/>
<feColorMatrix in="SourceAlpha" type="matrix" values="0 0 0 0 0 0 0 0 0 0 0 0 0 0 0 0 0 0 127 0" result="hardAlpha"/>
<feMorphology radius="1.5625" operator="erode" in="SourceAlpha" result="effect1_dropShadow_1633_4758"/>
<feOffset dy="3.125"/>
<feGaussianBlur stdDeviation="1.5625"/>
<feColorMatrix type="matrix" values="0 0 0 0 0 0 0 0 0 0 0 0 0 0 0 0 0 0 0.04 0"/>
<feBlend mode="normal" in2="BackgroundImageFix" result="effect1_dropShadow_1633_4758"/>
<feColorMatrix in="SourceAlpha" type="matrix" values="0 0 0 0 0 0 0 0 0 0 0 0 0 0 0 0 0 0 127 0" result="hardAlpha"/>
<feMorphology radius="1.5625" operator="erode" in="SourceAlpha" result="effect2_dropShadow_1633_4758"/>
<feOffset dy="6.25"/>
<feGaussianBlur stdDeviation="3.90625"/>
<feColorMatrix type="matrix" values="0 0 0 0 0 0 0 0 0 0 0 0 0 0 0 0 0 0 0.1 0"/>
<feBlend mode="normal" in2="effect1_dropShadow_1633_4758" result="effect2_dropShadow_1633_4758"/>
<feBlend mode="normal" in="SourceGraphic" in2="effect2_dropShadow_1633_4758" result="shape"/>
</filter>
<filter id="filter66_i_1633_4758" x="28.8091" y="30.7892" width="11.6807" height="9.4139" filterUnits="userSpaceOnUse" color-interpolation-filters="sRGB">
<feFlood flood-opacity="0" result="BackgroundImageFix"/>
<feBlend mode="normal" in="SourceGraphic" in2="BackgroundImageFix" result="shape"/>
<feColorMatrix in="SourceAlpha" type="matrix" values="0 0 0 0 0 0 0 0 0 0 0 0 0 0 0 0 0 0 127 0" result="hardAlpha"/>
<feOffset/>
<feGaussianBlur stdDeviation="0.3125"/>
<feComposite in2="hardAlpha" operator="arithmetic" k2="-1" k3="1"/>
<feColorMatrix type="matrix" values="0 0 0 0 0 0 0 0 0 0 0 0 0 0 0 0 0 0 0.2 0"/>
<feBlend mode="normal" in2="shape" result="effect1_innerShadow_1633_4758"/>
</filter>
<filter id="filter67_f_1633_4758" x="39.5269" y="38.5246" width="7.01025" height="7.0102" filterUnits="userSpaceOnUse" color-interpolation-filters="sRGB">
<feFlood flood-opacity="0" result="BackgroundImageFix"/>
<feBlend mode="normal" in="SourceGraphic" in2="BackgroundImageFix" result="shape"/>
<feGaussianBlur stdDeviation="0.3125" result="effect1_foregroundBlur_1633_4758"/>
</filter>
<filter id="filter68_i_1633_4758" x="45.5684" y="25.7369" width="18.9316" height="14.5499" filterUnits="userSpaceOnUse" color-interpolation-filters="sRGB">
<feFlood flood-opacity="0" result="BackgroundImageFix"/>
<feBlend mode="normal" in="SourceGraphic" in2="BackgroundImageFix" result="shape"/>
<feColorMatrix in="SourceAlpha" type="matrix" values="0 0 0 0 0 0 0 0 0 0 0 0 0 0 0 0 0 0 127 0" result="hardAlpha"/>
<feOffset/>
<feGaussianBlur stdDeviation="0.3125"/>
<feComposite in2="hardAlpha" operator="arithmetic" k2="-1" k3="1"/>
<feColorMatrix type="matrix" values="0 0 0 0 0 0 0 0 0 0 0 0 0 0 0 0 0 0 0.2 0"/>
<feBlend mode="normal" in2="shape" result="effect1_innerShadow_1633_4758"/>
</filter>
<filter id="filter69_f_1633_4758" x="36.7622" y="11.3224" width="35.4644" height="34.3577" filterUnits="userSpaceOnUse" color-interpolation-filters="sRGB">
<feFlood flood-opacity="0" result="BackgroundImageFix"/>
<feBlend mode="normal" in="SourceGraphic" in2="BackgroundImageFix" result="shape"/>
<feGaussianBlur stdDeviation="2.625" result="effect1_foregroundBlur_1633_4758"/>
</filter>
<linearGradient id="paint0_linear_1633_4758" x1="83" y1="2" x2="3" y2="82" gradientUnits="userSpaceOnUse">
<stop stop-color="#FAFAFA"/>
<stop offset="1" stop-color="#9F9FA9"/>
</linearGradient>
<linearGradient id="paint1_linear_1633_4758" x1="42.9985" y1="47.5455" x2="42.9985" y2="64.2877" gradientUnits="userSpaceOnUse">
<stop stop-color="white" stop-opacity="0"/>
<stop offset="1" stop-color="white" stop-opacity="0.12"/>
</linearGradient>
<linearGradient id="paint2_linear_1633_4758" x1="28.2847" y1="35.1" x2="28.2847" y2="51.8422" gradientUnits="userSpaceOnUse">
<stop stop-color="white" stop-opacity="0"/>
<stop offset="1" stop-color="white" stop-opacity="0.12"/>
</linearGradient>
<linearGradient id="paint3_linear_1633_4758" x1="57.7149" y1="35.0999" x2="57.7149" y2="51.8421" gradientUnits="userSpaceOnUse">
<stop stop-color="white" stop-opacity="0"/>
<stop offset="1" stop-color="white" stop-opacity="0.12"/>
</linearGradient>
<linearGradient id="paint4_linear_1633_4758" x1="65.7697" y1="15.1924" x2="20.8509" y2="69.4108" gradientUnits="userSpaceOnUse">
<stop stop-color="white" stop-opacity="0.3"/>
<stop offset="0.548077" stop-color="white" stop-opacity="0"/>
</linearGradient>
<clipPath id="clip0_1633_4758">
<rect x="3" y="2" width="80" height="80" rx="20" fill="white"/>
</clipPath>
<clipPath id="clip1_1633_4758">
<rect x="8" y="7" width="70" height="70" rx="35" fill="white"/>
</clipPath>
</defs>
</svg>
