<svg width="32" height="32" viewBox="0 0 32 32" fill="none" xmlns="http://www.w3.org/2000/svg">
<g clip-path="url(#clip0_1642_7763)">
<rect width="32" height="32" rx="8" fill="url(#paint0_linear_1642_7763)"/>
<rect x="1.80615" y="1.80615" width="28.3877" height="28.3877" rx="14.1938" fill="white"/>
<rect width="4" height="4" fill="white" fill-opacity="0.01"/>
<rect x="4" width="4" height="4" fill="white" fill-opacity="0.01"/>
<rect x="8" width="4" height="4" fill="white" fill-opacity="0.01"/>
<rect x="12" width="4" height="4" fill="white" fill-opacity="0.01"/>
<rect x="16" width="4" height="4" fill="white" fill-opacity="0.01"/>
<rect x="20" width="4" height="4" fill="white" fill-opacity="0.01"/>
<rect x="24" width="4" height="4" fill="white" fill-opacity="0.01"/>
<rect x="28" width="4" height="4" fill="white" fill-opacity="0.01"/>
<rect y="4" width="4" height="4" fill="white" fill-opacity="0.01"/>
<rect x="4" y="4" width="4" height="4" fill="white" fill-opacity="0.01"/>
<rect x="8" y="4" width="4" height="4" fill="white" fill-opacity="0.01"/>
<rect x="12" y="4" width="4" height="4" fill="white" fill-opacity="0.01"/>
<rect x="16" y="4" width="4" height="4" fill="white" fill-opacity="0.01"/>
<rect x="20" y="4" width="4" height="4" fill="white" fill-opacity="0.01"/>
<rect x="24" y="4" width="4" height="4" fill="white" fill-opacity="0.01"/>
<rect x="28" y="4" width="4" height="4" fill="white" fill-opacity="0.01"/>
<rect y="8" width="4" height="4" fill="white" fill-opacity="0.01"/>
<rect x="4" y="8" width="4" height="4" fill="white" fill-opacity="0.01"/>
<rect x="8" y="8" width="4" height="4" fill="white" fill-opacity="0.01"/>
<rect x="12" y="8" width="4" height="4" fill="white" fill-opacity="0.01"/>
<rect x="16" y="8" width="4" height="4" fill="white" fill-opacity="0.01"/>
<rect x="20" y="8" width="4" height="4" fill="white" fill-opacity="0.01"/>
<rect x="24" y="8" width="4" height="4" fill="white" fill-opacity="0.01"/>
<rect x="28" y="8" width="4" height="4" fill="white" fill-opacity="0.01"/>
<rect y="12" width="4" height="4" fill="white" fill-opacity="0.01"/>
<rect x="4" y="12" width="4" height="4" fill="white" fill-opacity="0.01"/>
<rect x="8" y="12" width="4" height="4" fill="white" fill-opacity="0.01"/>
<rect x="12" y="12" width="4" height="4" fill="white" fill-opacity="0.01"/>
<rect x="16" y="12" width="4" height="4" fill="white" fill-opacity="0.01"/>
<rect x="20" y="12" width="4" height="4" fill="white" fill-opacity="0.01"/>
<rect x="24" y="12" width="4" height="4" fill="white" fill-opacity="0.01"/>
<rect x="28" y="12" width="4" height="4" fill="white" fill-opacity="0.01"/>
<rect y="16" width="4" height="4" fill="white" fill-opacity="0.01"/>
<rect x="4" y="16" width="4" height="4" fill="white" fill-opacity="0.01"/>
<rect x="8" y="16" width="4" height="4" fill="white" fill-opacity="0.01"/>
<rect x="12" y="16" width="4" height="4" fill="white" fill-opacity="0.01"/>
<rect x="16" y="16" width="4" height="4" fill="white" fill-opacity="0.01"/>
<rect x="20" y="16" width="4" height="4" fill="white" fill-opacity="0.01"/>
<rect x="24" y="16" width="4" height="4" fill="white" fill-opacity="0.01"/>
<rect x="28" y="16" width="4" height="4" fill="white" fill-opacity="0.01"/>
<rect y="20" width="4" height="4" fill="white" fill-opacity="0.01"/>
<rect x="4" y="20" width="4" height="4" fill="white" fill-opacity="0.01"/>
<rect x="8" y="20" width="4" height="4" fill="white" fill-opacity="0.01"/>
<rect x="12" y="20" width="4" height="4" fill="white" fill-opacity="0.01"/>
<rect x="16" y="20" width="4" height="4" fill="white" fill-opacity="0.01"/>
<rect x="20" y="20" width="4" height="4" fill="white" fill-opacity="0.01"/>
<rect x="24" y="20" width="4" height="4" fill="white" fill-opacity="0.01"/>
<rect x="28" y="20" width="4" height="4" fill="white" fill-opacity="0.01"/>
<rect y="24" width="4" height="4" fill="white" fill-opacity="0.01"/>
<rect x="4" y="24" width="4" height="4" fill="white" fill-opacity="0.01"/>
<rect x="8" y="24" width="4" height="4" fill="white" fill-opacity="0.01"/>
<rect x="12" y="24" width="4" height="4" fill="white" fill-opacity="0.01"/>
<rect x="16" y="24" width="4" height="4" fill="white" fill-opacity="0.01"/>
<rect x="20" y="24" width="4" height="4" fill="white" fill-opacity="0.01"/>
<rect x="24" y="24" width="4" height="4" fill="white" fill-opacity="0.01"/>
<rect x="28" y="24" width="4" height="4" fill="white" fill-opacity="0.01"/>
<rect y="28" width="4" height="4" fill="white" fill-opacity="0.01"/>
<rect x="4" y="28" width="4" height="4" fill="white" fill-opacity="0.01"/>
<rect x="8" y="28" width="4" height="4" fill="white" fill-opacity="0.01"/>
<rect x="12" y="28" width="4" height="4" fill="white" fill-opacity="0.01"/>
<rect x="16" y="28" width="4" height="4" fill="white" fill-opacity="0.01"/>
<rect x="20" y="28" width="4" height="4" fill="white" fill-opacity="0.01"/>
<rect x="24" y="28" width="4" height="4" fill="white" fill-opacity="0.01"/>
<rect x="28" y="28" width="4" height="4" fill="white" fill-opacity="0.01"/>
<g filter="url(#filter64_dd_1642_7763)">
<path d="M4.86746 1.75986L8.53258 0.210144V5.63499L2.29376 13.3867L4.86746 1.75986Z" fill="#D4D4D8"/>
<path d="M2.80786 11.2579L8.45404 0.331543H8.68058L8.8897 4.58361L2.80786 11.2579Z" fill="#9F9FA9"/>
<path d="M27.1325 1.75986L23.4674 0.210144V5.63499L29.7062 13.3867L27.1325 1.75986Z" fill="#D4D4D8"/>
<path d="M29.1921 11.2579L23.5459 0.331543H23.3194L23.1102 4.58361L29.1921 11.2579Z" fill="#9F9FA9"/>
<path d="M4.8674 30.2401L8.53252 31.7899V26.365L2.2937 18.6133L4.8674 30.2401Z" fill="#D4D4D8"/>
<path d="M2.8078 20.7422L8.45398 31.6686H8.68052L8.88964 27.4165L2.8078 20.7422Z" fill="#9F9FA9"/>
<path d="M27.1324 30.2402L23.4673 31.7899V26.3651L29.7061 18.6133L27.1324 30.2402Z" fill="#D4D4D8"/>
<path d="M29.192 20.7421L23.5458 31.6685H23.3193L23.1102 27.4165L29.192 20.7421Z" fill="#9F9FA9"/>
<rect x="8.5" width="15.0066" height="32.0433" fill="#09090B"/>
<rect x="15.0952" width="1.81609" height="32.0433" fill="#27272A"/>
<g clip-path="url(#clip1_1642_7763)">
<rect x="2" y="2" width="28" height="28" rx="14" fill="#3F3F46"/>
<rect x="3.77655" y="3.77637" width="24.4473" height="24.4473" rx="12.2236" fill="#1E1E1E"/>
<circle cx="15.9995" cy="21.5666" r="3.34844" fill="url(#paint1_linear_1642_7763)"/>
<circle cx="15.9993" cy="21.5667" r="2.5377" fill="#18181B"/>
<circle cx="10.1139" cy="16.5884" r="3.34844" fill="url(#paint2_linear_1642_7763)"/>
<circle cx="21.886" cy="16.5884" r="3.34844" fill="url(#paint3_linear_1642_7763)"/>
<circle cx="10.1138" cy="16.5884" r="2.5377" fill="#18181B"/>
<circle cx="21.886" cy="16.5884" r="2.5377" fill="#18181B"/>
<rect x="4.96405" y="4.96387" width="22.0723" height="22.0723" rx="11.0361" stroke="#F4F4F5" stroke-width="2.375" stroke-dasharray="0.75 5"/>
<rect x="4.21405" y="4.21387" width="23.5723" height="23.5723" rx="11.7861" stroke="#18181B" stroke-width="0.875" stroke-dasharray="0.75 5"/>
<rect x="4.15155" y="4.15137" width="23.6973" height="23.6973" rx="11.8486" stroke="#9F9FA9" stroke-width="0.75" stroke-dasharray="0.75 5"/>
<rect x="14.2448" y="16.2229" width="2.5" height="2.5" rx="1.25" transform="rotate(-52 14.2448 16.2229)" fill="#F4F4F5"/>
<path d="M9.96546 11.7692L9.79069 11.1568L10.4272 11.1782L15.3544 15.0277L14.8926 15.6187L9.96546 11.7692Z" fill="#F4F4F5"/>
<g filter="url(#filter65_i_1642_7763)">
<path d="M10.3237 11.8111L10.5545 11.5156L14.996 14.9857L14.7651 15.2812L10.3237 11.8111Z" fill="#D4D4D8"/>
</g>
<g filter="url(#filter66_f_1642_7763)">
<rect x="16.2416" y="14.3989" width="2.30395" height="2.30395" rx="1.15197" transform="rotate(53.0823 16.2416 14.3989)" fill="#D4D4D8"/>
</g>
<path d="M24.3907 9.24829L25.0275 9.2389L24.8412 9.84792L16.8985 15.8066L16.448 15.207L24.3907 9.24829Z" fill="#F4F4F5"/>
<g filter="url(#filter67_i_1642_7763)">
<path d="M24.3748 9.49476L24.6 9.79457L17.2526 15.3147L17.0273 15.0149L24.3748 9.49476Z" fill="#D4D4D8"/>
</g>
<rect x="15.0723" y="15.0723" width="1.85544" height="1.85544" rx="0.927719" fill="#F4F4F5"/>
<path d="M16.093 4.70331L16.4992 19.0168H16.0266V19.0158H15.5539L15.9601 4.70331H16.093Z" fill="white"/>
<circle cx="16.019" cy="16" r="14" fill="url(#paint4_linear_1642_7763)"/>
<g opacity="0.1" filter="url(#filter68_f_1642_7763)">
<path d="M20.9621 10.2282C18.2748 7.67591 15.0712 6.68612 15.6802 6.04502C16.2891 5.40392 19.7148 6.15982 22.402 8.71215C25.0893 11.2645 26.0205 14.6467 25.4116 15.2878C24.8027 15.9289 23.6493 12.7806 20.9621 10.2282Z" fill="white"/>
</g>
</g>
</g>
</g>
<defs>
<filter id="filter64_dd_1642_7763" x="-0.5" y="0" width="33" height="37.0433" filterUnits="userSpaceOnUse" color-interpolation-filters="sRGB">
<feFlood flood-opacity="0" result="BackgroundImageFix"/>
<feColorMatrix in="SourceAlpha" type="matrix" values="0 0 0 0 0 0 0 0 0 0 0 0 0 0 0 0 0 0 127 0" result="hardAlpha"/>
<feMorphology radius="0.625" operator="erode" in="SourceAlpha" result="effect1_dropShadow_1642_7763"/>
<feOffset dy="1.25"/>
<feGaussianBlur stdDeviation="0.625"/>
<feColorMatrix type="matrix" values="0 0 0 0 0 0 0 0 0 0 0 0 0 0 0 0 0 0 0.04 0"/>
<feBlend mode="normal" in2="BackgroundImageFix" result="effect1_dropShadow_1642_7763"/>
<feColorMatrix in="SourceAlpha" type="matrix" values="0 0 0 0 0 0 0 0 0 0 0 0 0 0 0 0 0 0 127 0" result="hardAlpha"/>
<feMorphology radius="0.625" operator="erode" in="SourceAlpha" result="effect2_dropShadow_1642_7763"/>
<feOffset dy="2.5"/>
<feGaussianBlur stdDeviation="1.5625"/>
<feColorMatrix type="matrix" values="0 0 0 0 0 0 0 0 0 0 0 0 0 0 0 0 0 0 0.1 0"/>
<feBlend mode="normal" in2="effect1_dropShadow_1642_7763" result="effect2_dropShadow_1642_7763"/>
<feBlend mode="normal" in="SourceGraphic" in2="effect2_dropShadow_1642_7763" result="shape"/>
</filter>
<filter id="filter65_i_1642_7763" x="10.3237" y="11.5156" width="4.6723" height="3.76556" filterUnits="userSpaceOnUse" color-interpolation-filters="sRGB">
<feFlood flood-opacity="0" result="BackgroundImageFix"/>
<feBlend mode="normal" in="SourceGraphic" in2="BackgroundImageFix" result="shape"/>
<feColorMatrix in="SourceAlpha" type="matrix" values="0 0 0 0 0 0 0 0 0 0 0 0 0 0 0 0 0 0 127 0" result="hardAlpha"/>
<feOffset/>
<feGaussianBlur stdDeviation="0.125"/>
<feComposite in2="hardAlpha" operator="arithmetic" k2="-1" k3="1"/>
<feColorMatrix type="matrix" values="0 0 0 0 0 0 0 0 0 0 0 0 0 0 0 0 0 0 0.2 0"/>
<feBlend mode="normal" in2="shape" result="effect1_innerShadow_1642_7763"/>
</filter>
<filter id="filter66_f_1642_7763" x="14.6105" y="14.6099" width="2.80408" height="2.80408" filterUnits="userSpaceOnUse" color-interpolation-filters="sRGB">
<feFlood flood-opacity="0" result="BackgroundImageFix"/>
<feBlend mode="normal" in="SourceGraphic" in2="BackgroundImageFix" result="shape"/>
<feGaussianBlur stdDeviation="0.125" result="effect1_foregroundBlur_1642_7763"/>
</filter>
<filter id="filter67_i_1642_7763" x="17.0273" y="9.49475" width="7.57269" height="5.81995" filterUnits="userSpaceOnUse" color-interpolation-filters="sRGB">
<feFlood flood-opacity="0" result="BackgroundImageFix"/>
<feBlend mode="normal" in="SourceGraphic" in2="BackgroundImageFix" result="shape"/>
<feColorMatrix in="SourceAlpha" type="matrix" values="0 0 0 0 0 0 0 0 0 0 0 0 0 0 0 0 0 0 127 0" result="hardAlpha"/>
<feOffset/>
<feGaussianBlur stdDeviation="0.125"/>
<feComposite in2="hardAlpha" operator="arithmetic" k2="-1" k3="1"/>
<feColorMatrix type="matrix" values="0 0 0 0 0 0 0 0 0 0 0 0 0 0 0 0 0 0 0.2 0"/>
<feBlend mode="normal" in2="shape" result="effect1_innerShadow_1642_7763"/>
</filter>
<filter id="filter68_f_1642_7763" x="13.5049" y="3.72898" width="14.1857" height="13.7431" filterUnits="userSpaceOnUse" color-interpolation-filters="sRGB">
<feFlood flood-opacity="0" result="BackgroundImageFix"/>
<feBlend mode="normal" in="SourceGraphic" in2="BackgroundImageFix" result="shape"/>
<feGaussianBlur stdDeviation="1.05" result="effect1_foregroundBlur_1642_7763"/>
</filter>
<linearGradient id="paint0_linear_1642_7763" x1="32" y1="0" x2="0" y2="32" gradientUnits="userSpaceOnUse">
<stop stop-color="#FAFAFA"/>
<stop offset="1" stop-color="#9F9FA9"/>
</linearGradient>
<linearGradient id="paint1_linear_1642_7763" x1="15.9995" y1="18.2182" x2="15.9995" y2="24.9151" gradientUnits="userSpaceOnUse">
<stop stop-color="white" stop-opacity="0"/>
<stop offset="1" stop-color="white" stop-opacity="0.12"/>
</linearGradient>
<linearGradient id="paint2_linear_1642_7763" x1="10.1139" y1="13.24" x2="10.1139" y2="19.9369" gradientUnits="userSpaceOnUse">
<stop stop-color="white" stop-opacity="0"/>
<stop offset="1" stop-color="white" stop-opacity="0.12"/>
</linearGradient>
<linearGradient id="paint3_linear_1642_7763" x1="21.886" y1="13.24" x2="21.886" y2="19.9369" gradientUnits="userSpaceOnUse">
<stop stop-color="white" stop-opacity="0"/>
<stop offset="1" stop-color="white" stop-opacity="0.12"/>
</linearGradient>
<linearGradient id="paint4_linear_1642_7763" x1="25.1078" y1="5.27698" x2="7.14028" y2="26.9643" gradientUnits="userSpaceOnUse">
<stop stop-color="white" stop-opacity="0.3"/>
<stop offset="0.548077" stop-color="white" stop-opacity="0"/>
</linearGradient>
<clipPath id="clip0_1642_7763">
<rect width="32" height="32" rx="8" fill="white"/>
</clipPath>
<clipPath id="clip1_1642_7763">
<rect x="2" y="2" width="28" height="28" rx="14" fill="white"/>
</clipPath>
</defs>
</svg>
