<svg width="18" height="18" viewBox="0 0 18 18" fill="none" xmlns="http://www.w3.org/2000/svg">
<g clip-path="url(#clip0_1642_7761)">
<rect width="18" height="18" rx="4.5" fill="url(#paint0_linear_1642_7761)"/>
<rect x="1.01599" y="1.01599" width="15.9681" height="15.9681" rx="7.98403" fill="white"/>
<rect width="2.25" height="2.25" fill="white" fill-opacity="0.01"/>
<rect x="2.25" width="2.25" height="2.25" fill="white" fill-opacity="0.01"/>
<rect x="4.5" width="2.25" height="2.25" fill="white" fill-opacity="0.01"/>
<rect x="6.75" width="2.25" height="2.25" fill="white" fill-opacity="0.01"/>
<rect x="9" width="2.25" height="2.25" fill="white" fill-opacity="0.01"/>
<rect x="11.25" width="2.25" height="2.25" fill="white" fill-opacity="0.01"/>
<rect x="13.5" width="2.25" height="2.25" fill="white" fill-opacity="0.01"/>
<rect x="15.75" width="2.25" height="2.25" fill="white" fill-opacity="0.01"/>
<rect y="2.25" width="2.25" height="2.25" fill="white" fill-opacity="0.01"/>
<rect x="2.25" y="2.25" width="2.25" height="2.25" fill="white" fill-opacity="0.01"/>
<rect x="4.5" y="2.25" width="2.25" height="2.25" fill="white" fill-opacity="0.01"/>
<rect x="6.75" y="2.25" width="2.25" height="2.25" fill="white" fill-opacity="0.01"/>
<rect x="9" y="2.25" width="2.25" height="2.25" fill="white" fill-opacity="0.01"/>
<rect x="11.25" y="2.25" width="2.25" height="2.25" fill="white" fill-opacity="0.01"/>
<rect x="13.5" y="2.25" width="2.25" height="2.25" fill="white" fill-opacity="0.01"/>
<rect x="15.75" y="2.25" width="2.25" height="2.25" fill="white" fill-opacity="0.01"/>
<rect y="4.5" width="2.25" height="2.25" fill="white" fill-opacity="0.01"/>
<rect x="2.25" y="4.5" width="2.25" height="2.25" fill="white" fill-opacity="0.01"/>
<rect x="4.5" y="4.5" width="2.25" height="2.25" fill="white" fill-opacity="0.01"/>
<rect x="6.75" y="4.5" width="2.25" height="2.25" fill="white" fill-opacity="0.01"/>
<rect x="9" y="4.5" width="2.25" height="2.25" fill="white" fill-opacity="0.01"/>
<rect x="11.25" y="4.5" width="2.25" height="2.25" fill="white" fill-opacity="0.01"/>
<rect x="13.5" y="4.5" width="2.25" height="2.25" fill="white" fill-opacity="0.01"/>
<rect x="15.75" y="4.5" width="2.25" height="2.25" fill="white" fill-opacity="0.01"/>
<rect y="6.75" width="2.25" height="2.25" fill="white" fill-opacity="0.01"/>
<rect x="2.25" y="6.75" width="2.25" height="2.25" fill="white" fill-opacity="0.01"/>
<rect x="4.5" y="6.75" width="2.25" height="2.25" fill="white" fill-opacity="0.01"/>
<rect x="6.75" y="6.75" width="2.25" height="2.25" fill="white" fill-opacity="0.01"/>
<rect x="9" y="6.75" width="2.25" height="2.25" fill="white" fill-opacity="0.01"/>
<rect x="11.25" y="6.75" width="2.25" height="2.25" fill="white" fill-opacity="0.01"/>
<rect x="13.5" y="6.75" width="2.25" height="2.25" fill="white" fill-opacity="0.01"/>
<rect x="15.75" y="6.75" width="2.25" height="2.25" fill="white" fill-opacity="0.01"/>
<rect y="9" width="2.25" height="2.25" fill="white" fill-opacity="0.01"/>
<rect x="2.25" y="9" width="2.25" height="2.25" fill="white" fill-opacity="0.01"/>
<rect x="4.5" y="9" width="2.25" height="2.25" fill="white" fill-opacity="0.01"/>
<rect x="6.75" y="9" width="2.25" height="2.25" fill="white" fill-opacity="0.01"/>
<rect x="9" y="9" width="2.25" height="2.25" fill="white" fill-opacity="0.01"/>
<rect x="11.25" y="9" width="2.25" height="2.25" fill="white" fill-opacity="0.01"/>
<rect x="13.5" y="9" width="2.25" height="2.25" fill="white" fill-opacity="0.01"/>
<rect x="15.75" y="9" width="2.25" height="2.25" fill="white" fill-opacity="0.01"/>
<rect y="11.25" width="2.25" height="2.25" fill="white" fill-opacity="0.01"/>
<rect x="2.25" y="11.25" width="2.25" height="2.25" fill="white" fill-opacity="0.01"/>
<rect x="4.5" y="11.25" width="2.25" height="2.25" fill="white" fill-opacity="0.01"/>
<rect x="6.75" y="11.25" width="2.25" height="2.25" fill="white" fill-opacity="0.01"/>
<rect x="9" y="11.25" width="2.25" height="2.25" fill="white" fill-opacity="0.01"/>
<rect x="11.25" y="11.25" width="2.25" height="2.25" fill="white" fill-opacity="0.01"/>
<rect x="13.5" y="11.25" width="2.25" height="2.25" fill="white" fill-opacity="0.01"/>
<rect x="15.75" y="11.25" width="2.25" height="2.25" fill="white" fill-opacity="0.01"/>
<rect y="13.5" width="2.25" height="2.25" fill="white" fill-opacity="0.01"/>
<rect x="2.25" y="13.5" width="2.25" height="2.25" fill="white" fill-opacity="0.01"/>
<rect x="4.5" y="13.5" width="2.25" height="2.25" fill="white" fill-opacity="0.01"/>
<rect x="6.75" y="13.5" width="2.25" height="2.25" fill="white" fill-opacity="0.01"/>
<rect x="9" y="13.5" width="2.25" height="2.25" fill="white" fill-opacity="0.01"/>
<rect x="11.25" y="13.5" width="2.25" height="2.25" fill="white" fill-opacity="0.01"/>
<rect x="13.5" y="13.5" width="2.25" height="2.25" fill="white" fill-opacity="0.01"/>
<rect x="15.75" y="13.5" width="2.25" height="2.25" fill="white" fill-opacity="0.01"/>
<rect y="15.75" width="2.25" height="2.25" fill="white" fill-opacity="0.01"/>
<rect x="2.25" y="15.75" width="2.25" height="2.25" fill="white" fill-opacity="0.01"/>
<rect x="4.5" y="15.75" width="2.25" height="2.25" fill="white" fill-opacity="0.01"/>
<rect x="6.75" y="15.75" width="2.25" height="2.25" fill="white" fill-opacity="0.01"/>
<rect x="9" y="15.75" width="2.25" height="2.25" fill="white" fill-opacity="0.01"/>
<rect x="11.25" y="15.75" width="2.25" height="2.25" fill="white" fill-opacity="0.01"/>
<rect x="13.5" y="15.75" width="2.25" height="2.25" fill="white" fill-opacity="0.01"/>
<rect x="15.75" y="15.75" width="2.25" height="2.25" fill="white" fill-opacity="0.01"/>
<g filter="url(#filter64_dd_1642_7761)">
<path d="M2.73799 0.989943L4.79962 0.118225V3.1697L1.29028 7.53006L2.73799 0.989943Z" fill="#D4D4D8"/>
<path d="M1.57953 6.33263L4.7555 0.186523H4.88293L5.00056 2.57831L1.57953 6.33263Z" fill="#9F9FA9"/>
<path d="M15.262 0.989943L13.2004 0.118225V3.1697L16.7097 7.53006L15.262 0.989943Z" fill="#D4D4D8"/>
<path d="M16.4205 6.33263L13.2445 0.186523H13.1171L12.9994 2.57831L16.4205 6.33263Z" fill="#9F9FA9"/>
<path d="M2.73799 17.0101L4.79962 17.8818V14.8304L1.29028 10.47L2.73799 17.0101Z" fill="#D4D4D8"/>
<path d="M1.57953 11.6675L4.7555 17.8136H4.88293L5.00056 15.4218L1.57953 11.6675Z" fill="#9F9FA9"/>
<path d="M15.262 17.0101L13.2004 17.8818V14.8304L16.7097 10.47L15.262 17.0101Z" fill="#D4D4D8"/>
<path d="M16.4205 11.6674L13.2445 17.8135H13.1171L12.9994 15.4218L16.4205 11.6674Z" fill="#9F9FA9"/>
<rect x="4.78125" width="8.4412" height="18.0244" fill="#09090B"/>
<rect x="8.49109" width="1.02155" height="18.0244" fill="#27272A"/>
<g clip-path="url(#clip1_1642_7761)">
<rect x="1.125" y="1.125" width="15.75" height="15.75" rx="7.875" fill="#3F3F46"/>
<rect x="2.12421" y="2.12421" width="13.7516" height="13.7516" rx="6.8758" fill="#1E1E1E"/>
<circle cx="8.99965" cy="12.1312" r="1.8835" fill="url(#paint1_linear_1642_7761)"/>
<circle cx="8.99966" cy="12.1313" r="1.42746" fill="#18181B"/>
<circle cx="5.68904" cy="9.33101" r="1.8835" fill="url(#paint2_linear_1642_7761)"/>
<circle cx="12.3109" cy="9.33101" r="1.8835" fill="url(#paint3_linear_1642_7761)"/>
<circle cx="5.68905" cy="9.33102" r="1.42746" fill="#18181B"/>
<circle cx="12.3109" cy="9.33102" r="1.42746" fill="#18181B"/>
<rect x="2.79218" y="2.79218" width="12.4157" height="12.4157" rx="6.20783" stroke="#F4F4F5" stroke-width="1.33594" stroke-dasharray="0.42 2.81"/>
<rect x="2.3703" y="2.3703" width="13.2594" height="13.2594" rx="6.6297" stroke="#18181B" stroke-width="0.492188" stroke-dasharray="0.42 2.81"/>
<rect x="2.33514" y="2.33514" width="13.3297" height="13.3297" rx="6.66486" stroke="#9F9FA9" stroke-width="0.421875" stroke-dasharray="0.42 2.81"/>
<rect x="8.01263" y="9.12537" width="1.40625" height="1.40625" rx="0.703125" transform="rotate(-52 8.01263 9.12537)" fill="#F4F4F5"/>
<path d="M5.60562 6.62022L5.50731 6.27573L5.86535 6.28778L8.63687 8.45313L8.37714 8.78557L5.60562 6.62022Z" fill="#F4F4F5"/>
<g filter="url(#filter65_i_1642_7761)">
<path d="M5.80713 6.64379L5.937 6.47757L8.43532 8.42948L8.30545 8.5957L5.80713 6.64379Z" fill="#D4D4D8"/>
</g>
<g filter="url(#filter66_f_1642_7761)">
<rect x="9.13593" y="8.09943" width="1.29597" height="1.29597" rx="0.647985" transform="rotate(53.0823 9.13593 8.09943)" fill="#D4D4D8"/>
</g>
<path d="M13.7198 5.2022L14.078 5.19692L13.9732 5.53949L9.50544 8.89127L9.25203 8.55398L13.7198 5.2022Z" fill="#F4F4F5"/>
<g filter="url(#filter67_i_1642_7761)">
<path d="M13.7108 5.34083L13.8375 5.50947L9.70459 8.61455L9.57788 8.44591L13.7108 5.34083Z" fill="#D4D4D8"/>
</g>
<rect x="8.47815" y="8.47815" width="1.04368" height="1.04368" rx="0.521842" fill="#F4F4F5"/>
<path d="M9.05267 2.64563L9.28119 10.6964H8.74896L8.97748 2.64563H9.05267Z" fill="white"/>
<circle cx="9.01074" cy="9" r="7.875" fill="url(#paint4_linear_1642_7761)"/>
<g opacity="0.1" filter="url(#filter68_f_1642_7761)">
<path d="M11.7912 5.75339C10.2796 4.3177 8.47759 3.76094 8.8201 3.40032C9.16261 3.0397 11.0896 3.46489 12.6012 4.90058C14.1127 6.33627 14.6366 8.23879 14.2941 8.5994C13.9515 8.96002 13.3028 7.18907 11.7912 5.75339Z" fill="white"/>
</g>
</g>
</g>
</g>
<defs>
<filter id="filter64_dd_1642_7761" x="-0.28125" y="0" width="18.5625" height="20.8369" filterUnits="userSpaceOnUse" color-interpolation-filters="sRGB">
<feFlood flood-opacity="0" result="BackgroundImageFix"/>
<feColorMatrix in="SourceAlpha" type="matrix" values="0 0 0 0 0 0 0 0 0 0 0 0 0 0 0 0 0 0 127 0" result="hardAlpha"/>
<feMorphology radius="0.351562" operator="erode" in="SourceAlpha" result="effect1_dropShadow_1642_7761"/>
<feOffset dy="0.703125"/>
<feGaussianBlur stdDeviation="0.351562"/>
<feColorMatrix type="matrix" values="0 0 0 0 0 0 0 0 0 0 0 0 0 0 0 0 0 0 0.04 0"/>
<feBlend mode="normal" in2="BackgroundImageFix" result="effect1_dropShadow_1642_7761"/>
<feColorMatrix in="SourceAlpha" type="matrix" values="0 0 0 0 0 0 0 0 0 0 0 0 0 0 0 0 0 0 127 0" result="hardAlpha"/>
<feMorphology radius="0.351562" operator="erode" in="SourceAlpha" result="effect2_dropShadow_1642_7761"/>
<feOffset dy="1.40625"/>
<feGaussianBlur stdDeviation="0.878906"/>
<feColorMatrix type="matrix" values="0 0 0 0 0 0 0 0 0 0 0 0 0 0 0 0 0 0 0.1 0"/>
<feBlend mode="normal" in2="effect1_dropShadow_1642_7761" result="effect2_dropShadow_1642_7761"/>
<feBlend mode="normal" in="SourceGraphic" in2="effect2_dropShadow_1642_7761" result="shape"/>
</filter>
<filter id="filter65_i_1642_7761" x="5.80713" y="6.4776" width="2.62817" height="2.1181" filterUnits="userSpaceOnUse" color-interpolation-filters="sRGB">
<feFlood flood-opacity="0" result="BackgroundImageFix"/>
<feBlend mode="normal" in="SourceGraphic" in2="BackgroundImageFix" result="shape"/>
<feColorMatrix in="SourceAlpha" type="matrix" values="0 0 0 0 0 0 0 0 0 0 0 0 0 0 0 0 0 0 127 0" result="hardAlpha"/>
<feOffset/>
<feGaussianBlur stdDeviation="0.0703125"/>
<feComposite in2="hardAlpha" operator="arithmetic" k2="-1" k3="1"/>
<feColorMatrix type="matrix" values="0 0 0 0 0 0 0 0 0 0 0 0 0 0 0 0 0 0 0.2 0"/>
<feBlend mode="normal" in2="shape" result="effect1_innerShadow_1642_7761"/>
</filter>
<filter id="filter66_f_1642_7761" x="8.21844" y="8.21808" width="1.57727" height="1.57727" filterUnits="userSpaceOnUse" color-interpolation-filters="sRGB">
<feFlood flood-opacity="0" result="BackgroundImageFix"/>
<feBlend mode="normal" in="SourceGraphic" in2="BackgroundImageFix" result="shape"/>
<feGaussianBlur stdDeviation="0.0703125" result="effect1_foregroundBlur_1642_7761"/>
</filter>
<filter id="filter67_i_1642_7761" x="9.57788" y="5.34082" width="4.25964" height="3.27374" filterUnits="userSpaceOnUse" color-interpolation-filters="sRGB">
<feFlood flood-opacity="0" result="BackgroundImageFix"/>
<feBlend mode="normal" in="SourceGraphic" in2="BackgroundImageFix" result="shape"/>
<feColorMatrix in="SourceAlpha" type="matrix" values="0 0 0 0 0 0 0 0 0 0 0 0 0 0 0 0 0 0 127 0" result="hardAlpha"/>
<feOffset/>
<feGaussianBlur stdDeviation="0.0703125"/>
<feComposite in2="hardAlpha" operator="arithmetic" k2="-1" k3="1"/>
<feColorMatrix type="matrix" values="0 0 0 0 0 0 0 0 0 0 0 0 0 0 0 0 0 0 0.2 0"/>
<feBlend mode="normal" in2="shape" result="effect1_innerShadow_1642_7761"/>
</filter>
<filter id="filter68_f_1642_7761" x="7.59652" y="2.09756" width="7.97944" height="7.73048" filterUnits="userSpaceOnUse" color-interpolation-filters="sRGB">
<feFlood flood-opacity="0" result="BackgroundImageFix"/>
<feBlend mode="normal" in="SourceGraphic" in2="BackgroundImageFix" result="shape"/>
<feGaussianBlur stdDeviation="0.590625" result="effect1_foregroundBlur_1642_7761"/>
</filter>
<linearGradient id="paint0_linear_1642_7761" x1="18" y1="0" x2="0" y2="18" gradientUnits="userSpaceOnUse">
<stop stop-color="#FAFAFA"/>
<stop offset="1" stop-color="#9F9FA9"/>
</linearGradient>
<linearGradient id="paint1_linear_1642_7761" x1="8.99965" y1="10.2477" x2="8.99965" y2="14.0147" gradientUnits="userSpaceOnUse">
<stop stop-color="white" stop-opacity="0"/>
<stop offset="1" stop-color="white" stop-opacity="0.12"/>
</linearGradient>
<linearGradient id="paint2_linear_1642_7761" x1="5.68904" y1="7.44751" x2="5.68904" y2="11.2145" gradientUnits="userSpaceOnUse">
<stop stop-color="white" stop-opacity="0"/>
<stop offset="1" stop-color="white" stop-opacity="0.12"/>
</linearGradient>
<linearGradient id="paint3_linear_1642_7761" x1="12.3109" y1="7.44751" x2="12.3109" y2="11.2145" gradientUnits="userSpaceOnUse">
<stop stop-color="white" stop-opacity="0"/>
<stop offset="1" stop-color="white" stop-opacity="0.12"/>
</linearGradient>
<linearGradient id="paint4_linear_1642_7761" x1="14.1232" y1="2.9683" x2="4.01644" y2="15.1674" gradientUnits="userSpaceOnUse">
<stop stop-color="white" stop-opacity="0.3"/>
<stop offset="0.548077" stop-color="white" stop-opacity="0"/>
</linearGradient>
<clipPath id="clip0_1642_7761">
<rect width="18" height="18" rx="4.5" fill="white"/>
</clipPath>
<clipPath id="clip1_1642_7761">
<rect x="1.125" y="1.125" width="15.75" height="15.75" rx="7.875" fill="white"/>
</clipPath>
</defs>
</svg>
