<svg width="64" height="64" viewBox="0 0 64 64" fill="none" xmlns="http://www.w3.org/2000/svg">
<g clip-path="url(#clip0_1642_7765)">
<rect width="64" height="64" rx="16" fill="url(#paint0_linear_1642_7765)"/>
<rect x="3.6123" y="3.6123" width="56.7753" height="56.7753" rx="28.3877" fill="white"/>
<rect width="8" height="8" fill="white" fill-opacity="0.01"/>
<rect x="8" width="8" height="8" fill="white" fill-opacity="0.01"/>
<rect x="16" width="8" height="8" fill="white" fill-opacity="0.01"/>
<rect x="24" width="8" height="8" fill="white" fill-opacity="0.01"/>
<rect x="32" width="8" height="8" fill="white" fill-opacity="0.01"/>
<rect x="40" width="8" height="8" fill="white" fill-opacity="0.01"/>
<rect x="48" width="8" height="8" fill="white" fill-opacity="0.01"/>
<rect x="56" width="8" height="8" fill="white" fill-opacity="0.01"/>
<rect y="8" width="8" height="8" fill="white" fill-opacity="0.01"/>
<rect x="8" y="8" width="8" height="8" fill="white" fill-opacity="0.01"/>
<rect x="16" y="8" width="8" height="8" fill="white" fill-opacity="0.01"/>
<rect x="24" y="8" width="8" height="8" fill="white" fill-opacity="0.01"/>
<rect x="32" y="8" width="8" height="8" fill="white" fill-opacity="0.01"/>
<rect x="40" y="8" width="8" height="8" fill="white" fill-opacity="0.01"/>
<rect x="48" y="8" width="8" height="8" fill="white" fill-opacity="0.01"/>
<rect x="56" y="8" width="8" height="8" fill="white" fill-opacity="0.01"/>
<rect y="16" width="8" height="8" fill="white" fill-opacity="0.01"/>
<rect x="8" y="16" width="8" height="8" fill="white" fill-opacity="0.01"/>
<rect x="16" y="16" width="8" height="8" fill="white" fill-opacity="0.01"/>
<rect x="24" y="16" width="8" height="8" fill="white" fill-opacity="0.01"/>
<rect x="32" y="16" width="8" height="8" fill="white" fill-opacity="0.01"/>
<rect x="40" y="16" width="8" height="8" fill="white" fill-opacity="0.01"/>
<rect x="48" y="16" width="8" height="8" fill="white" fill-opacity="0.01"/>
<rect x="56" y="16" width="8" height="8" fill="white" fill-opacity="0.01"/>
<rect y="24" width="8" height="8" fill="white" fill-opacity="0.01"/>
<rect x="8" y="24" width="8" height="8" fill="white" fill-opacity="0.01"/>
<rect x="16" y="24" width="8" height="8" fill="white" fill-opacity="0.01"/>
<rect x="24" y="24" width="8" height="8" fill="white" fill-opacity="0.01"/>
<rect x="32" y="24" width="8" height="8" fill="white" fill-opacity="0.01"/>
<rect x="40" y="24" width="8" height="8" fill="white" fill-opacity="0.01"/>
<rect x="48" y="24" width="8" height="8" fill="white" fill-opacity="0.01"/>
<rect x="56" y="24" width="8" height="8" fill="white" fill-opacity="0.01"/>
<rect y="32" width="8" height="8" fill="white" fill-opacity="0.01"/>
<rect x="8" y="32" width="8" height="8" fill="white" fill-opacity="0.01"/>
<rect x="16" y="32" width="8" height="8" fill="white" fill-opacity="0.01"/>
<rect x="24" y="32" width="8" height="8" fill="white" fill-opacity="0.01"/>
<rect x="32" y="32" width="8" height="8" fill="white" fill-opacity="0.01"/>
<rect x="40" y="32" width="8" height="8" fill="white" fill-opacity="0.01"/>
<rect x="48" y="32" width="8" height="8" fill="white" fill-opacity="0.01"/>
<rect x="56" y="32" width="8" height="8" fill="white" fill-opacity="0.01"/>
<rect y="40" width="8" height="8" fill="white" fill-opacity="0.01"/>
<rect x="8" y="40" width="8" height="8" fill="white" fill-opacity="0.01"/>
<rect x="16" y="40" width="8" height="8" fill="white" fill-opacity="0.01"/>
<rect x="24" y="40" width="8" height="8" fill="white" fill-opacity="0.01"/>
<rect x="32" y="40" width="8" height="8" fill="white" fill-opacity="0.01"/>
<rect x="40" y="40" width="8" height="8" fill="white" fill-opacity="0.01"/>
<rect x="48" y="40" width="8" height="8" fill="white" fill-opacity="0.01"/>
<rect x="56" y="40" width="8" height="8" fill="white" fill-opacity="0.01"/>
<rect y="48" width="8" height="8" fill="white" fill-opacity="0.01"/>
<rect x="8" y="48" width="8" height="8" fill="white" fill-opacity="0.01"/>
<rect x="16" y="48" width="8" height="8" fill="white" fill-opacity="0.01"/>
<rect x="24" y="48" width="8" height="8" fill="white" fill-opacity="0.01"/>
<rect x="32" y="48" width="8" height="8" fill="white" fill-opacity="0.01"/>
<rect x="40" y="48" width="8" height="8" fill="white" fill-opacity="0.01"/>
<rect x="48" y="48" width="8" height="8" fill="white" fill-opacity="0.01"/>
<rect x="56" y="48" width="8" height="8" fill="white" fill-opacity="0.01"/>
<rect y="56" width="8" height="8" fill="white" fill-opacity="0.01"/>
<rect x="8" y="56" width="8" height="8" fill="white" fill-opacity="0.01"/>
<rect x="16" y="56" width="8" height="8" fill="white" fill-opacity="0.01"/>
<rect x="24" y="56" width="8" height="8" fill="white" fill-opacity="0.01"/>
<rect x="32" y="56" width="8" height="8" fill="white" fill-opacity="0.01"/>
<rect x="40" y="56" width="8" height="8" fill="white" fill-opacity="0.01"/>
<rect x="48" y="56" width="8" height="8" fill="white" fill-opacity="0.01"/>
<rect x="56" y="56" width="8" height="8" fill="white" fill-opacity="0.01"/>
<g filter="url(#filter64_dd_1642_7765)">
<path d="M9.73498 3.51979L17.0652 0.420346V11.27L4.58759 26.7735L9.73498 3.51979Z" fill="#D4D4D8"/>
<path d="M5.61597 22.5159L16.9083 0.663086H17.3614L17.7796 9.16722L5.61597 22.5159Z" fill="#9F9FA9"/>
<path d="M54.2651 3.51979L46.9349 0.420346V11.27L59.4125 26.7735L54.2651 3.51979Z" fill="#D4D4D8"/>
<path d="M58.3842 22.516L47.0918 0.663208H46.6387L46.2205 9.16734L58.3842 22.516Z" fill="#9F9FA9"/>
<path d="M9.73504 60.4804L17.0653 63.5798V52.7301L4.58765 37.2267L9.73504 60.4804Z" fill="#D4D4D8"/>
<path d="M5.61603 41.4844L16.9084 63.3372H17.3615L17.7797 54.8331L5.61603 41.4844Z" fill="#9F9FA9"/>
<path d="M54.2652 60.4805L46.9349 63.5799V52.7302L59.4126 37.2267L54.2652 60.4805Z" fill="#D4D4D8"/>
<path d="M58.3842 41.4843L47.0919 63.3372H46.6388L46.2205 54.833L58.3842 41.4843Z" fill="#9F9FA9"/>
<rect x="17" width="30.0132" height="64.0867" fill="#09090B"/>
<rect x="30.1904" width="3.63217" height="64.0867" fill="#27272A"/>
<g clip-path="url(#clip1_1642_7765)">
<rect x="4" y="4" width="56" height="56" rx="28" fill="#3F3F46"/>
<rect x="7.55304" y="7.55273" width="48.8946" height="48.8946" rx="24.4473" fill="#1E1E1E"/>
<circle cx="31.9989" cy="43.1333" r="6.69688" fill="url(#paint1_linear_1642_7765)"/>
<circle cx="31.9986" cy="43.1333" r="5.0754" fill="#18181B"/>
<circle cx="20.2278" cy="33.1769" r="6.69688" fill="url(#paint2_linear_1642_7765)"/>
<circle cx="43.7721" cy="33.1768" r="6.69688" fill="url(#paint3_linear_1642_7765)"/>
<circle cx="20.2278" cy="33.1768" r="5.0754" fill="#18181B"/>
<circle cx="43.7721" cy="33.1768" r="5.0754" fill="#18181B"/>
<rect x="9.92804" y="9.92773" width="44.1446" height="44.1446" rx="22.0723" stroke="#F4F4F5" stroke-width="4.75" stroke-dasharray="1.5 10"/>
<rect x="8.42804" y="8.42773" width="47.1446" height="47.1446" rx="23.5723" stroke="#18181B" stroke-width="1.75" stroke-dasharray="1.5 10"/>
<rect x="8.30304" y="8.30273" width="47.3946" height="47.3946" rx="23.6973" stroke="#9F9FA9" stroke-width="1.5" stroke-dasharray="1.5 10"/>
<rect x="28.4897" y="32.4458" width="5" height="5" rx="2.5" transform="rotate(-52 28.4897 32.4458)" fill="#F4F4F5"/>
<path d="M19.9312 23.5384L19.5816 22.3136L20.8547 22.3564L30.7089 30.0555L29.7855 31.2375L19.9312 23.5384Z" fill="#F4F4F5"/>
<g filter="url(#filter65_i_1642_7765)">
<path d="M20.6475 23.6224L21.1093 23.0313L29.9922 29.9715L29.5304 30.5625L20.6475 23.6224Z" fill="#D4D4D8"/>
</g>
<g filter="url(#filter66_f_1642_7765)">
<rect x="32.4834" y="28.7979" width="4.60789" height="4.60789" rx="2.30395" transform="rotate(53.0823 32.4834 28.7979)" fill="#D4D4D8"/>
</g>
<path d="M48.7816 18.4965L50.0552 18.4777L49.6826 19.6958L33.7971 31.6132L32.8961 30.414L48.7816 18.4965Z" fill="#F4F4F5"/>
<g filter="url(#filter67_i_1642_7765)">
<path d="M48.7497 18.9896L49.2002 19.5892L34.5053 30.6295L34.0548 30.0299L48.7497 18.9896Z" fill="#D4D4D8"/>
</g>
<rect x="30.1445" y="30.1445" width="3.71088" height="3.71088" rx="1.85544" fill="#F4F4F5"/>
<path d="M32.0531 9.40656H32.1859L32.9994 38.0325H31.1078L31.9203 9.40558H32.0531V9.40656Z" fill="white"/>
<circle cx="32.0381" cy="32" r="28" fill="url(#paint4_linear_1642_7765)"/>
<g opacity="0.1" filter="url(#filter68_f_1642_7765)">
<path d="M41.9241 20.4565C36.5496 15.3518 30.1425 13.3722 31.3603 12.09C32.5781 10.8078 39.4295 12.3196 44.804 17.4243C50.1786 22.529 52.041 29.2935 50.8232 30.5757C49.6054 31.8579 47.2986 25.5612 41.9241 20.4565Z" fill="white"/>
</g>
</g>
</g>
</g>
<defs>
<filter id="filter64_dd_1642_7765" x="-1" y="0" width="66" height="74.0867" filterUnits="userSpaceOnUse" color-interpolation-filters="sRGB">
<feFlood flood-opacity="0" result="BackgroundImageFix"/>
<feColorMatrix in="SourceAlpha" type="matrix" values="0 0 0 0 0 0 0 0 0 0 0 0 0 0 0 0 0 0 127 0" result="hardAlpha"/>
<feMorphology radius="1.25" operator="erode" in="SourceAlpha" result="effect1_dropShadow_1642_7765"/>
<feOffset dy="2.5"/>
<feGaussianBlur stdDeviation="1.25"/>
<feColorMatrix type="matrix" values="0 0 0 0 0 0 0 0 0 0 0 0 0 0 0 0 0 0 0.04 0"/>
<feBlend mode="normal" in2="BackgroundImageFix" result="effect1_dropShadow_1642_7765"/>
<feColorMatrix in="SourceAlpha" type="matrix" values="0 0 0 0 0 0 0 0 0 0 0 0 0 0 0 0 0 0 127 0" result="hardAlpha"/>
<feMorphology radius="1.25" operator="erode" in="SourceAlpha" result="effect2_dropShadow_1642_7765"/>
<feOffset dy="5"/>
<feGaussianBlur stdDeviation="3.125"/>
<feColorMatrix type="matrix" values="0 0 0 0 0 0 0 0 0 0 0 0 0 0 0 0 0 0 0.1 0"/>
<feBlend mode="normal" in2="effect1_dropShadow_1642_7765" result="effect2_dropShadow_1642_7765"/>
<feBlend mode="normal" in="SourceGraphic" in2="effect2_dropShadow_1642_7765" result="shape"/>
</filter>
<filter id="filter65_i_1642_7765" x="20.6475" y="23.0314" width="9.34467" height="7.53113" filterUnits="userSpaceOnUse" color-interpolation-filters="sRGB">
<feFlood flood-opacity="0" result="BackgroundImageFix"/>
<feBlend mode="normal" in="SourceGraphic" in2="BackgroundImageFix" result="shape"/>
<feColorMatrix in="SourceAlpha" type="matrix" values="0 0 0 0 0 0 0 0 0 0 0 0 0 0 0 0 0 0 127 0" result="hardAlpha"/>
<feOffset/>
<feGaussianBlur stdDeviation="0.25"/>
<feComposite in2="hardAlpha" operator="arithmetic" k2="-1" k3="1"/>
<feColorMatrix type="matrix" values="0 0 0 0 0 0 0 0 0 0 0 0 0 0 0 0 0 0 0.2 0"/>
<feBlend mode="normal" in2="shape" result="effect1_innerShadow_1642_7765"/>
</filter>
<filter id="filter66_f_1642_7765" x="29.2213" y="29.2197" width="5.60815" height="5.60815" filterUnits="userSpaceOnUse" color-interpolation-filters="sRGB">
<feFlood flood-opacity="0" result="BackgroundImageFix"/>
<feBlend mode="normal" in="SourceGraphic" in2="BackgroundImageFix" result="shape"/>
<feGaussianBlur stdDeviation="0.25" result="effect1_foregroundBlur_1642_7765"/>
</filter>
<filter id="filter67_i_1642_7765" x="34.0548" y="18.9896" width="15.1454" height="11.64" filterUnits="userSpaceOnUse" color-interpolation-filters="sRGB">
<feFlood flood-opacity="0" result="BackgroundImageFix"/>
<feBlend mode="normal" in="SourceGraphic" in2="BackgroundImageFix" result="shape"/>
<feColorMatrix in="SourceAlpha" type="matrix" values="0 0 0 0 0 0 0 0 0 0 0 0 0 0 0 0 0 0 127 0" result="hardAlpha"/>
<feOffset/>
<feGaussianBlur stdDeviation="0.25"/>
<feComposite in2="hardAlpha" operator="arithmetic" k2="-1" k3="1"/>
<feColorMatrix type="matrix" values="0 0 0 0 0 0 0 0 0 0 0 0 0 0 0 0 0 0 0.2 0"/>
<feBlend mode="normal" in2="shape" result="effect1_innerShadow_1642_7765"/>
</filter>
<filter id="filter68_f_1642_7765" x="27.0097" y="7.45796" width="28.3714" height="27.4861" filterUnits="userSpaceOnUse" color-interpolation-filters="sRGB">
<feFlood flood-opacity="0" result="BackgroundImageFix"/>
<feBlend mode="normal" in="SourceGraphic" in2="BackgroundImageFix" result="shape"/>
<feGaussianBlur stdDeviation="2.1" result="effect1_foregroundBlur_1642_7765"/>
</filter>
<linearGradient id="paint0_linear_1642_7765" x1="64" y1="0" x2="0" y2="64" gradientUnits="userSpaceOnUse">
<stop stop-color="#FAFAFA"/>
<stop offset="1" stop-color="#9F9FA9"/>
</linearGradient>
<linearGradient id="paint1_linear_1642_7765" x1="31.9989" y1="36.4364" x2="31.9989" y2="49.8302" gradientUnits="userSpaceOnUse">
<stop stop-color="white" stop-opacity="0"/>
<stop offset="1" stop-color="white" stop-opacity="0.12"/>
</linearGradient>
<linearGradient id="paint2_linear_1642_7765" x1="20.2278" y1="26.48" x2="20.2278" y2="39.8737" gradientUnits="userSpaceOnUse">
<stop stop-color="white" stop-opacity="0"/>
<stop offset="1" stop-color="white" stop-opacity="0.12"/>
</linearGradient>
<linearGradient id="paint3_linear_1642_7765" x1="43.7721" y1="26.4799" x2="43.7721" y2="39.8737" gradientUnits="userSpaceOnUse">
<stop stop-color="white" stop-opacity="0"/>
<stop offset="1" stop-color="white" stop-opacity="0.12"/>
</linearGradient>
<linearGradient id="paint4_linear_1642_7765" x1="50.2156" y1="10.554" x2="14.2806" y2="53.9287" gradientUnits="userSpaceOnUse">
<stop stop-color="white" stop-opacity="0.3"/>
<stop offset="0.548077" stop-color="white" stop-opacity="0"/>
</linearGradient>
<clipPath id="clip0_1642_7765">
<rect width="64" height="64" rx="16" fill="white"/>
</clipPath>
<clipPath id="clip1_1642_7765">
<rect x="4" y="4" width="56" height="56" rx="28" fill="white"/>
</clipPath>
</defs>
</svg>
