<svg width="38" height="38" viewBox="0 0 38 38" fill="none" xmlns="http://www.w3.org/2000/svg">
<g filter="url(#filter0_dd_1633_5538)">
<g clip-path="url(#clip0_1633_5538)">
<rect x="3" y="2" width="32" height="32" rx="8" fill="url(#paint0_linear_1633_5538)"/>
<rect x="4.80615" y="3.80615" width="28.3877" height="28.3877" rx="14.1938" fill="white"/>
<rect x="3" y="2" width="4" height="4" fill="white" fill-opacity="0.01"/>
<rect x="7" y="2" width="4" height="4" fill="white" fill-opacity="0.01"/>
<rect x="11" y="2" width="4" height="4" fill="white" fill-opacity="0.01"/>
<rect x="15" y="2" width="4" height="4" fill="white" fill-opacity="0.01"/>
<rect x="19" y="2" width="4" height="4" fill="white" fill-opacity="0.01"/>
<rect x="23" y="2" width="4" height="4" fill="white" fill-opacity="0.01"/>
<rect x="27" y="2" width="4" height="4" fill="white" fill-opacity="0.01"/>
<rect x="31" y="2" width="4" height="4" fill="white" fill-opacity="0.01"/>
<rect x="3" y="6" width="4" height="4" fill="white" fill-opacity="0.01"/>
<rect x="7" y="6" width="4" height="4" fill="white" fill-opacity="0.01"/>
<rect x="11" y="6" width="4" height="4" fill="white" fill-opacity="0.01"/>
<rect x="15" y="6" width="4" height="4" fill="white" fill-opacity="0.01"/>
<rect x="19" y="6" width="4" height="4" fill="white" fill-opacity="0.01"/>
<rect x="23" y="6" width="4" height="4" fill="white" fill-opacity="0.01"/>
<rect x="27" y="6" width="4" height="4" fill="white" fill-opacity="0.01"/>
<rect x="31" y="6" width="4" height="4" fill="white" fill-opacity="0.01"/>
<rect x="3" y="10" width="4" height="4" fill="white" fill-opacity="0.01"/>
<rect x="7" y="10" width="4" height="4" fill="white" fill-opacity="0.01"/>
<rect x="11" y="10" width="4" height="4" fill="white" fill-opacity="0.01"/>
<rect x="15" y="10" width="4" height="4" fill="white" fill-opacity="0.01"/>
<rect x="19" y="10" width="4" height="4" fill="white" fill-opacity="0.01"/>
<rect x="23" y="10" width="4" height="4" fill="white" fill-opacity="0.01"/>
<rect x="27" y="10" width="4" height="4" fill="white" fill-opacity="0.01"/>
<rect x="31" y="10" width="4" height="4" fill="white" fill-opacity="0.01"/>
<rect x="3" y="14" width="4" height="4" fill="white" fill-opacity="0.01"/>
<rect x="7" y="14" width="4" height="4" fill="white" fill-opacity="0.01"/>
<rect x="11" y="14" width="4" height="4" fill="white" fill-opacity="0.01"/>
<rect x="15" y="14" width="4" height="4" fill="white" fill-opacity="0.01"/>
<rect x="19" y="14" width="4" height="4" fill="white" fill-opacity="0.01"/>
<rect x="23" y="14" width="4" height="4" fill="white" fill-opacity="0.01"/>
<rect x="27" y="14" width="4" height="4" fill="white" fill-opacity="0.01"/>
<rect x="31" y="14" width="4" height="4" fill="white" fill-opacity="0.01"/>
<rect x="3" y="18" width="4" height="4" fill="white" fill-opacity="0.01"/>
<rect x="7" y="18" width="4" height="4" fill="white" fill-opacity="0.01"/>
<rect x="11" y="18" width="4" height="4" fill="white" fill-opacity="0.01"/>
<rect x="15" y="18" width="4" height="4" fill="white" fill-opacity="0.01"/>
<rect x="19" y="18" width="4" height="4" fill="white" fill-opacity="0.01"/>
<rect x="23" y="18" width="4" height="4" fill="white" fill-opacity="0.01"/>
<rect x="27" y="18" width="4" height="4" fill="white" fill-opacity="0.01"/>
<rect x="31" y="18" width="4" height="4" fill="white" fill-opacity="0.01"/>
<rect x="3" y="22" width="4" height="4" fill="white" fill-opacity="0.01"/>
<rect x="7" y="22" width="4" height="4" fill="white" fill-opacity="0.01"/>
<rect x="11" y="22" width="4" height="4" fill="white" fill-opacity="0.01"/>
<rect x="15" y="22" width="4" height="4" fill="white" fill-opacity="0.01"/>
<rect x="19" y="22" width="4" height="4" fill="white" fill-opacity="0.01"/>
<rect x="23" y="22" width="4" height="4" fill="white" fill-opacity="0.01"/>
<rect x="27" y="22" width="4" height="4" fill="white" fill-opacity="0.01"/>
<rect x="31" y="22" width="4" height="4" fill="white" fill-opacity="0.01"/>
<rect x="3" y="26" width="4" height="4" fill="white" fill-opacity="0.01"/>
<rect x="7" y="26" width="4" height="4" fill="white" fill-opacity="0.01"/>
<rect x="11" y="26" width="4" height="4" fill="white" fill-opacity="0.01"/>
<rect x="15" y="26" width="4" height="4" fill="white" fill-opacity="0.01"/>
<rect x="19" y="26" width="4" height="4" fill="white" fill-opacity="0.01"/>
<rect x="23" y="26" width="4" height="4" fill="white" fill-opacity="0.01"/>
<rect x="27" y="26" width="4" height="4" fill="white" fill-opacity="0.01"/>
<rect x="31" y="26" width="4" height="4" fill="white" fill-opacity="0.01"/>
<rect x="3" y="30" width="4" height="4" fill="white" fill-opacity="0.01"/>
<rect x="7" y="30" width="4" height="4" fill="white" fill-opacity="0.01"/>
<rect x="11" y="30" width="4" height="4" fill="white" fill-opacity="0.01"/>
<rect x="15" y="30" width="4" height="4" fill="white" fill-opacity="0.01"/>
<rect x="19" y="30" width="4" height="4" fill="white" fill-opacity="0.01"/>
<rect x="23" y="30" width="4" height="4" fill="white" fill-opacity="0.01"/>
<rect x="27" y="30" width="4" height="4" fill="white" fill-opacity="0.01"/>
<rect x="31" y="30" width="4" height="4" fill="white" fill-opacity="0.01"/>
<g filter="url(#filter65_dd_1633_5538)">
<path d="M7.86764 3.75989L11.5328 2.21017V7.63501L5.29395 15.3868L7.86764 3.75989Z" fill="#D4D4D8"/>
<path d="M5.80811 13.2579L11.4543 2.33154H11.6808L11.8899 6.5836L5.80811 13.2579Z" fill="#9F9FA9"/>
<path d="M30.1328 3.75988L26.4677 2.21016V7.63501L32.7065 15.3867L30.1328 3.75988Z" fill="#D4D4D8"/>
<path d="M32.1924 13.258L26.5462 2.33157H26.3197L26.1105 6.58363L32.1924 13.258Z" fill="#9F9FA9"/>
<path d="M7.86764 32.2402L11.5328 33.7899V28.365L5.29395 20.6133L7.86764 32.2402Z" fill="#D4D4D8"/>
<path d="M5.80811 22.7422L11.4543 33.6686H11.6808L11.8899 29.4165L5.80811 22.7422Z" fill="#9F9FA9"/>
<path d="M30.1328 32.2402L26.4677 33.7899V28.3651L32.7065 20.6133L30.1328 32.2402Z" fill="#D4D4D8"/>
<path d="M32.1924 22.7421L26.5462 33.6685H26.3197L26.1105 29.4165L32.1924 22.7421Z" fill="#9F9FA9"/>
<rect x="11.5" y="2" width="15.0066" height="32.0433" fill="#09090B"/>
<rect x="18.0952" y="2" width="1.81609" height="32.0433" fill="#27272A"/>
<g clip-path="url(#clip1_1633_5538)">
<rect x="5" y="4" width="28" height="28" rx="14" fill="#3F3F46"/>
<rect x="6.77637" y="5.77637" width="24.4473" height="24.4473" rx="12.2236" fill="#1E1E1E"/>
<circle cx="18.9993" cy="23.5666" r="3.34844" fill="url(#paint1_linear_1633_5538)"/>
<circle cx="18.9991" cy="23.5667" r="2.5377" fill="#18181B"/>
<circle cx="13.1141" cy="18.5884" r="3.34844" fill="url(#paint2_linear_1633_5538)"/>
<circle cx="24.886" cy="18.5884" r="3.34844" fill="url(#paint3_linear_1633_5538)"/>
<circle cx="13.1139" cy="18.5884" r="2.5377" fill="#18181B"/>
<circle cx="24.8863" cy="18.5884" r="2.5377" fill="#18181B"/>
<rect x="7.96387" y="6.96387" width="22.0723" height="22.0723" rx="11.0361" stroke="#F4F4F5" stroke-width="2.375" stroke-dasharray="0.75 5"/>
<rect x="7.21387" y="6.21387" width="23.5723" height="23.5723" rx="11.7861" stroke="#18181B" stroke-width="0.875" stroke-dasharray="0.75 5"/>
<rect x="7.15137" y="6.15137" width="23.6973" height="23.6973" rx="11.8486" stroke="#9F9FA9" stroke-width="0.75" stroke-dasharray="0.75 5"/>
<rect x="17.2451" y="18.2229" width="2.5" height="2.5" rx="1.25" transform="rotate(-52 17.2451 18.2229)" fill="#F4F4F5"/>
<path d="M12.9657 13.7692L12.7909 13.1568L13.4275 13.1782L18.3546 17.0277L17.8929 17.6187L12.9657 13.7692Z" fill="#F4F4F5"/>
<g filter="url(#filter66_i_1633_5538)">
<path d="M13.3237 13.8112L13.5546 13.5157L17.9961 16.9857L17.7652 17.2812L13.3237 13.8112Z" fill="#D4D4D8"/>
</g>
<g filter="url(#filter67_f_1633_5538)">
<rect x="19.2417" y="16.3989" width="2.30395" height="2.30395" rx="1.15197" transform="rotate(53.0823 19.2417 16.3989)" fill="#D4D4D8"/>
</g>
<path d="M27.391 11.2483L28.0278 11.2389L27.8415 11.8479L19.8987 17.8066L19.4482 17.207L27.391 11.2483Z" fill="#F4F4F5"/>
<g filter="url(#filter68_i_1633_5538)">
<path d="M27.375 11.4948L27.6003 11.7946L20.2528 17.3147L20.0276 17.0149L27.375 11.4948Z" fill="#D4D4D8"/>
</g>
<rect x="18.0723" y="17.0723" width="1.85544" height="1.85544" rx="0.927719" fill="#F4F4F5"/>
<path d="M19.0928 6.70329L19.499 21.0168H19.0264V21.0158H18.5537L18.96 6.70329H19.0928Z" fill="white"/>
<circle cx="19.019" cy="18" r="14" fill="url(#paint4_linear_1633_5538)"/>
<g opacity="0.1" filter="url(#filter69_f_1633_5538)">
<path d="M23.9619 12.2282C21.2746 9.67591 18.0711 8.68612 18.68 8.04502C19.2889 7.40392 22.7146 8.15982 25.4018 10.7121C28.0891 13.2645 29.0203 16.6467 28.4114 17.2878C27.8025 17.9289 26.6491 14.7806 23.9619 12.2282Z" fill="white"/>
</g>
</g>
</g>
</g>
</g>
<defs>
<filter id="filter0_dd_1633_5538" x="0" y="0" width="38" height="38" filterUnits="userSpaceOnUse" color-interpolation-filters="sRGB">
<feFlood flood-opacity="0" result="BackgroundImageFix"/>
<feColorMatrix in="SourceAlpha" type="matrix" values="0 0 0 0 0 0 0 0 0 0 0 0 0 0 0 0 0 0 127 0" result="hardAlpha"/>
<feOffset dy="1"/>
<feGaussianBlur stdDeviation="1"/>
<feColorMatrix type="matrix" values="0 0 0 0 0 0 0 0 0 0 0 0 0 0 0 0 0 0 0.06 0"/>
<feBlend mode="normal" in2="BackgroundImageFix" result="effect1_dropShadow_1633_5538"/>
<feColorMatrix in="SourceAlpha" type="matrix" values="0 0 0 0 0 0 0 0 0 0 0 0 0 0 0 0 0 0 127 0" result="hardAlpha"/>
<feOffset dy="1"/>
<feGaussianBlur stdDeviation="1.5"/>
<feColorMatrix type="matrix" values="0 0 0 0 0 0 0 0 0 0 0 0 0 0 0 0 0 0 0.1 0"/>
<feBlend mode="normal" in2="effect1_dropShadow_1633_5538" result="effect2_dropShadow_1633_5538"/>
<feBlend mode="normal" in="SourceGraphic" in2="effect2_dropShadow_1633_5538" result="shape"/>
</filter>
<filter id="filter65_dd_1633_5538" x="2.5" y="2" width="33" height="37.0433" filterUnits="userSpaceOnUse" color-interpolation-filters="sRGB">
<feFlood flood-opacity="0" result="BackgroundImageFix"/>
<feColorMatrix in="SourceAlpha" type="matrix" values="0 0 0 0 0 0 0 0 0 0 0 0 0 0 0 0 0 0 127 0" result="hardAlpha"/>
<feMorphology radius="0.625" operator="erode" in="SourceAlpha" result="effect1_dropShadow_1633_5538"/>
<feOffset dy="1.25"/>
<feGaussianBlur stdDeviation="0.625"/>
<feColorMatrix type="matrix" values="0 0 0 0 0 0 0 0 0 0 0 0 0 0 0 0 0 0 0.04 0"/>
<feBlend mode="normal" in2="BackgroundImageFix" result="effect1_dropShadow_1633_5538"/>
<feColorMatrix in="SourceAlpha" type="matrix" values="0 0 0 0 0 0 0 0 0 0 0 0 0 0 0 0 0 0 127 0" result="hardAlpha"/>
<feMorphology radius="0.625" operator="erode" in="SourceAlpha" result="effect2_dropShadow_1633_5538"/>
<feOffset dy="2.5"/>
<feGaussianBlur stdDeviation="1.5625"/>
<feColorMatrix type="matrix" values="0 0 0 0 0 0 0 0 0 0 0 0 0 0 0 0 0 0 0.1 0"/>
<feBlend mode="normal" in2="effect1_dropShadow_1633_5538" result="effect2_dropShadow_1633_5538"/>
<feBlend mode="normal" in="SourceGraphic" in2="effect2_dropShadow_1633_5538" result="shape"/>
</filter>
<filter id="filter66_i_1633_5538" x="13.3237" y="13.5157" width="4.67236" height="3.76556" filterUnits="userSpaceOnUse" color-interpolation-filters="sRGB">
<feFlood flood-opacity="0" result="BackgroundImageFix"/>
<feBlend mode="normal" in="SourceGraphic" in2="BackgroundImageFix" result="shape"/>
<feColorMatrix in="SourceAlpha" type="matrix" values="0 0 0 0 0 0 0 0 0 0 0 0 0 0 0 0 0 0 127 0" result="hardAlpha"/>
<feOffset/>
<feGaussianBlur stdDeviation="0.125"/>
<feComposite in2="hardAlpha" operator="arithmetic" k2="-1" k3="1"/>
<feColorMatrix type="matrix" values="0 0 0 0 0 0 0 0 0 0 0 0 0 0 0 0 0 0 0.2 0"/>
<feBlend mode="normal" in2="shape" result="effect1_innerShadow_1633_5538"/>
</filter>
<filter id="filter67_f_1633_5538" x="17.6108" y="16.6098" width="2.80371" height="2.80408" filterUnits="userSpaceOnUse" color-interpolation-filters="sRGB">
<feFlood flood-opacity="0" result="BackgroundImageFix"/>
<feBlend mode="normal" in="SourceGraphic" in2="BackgroundImageFix" result="shape"/>
<feGaussianBlur stdDeviation="0.125" result="effect1_foregroundBlur_1633_5538"/>
</filter>
<filter id="filter68_i_1633_5538" x="20.0273" y="11.4948" width="7.57275" height="5.81996" filterUnits="userSpaceOnUse" color-interpolation-filters="sRGB">
<feFlood flood-opacity="0" result="BackgroundImageFix"/>
<feBlend mode="normal" in="SourceGraphic" in2="BackgroundImageFix" result="shape"/>
<feColorMatrix in="SourceAlpha" type="matrix" values="0 0 0 0 0 0 0 0 0 0 0 0 0 0 0 0 0 0 127 0" result="hardAlpha"/>
<feOffset/>
<feGaussianBlur stdDeviation="0.125"/>
<feComposite in2="hardAlpha" operator="arithmetic" k2="-1" k3="1"/>
<feColorMatrix type="matrix" values="0 0 0 0 0 0 0 0 0 0 0 0 0 0 0 0 0 0 0.2 0"/>
<feBlend mode="normal" in2="shape" result="effect1_innerShadow_1633_5538"/>
</filter>
<filter id="filter69_f_1633_5538" x="16.5045" y="5.72896" width="14.1858" height="13.7431" filterUnits="userSpaceOnUse" color-interpolation-filters="sRGB">
<feFlood flood-opacity="0" result="BackgroundImageFix"/>
<feBlend mode="normal" in="SourceGraphic" in2="BackgroundImageFix" result="shape"/>
<feGaussianBlur stdDeviation="1.05" result="effect1_foregroundBlur_1633_5538"/>
</filter>
<linearGradient id="paint0_linear_1633_5538" x1="35" y1="2" x2="3" y2="34" gradientUnits="userSpaceOnUse">
<stop stop-color="#FAFAFA"/>
<stop offset="1" stop-color="#9F9FA9"/>
</linearGradient>
<linearGradient id="paint1_linear_1633_5538" x1="18.9993" y1="20.2182" x2="18.9993" y2="26.9151" gradientUnits="userSpaceOnUse">
<stop stop-color="white" stop-opacity="0"/>
<stop offset="1" stop-color="white" stop-opacity="0.12"/>
</linearGradient>
<linearGradient id="paint2_linear_1633_5538" x1="13.1141" y1="15.24" x2="13.1141" y2="21.9369" gradientUnits="userSpaceOnUse">
<stop stop-color="white" stop-opacity="0"/>
<stop offset="1" stop-color="white" stop-opacity="0.12"/>
</linearGradient>
<linearGradient id="paint3_linear_1633_5538" x1="24.886" y1="15.24" x2="24.886" y2="21.9369" gradientUnits="userSpaceOnUse">
<stop stop-color="white" stop-opacity="0"/>
<stop offset="1" stop-color="white" stop-opacity="0.12"/>
</linearGradient>
<linearGradient id="paint4_linear_1633_5538" x1="28.1078" y1="7.27698" x2="10.1403" y2="28.9643" gradientUnits="userSpaceOnUse">
<stop stop-color="white" stop-opacity="0.3"/>
<stop offset="0.548077" stop-color="white" stop-opacity="0"/>
</linearGradient>
<clipPath id="clip0_1633_5538">
<rect x="3" y="2" width="32" height="32" rx="8" fill="white"/>
</clipPath>
<clipPath id="clip1_1633_5538">
<rect x="5" y="4" width="28" height="28" rx="14" fill="white"/>
</clipPath>
</defs>
</svg>
