<svg width="54" height="54" viewBox="0 0 54 54" fill="none" xmlns="http://www.w3.org/2000/svg">
<g filter="url(#filter0_dd_1633_5315)">
<g clip-path="url(#clip0_1633_5315)">
<rect x="3" y="2" width="48" height="48" rx="12" fill="url(#paint0_linear_1633_5315)"/>
<rect x="5.70898" y="4.70923" width="42.5815" height="42.5815" rx="21.2908" fill="white"/>
<rect x="3" y="2" width="6" height="6" fill="white" fill-opacity="0.01"/>
<rect x="9" y="2" width="6" height="6" fill="white" fill-opacity="0.01"/>
<rect x="15" y="2" width="6" height="6" fill="white" fill-opacity="0.01"/>
<rect x="21" y="2" width="6" height="6" fill="white" fill-opacity="0.01"/>
<rect x="27" y="2" width="6" height="6" fill="white" fill-opacity="0.01"/>
<rect x="33" y="2" width="6" height="6" fill="white" fill-opacity="0.01"/>
<rect x="39" y="2" width="6" height="6" fill="white" fill-opacity="0.01"/>
<rect x="45" y="2" width="6" height="6" fill="white" fill-opacity="0.01"/>
<rect x="3" y="8" width="6" height="6" fill="white" fill-opacity="0.01"/>
<rect x="9" y="8" width="6" height="6" fill="white" fill-opacity="0.01"/>
<rect x="15" y="8" width="6" height="6" fill="white" fill-opacity="0.01"/>
<rect x="21" y="8" width="6" height="6" fill="white" fill-opacity="0.01"/>
<rect x="27" y="8" width="6" height="6" fill="white" fill-opacity="0.01"/>
<rect x="33" y="8" width="6" height="6" fill="white" fill-opacity="0.01"/>
<rect x="39" y="8" width="6" height="6" fill="white" fill-opacity="0.01"/>
<rect x="45" y="8" width="6" height="6" fill="white" fill-opacity="0.01"/>
<rect x="3" y="14" width="6" height="6" fill="white" fill-opacity="0.01"/>
<rect x="9" y="14" width="6" height="6" fill="white" fill-opacity="0.01"/>
<rect x="15" y="14" width="6" height="6" fill="white" fill-opacity="0.01"/>
<rect x="21" y="14" width="6" height="6" fill="white" fill-opacity="0.01"/>
<rect x="27" y="14" width="6" height="6" fill="white" fill-opacity="0.01"/>
<rect x="33" y="14" width="6" height="6" fill="white" fill-opacity="0.01"/>
<rect x="39" y="14" width="6" height="6" fill="white" fill-opacity="0.01"/>
<rect x="45" y="14" width="6" height="6" fill="white" fill-opacity="0.01"/>
<rect x="3" y="20" width="6" height="6" fill="white" fill-opacity="0.01"/>
<rect x="9" y="20" width="6" height="6" fill="white" fill-opacity="0.01"/>
<rect x="15" y="20" width="6" height="6" fill="white" fill-opacity="0.01"/>
<rect x="21" y="20" width="6" height="6" fill="white" fill-opacity="0.01"/>
<rect x="27" y="20" width="6" height="6" fill="white" fill-opacity="0.01"/>
<rect x="33" y="20" width="6" height="6" fill="white" fill-opacity="0.01"/>
<rect x="39" y="20" width="6" height="6" fill="white" fill-opacity="0.01"/>
<rect x="45" y="20" width="6" height="6" fill="white" fill-opacity="0.01"/>
<rect x="3" y="26" width="6" height="6" fill="white" fill-opacity="0.01"/>
<rect x="9" y="26" width="6" height="6" fill="white" fill-opacity="0.01"/>
<rect x="15" y="26" width="6" height="6" fill="white" fill-opacity="0.01"/>
<rect x="21" y="26" width="6" height="6" fill="white" fill-opacity="0.01"/>
<rect x="27" y="26" width="6" height="6" fill="white" fill-opacity="0.01"/>
<rect x="33" y="26" width="6" height="6" fill="white" fill-opacity="0.01"/>
<rect x="39" y="26" width="6" height="6" fill="white" fill-opacity="0.01"/>
<rect x="45" y="26" width="6" height="6" fill="white" fill-opacity="0.01"/>
<rect x="3" y="32" width="6" height="6" fill="white" fill-opacity="0.01"/>
<rect x="9" y="32" width="6" height="6" fill="white" fill-opacity="0.01"/>
<rect x="15" y="32" width="6" height="6" fill="white" fill-opacity="0.01"/>
<rect x="21" y="32" width="6" height="6" fill="white" fill-opacity="0.01"/>
<rect x="27" y="32" width="6" height="6" fill="white" fill-opacity="0.01"/>
<rect x="33" y="32" width="6" height="6" fill="white" fill-opacity="0.01"/>
<rect x="39" y="32" width="6" height="6" fill="white" fill-opacity="0.01"/>
<rect x="45" y="32" width="6" height="6" fill="white" fill-opacity="0.01"/>
<rect x="3" y="38" width="6" height="6" fill="white" fill-opacity="0.01"/>
<rect x="9" y="38" width="6" height="6" fill="white" fill-opacity="0.01"/>
<rect x="15" y="38" width="6" height="6" fill="white" fill-opacity="0.01"/>
<rect x="21" y="38" width="6" height="6" fill="white" fill-opacity="0.01"/>
<rect x="27" y="38" width="6" height="6" fill="white" fill-opacity="0.01"/>
<rect x="33" y="38" width="6" height="6" fill="white" fill-opacity="0.01"/>
<rect x="39" y="38" width="6" height="6" fill="white" fill-opacity="0.01"/>
<rect x="45" y="38" width="6" height="6" fill="white" fill-opacity="0.01"/>
<rect x="3" y="44" width="6" height="6" fill="white" fill-opacity="0.01"/>
<rect x="9" y="44" width="6" height="6" fill="white" fill-opacity="0.01"/>
<rect x="15" y="44" width="6" height="6" fill="white" fill-opacity="0.01"/>
<rect x="21" y="44" width="6" height="6" fill="white" fill-opacity="0.01"/>
<rect x="27" y="44" width="6" height="6" fill="white" fill-opacity="0.01"/>
<rect x="33" y="44" width="6" height="6" fill="white" fill-opacity="0.01"/>
<rect x="39" y="44" width="6" height="6" fill="white" fill-opacity="0.01"/>
<rect x="45" y="44" width="6" height="6" fill="white" fill-opacity="0.01"/>
<g filter="url(#filter65_dd_1633_5315)">
<path d="M10.301 4.63983L15.7987 2.31524V10.4525L6.44043 22.0801L10.301 4.63983Z" fill="#D4D4D8"/>
<path d="M7.21191 18.8869L15.6812 2.49731H16.021L16.3347 8.87541L7.21191 18.8869Z" fill="#9F9FA9"/>
<path d="M43.6985 4.63983L38.2009 2.31524V10.4525L47.5591 22.0801L43.6985 4.63983Z" fill="#D4D4D8"/>
<path d="M46.7881 18.887L38.3188 2.49738H37.979L37.6653 8.87547L46.7881 18.887Z" fill="#9F9FA9"/>
<path d="M10.301 47.3603L15.7987 49.6848V41.5476L6.44043 29.92L10.301 47.3603Z" fill="#D4D4D8"/>
<path d="M7.21191 33.1133L15.6812 49.5029H16.021L16.3347 43.1248L7.21191 33.1133Z" fill="#9F9FA9"/>
<path d="M43.6985 47.3603L38.2009 49.6849V41.5476L47.5591 29.92L43.6985 47.3603Z" fill="#D4D4D8"/>
<path d="M46.7881 33.1132L38.3188 49.5028H37.979L37.6653 43.1247L46.7881 33.1132Z" fill="#9F9FA9"/>
<rect x="15.75" y="2" width="22.5099" height="48.065" fill="#09090B"/>
<rect x="25.6426" y="2" width="2.72413" height="48.065" fill="#27272A"/>
<g clip-path="url(#clip1_1633_5315)">
<rect x="6" y="5" width="42" height="42" rx="21" fill="#3F3F46"/>
<rect x="8.66504" y="7.66455" width="36.6709" height="36.6709" rx="18.3355" fill="#1E1E1E"/>
<circle cx="26.9992" cy="34.35" r="5.02266" fill="url(#paint1_linear_1633_5315)"/>
<circle cx="26.9989" cy="34.35" r="3.80655" fill="#18181B"/>
<circle cx="18.1711" cy="26.8826" r="5.02266" fill="url(#paint2_linear_1633_5315)"/>
<circle cx="35.8293" cy="26.8826" r="5.02266" fill="url(#paint3_linear_1633_5315)"/>
<circle cx="18.1708" cy="26.8826" r="3.80655" fill="#18181B"/>
<circle cx="35.829" cy="26.8826" r="3.80655" fill="#18181B"/>
<rect x="10.4463" y="9.4458" width="33.1084" height="33.1084" rx="16.5542" stroke="#F4F4F5" stroke-width="3.5625" stroke-dasharray="1.12 7.5"/>
<rect x="9.32129" y="8.3208" width="35.3584" height="35.3584" rx="17.6792" stroke="#18181B" stroke-width="1.3125" stroke-dasharray="1.12 7.5"/>
<rect x="9.22754" y="8.22705" width="35.5459" height="35.5459" rx="17.773" stroke="#9F9FA9" stroke-width="1.125" stroke-dasharray="1.12 7.5"/>
<rect x="24.3672" y="26.3344" width="3.75" height="3.75" rx="1.875" transform="rotate(-52 24.3672 26.3344)" fill="#F4F4F5"/>
<path d="M17.9483 19.6538L17.6862 18.7352L18.6409 18.7673L26.0317 24.5416L25.339 25.4281L17.9483 19.6538Z" fill="#F4F4F5"/>
<g filter="url(#filter66_i_1633_5315)">
<path d="M18.4859 19.7168L18.8322 19.2735L25.4943 24.4786L25.148 24.9218L18.4859 19.7168Z" fill="#D4D4D8"/>
</g>
<g filter="url(#filter67_f_1633_5315)">
<rect x="27.3628" y="23.5984" width="3.45592" height="3.45592" rx="1.72796" transform="rotate(53.0823 27.3628 23.5984)" fill="#D4D4D8"/>
</g>
<path d="M39.5867 15.8724L40.5419 15.8583L40.2624 16.7718L28.3483 25.7099L27.6726 24.8105L39.5867 15.8724Z" fill="#F4F4F5"/>
<g filter="url(#filter68_i_1633_5315)">
<path d="M39.5625 16.2422L39.9004 16.6919L28.8792 24.9721L28.5413 24.5224L39.5625 16.2422Z" fill="#D4D4D8"/>
</g>
<rect x="25.6084" y="24.6084" width="2.78316" height="2.78316" rx="1.39158" fill="#F4F4F5"/>
<path d="M27.1396 9.05493L27.75 30.5247H26.3311L26.9404 9.05493H27.1396Z" fill="white"/>
<circle cx="27.0283" cy="26" r="21" fill="url(#paint4_linear_1633_5315)"/>
<g opacity="0.1" filter="url(#filter69_f_1633_5315)">
<path d="M34.4428 17.3424C30.4119 13.5139 25.6066 12.0292 26.52 11.0675C27.4333 10.1059 32.5719 11.2397 36.6028 15.0682C40.6337 18.8967 42.0305 23.9701 41.1171 24.9318C40.2038 25.8934 38.4737 21.1709 34.4428 17.3424Z" fill="white"/>
</g>
</g>
</g>
</g>
</g>
<defs>
<filter id="filter0_dd_1633_5315" x="0" y="0" width="54" height="54" filterUnits="userSpaceOnUse" color-interpolation-filters="sRGB">
<feFlood flood-opacity="0" result="BackgroundImageFix"/>
<feColorMatrix in="SourceAlpha" type="matrix" values="0 0 0 0 0 0 0 0 0 0 0 0 0 0 0 0 0 0 127 0" result="hardAlpha"/>
<feOffset dy="1"/>
<feGaussianBlur stdDeviation="1"/>
<feColorMatrix type="matrix" values="0 0 0 0 0 0 0 0 0 0 0 0 0 0 0 0 0 0 0.06 0"/>
<feBlend mode="normal" in2="BackgroundImageFix" result="effect1_dropShadow_1633_5315"/>
<feColorMatrix in="SourceAlpha" type="matrix" values="0 0 0 0 0 0 0 0 0 0 0 0 0 0 0 0 0 0 127 0" result="hardAlpha"/>
<feOffset dy="1"/>
<feGaussianBlur stdDeviation="1.5"/>
<feColorMatrix type="matrix" values="0 0 0 0 0 0 0 0 0 0 0 0 0 0 0 0 0 0 0.1 0"/>
<feBlend mode="normal" in2="effect1_dropShadow_1633_5315" result="effect2_dropShadow_1633_5315"/>
<feBlend mode="normal" in="SourceGraphic" in2="effect2_dropShadow_1633_5315" result="shape"/>
</filter>
<filter id="filter65_dd_1633_5315" x="2.25" y="2" width="49.5" height="55.565" filterUnits="userSpaceOnUse" color-interpolation-filters="sRGB">
<feFlood flood-opacity="0" result="BackgroundImageFix"/>
<feColorMatrix in="SourceAlpha" type="matrix" values="0 0 0 0 0 0 0 0 0 0 0 0 0 0 0 0 0 0 127 0" result="hardAlpha"/>
<feMorphology radius="0.9375" operator="erode" in="SourceAlpha" result="effect1_dropShadow_1633_5315"/>
<feOffset dy="1.875"/>
<feGaussianBlur stdDeviation="0.9375"/>
<feColorMatrix type="matrix" values="0 0 0 0 0 0 0 0 0 0 0 0 0 0 0 0 0 0 0.04 0"/>
<feBlend mode="normal" in2="BackgroundImageFix" result="effect1_dropShadow_1633_5315"/>
<feColorMatrix in="SourceAlpha" type="matrix" values="0 0 0 0 0 0 0 0 0 0 0 0 0 0 0 0 0 0 127 0" result="hardAlpha"/>
<feMorphology radius="0.9375" operator="erode" in="SourceAlpha" result="effect2_dropShadow_1633_5315"/>
<feOffset dy="3.75"/>
<feGaussianBlur stdDeviation="2.34375"/>
<feColorMatrix type="matrix" values="0 0 0 0 0 0 0 0 0 0 0 0 0 0 0 0 0 0 0.1 0"/>
<feBlend mode="normal" in2="effect1_dropShadow_1633_5315" result="effect2_dropShadow_1633_5315"/>
<feBlend mode="normal" in="SourceGraphic" in2="effect2_dropShadow_1633_5315" result="shape"/>
</filter>
<filter id="filter66_i_1633_5315" x="18.4858" y="19.2735" width="7.0083" height="5.64834" filterUnits="userSpaceOnUse" color-interpolation-filters="sRGB">
<feFlood flood-opacity="0" result="BackgroundImageFix"/>
<feBlend mode="normal" in="SourceGraphic" in2="BackgroundImageFix" result="shape"/>
<feColorMatrix in="SourceAlpha" type="matrix" values="0 0 0 0 0 0 0 0 0 0 0 0 0 0 0 0 0 0 127 0" result="hardAlpha"/>
<feOffset/>
<feGaussianBlur stdDeviation="0.1875"/>
<feComposite in2="hardAlpha" operator="arithmetic" k2="-1" k3="1"/>
<feColorMatrix type="matrix" values="0 0 0 0 0 0 0 0 0 0 0 0 0 0 0 0 0 0 0.2 0"/>
<feBlend mode="normal" in2="shape" result="effect1_innerShadow_1633_5315"/>
</filter>
<filter id="filter67_f_1633_5315" x="24.916" y="23.9148" width="4.20605" height="4.20612" filterUnits="userSpaceOnUse" color-interpolation-filters="sRGB">
<feFlood flood-opacity="0" result="BackgroundImageFix"/>
<feBlend mode="normal" in="SourceGraphic" in2="BackgroundImageFix" result="shape"/>
<feGaussianBlur stdDeviation="0.1875" result="effect1_foregroundBlur_1633_5315"/>
</filter>
<filter id="filter68_i_1633_5315" x="28.5415" y="16.2422" width="11.3589" height="8.72993" filterUnits="userSpaceOnUse" color-interpolation-filters="sRGB">
<feFlood flood-opacity="0" result="BackgroundImageFix"/>
<feBlend mode="normal" in="SourceGraphic" in2="BackgroundImageFix" result="shape"/>
<feColorMatrix in="SourceAlpha" type="matrix" values="0 0 0 0 0 0 0 0 0 0 0 0 0 0 0 0 0 0 127 0" result="hardAlpha"/>
<feOffset/>
<feGaussianBlur stdDeviation="0.1875"/>
<feComposite in2="hardAlpha" operator="arithmetic" k2="-1" k3="1"/>
<feColorMatrix type="matrix" values="0 0 0 0 0 0 0 0 0 0 0 0 0 0 0 0 0 0 0.2 0"/>
<feBlend mode="normal" in2="shape" result="effect1_innerShadow_1633_5315"/>
</filter>
<filter id="filter69_f_1633_5315" x="23.2572" y="7.59345" width="21.2785" height="20.6146" filterUnits="userSpaceOnUse" color-interpolation-filters="sRGB">
<feFlood flood-opacity="0" result="BackgroundImageFix"/>
<feBlend mode="normal" in="SourceGraphic" in2="BackgroundImageFix" result="shape"/>
<feGaussianBlur stdDeviation="1.575" result="effect1_foregroundBlur_1633_5315"/>
</filter>
<linearGradient id="paint0_linear_1633_5315" x1="51" y1="2" x2="3" y2="50" gradientUnits="userSpaceOnUse">
<stop stop-color="#FAFAFA"/>
<stop offset="1" stop-color="#9F9FA9"/>
</linearGradient>
<linearGradient id="paint1_linear_1633_5315" x1="26.9992" y1="29.3273" x2="26.9992" y2="39.3726" gradientUnits="userSpaceOnUse">
<stop stop-color="white" stop-opacity="0"/>
<stop offset="1" stop-color="white" stop-opacity="0.12"/>
</linearGradient>
<linearGradient id="paint2_linear_1633_5315" x1="18.1711" y1="21.86" x2="18.1711" y2="31.9053" gradientUnits="userSpaceOnUse">
<stop stop-color="white" stop-opacity="0"/>
<stop offset="1" stop-color="white" stop-opacity="0.12"/>
</linearGradient>
<linearGradient id="paint3_linear_1633_5315" x1="35.8293" y1="21.86" x2="35.8293" y2="31.9053" gradientUnits="userSpaceOnUse">
<stop stop-color="white" stop-opacity="0"/>
<stop offset="1" stop-color="white" stop-opacity="0.12"/>
</linearGradient>
<linearGradient id="paint4_linear_1633_5315" x1="40.6614" y1="9.91547" x2="13.7102" y2="42.4465" gradientUnits="userSpaceOnUse">
<stop stop-color="white" stop-opacity="0.3"/>
<stop offset="0.548077" stop-color="white" stop-opacity="0"/>
</linearGradient>
<clipPath id="clip0_1633_5315">
<rect x="3" y="2" width="48" height="48" rx="12" fill="white"/>
</clipPath>
<clipPath id="clip1_1633_5315">
<rect x="6" y="5" width="42" height="42" rx="21" fill="white"/>
</clipPath>
</defs>
</svg>
