<svg width="24" height="24" viewBox="0 0 24 24" fill="none" xmlns="http://www.w3.org/2000/svg">
<g clip-path="url(#clip0_1642_7762)">
<rect width="24" height="24" rx="6" fill="url(#paint0_linear_1642_7762)"/>
<rect x="1.35468" y="1.35461" width="21.2908" height="21.2908" rx="10.6454" fill="#FE4707"/>
<rect width="3" height="3" fill="white" fill-opacity="0.01"/>
<rect x="3" width="3" height="3" fill="white" fill-opacity="0.01"/>
<rect x="6" width="3" height="3" fill="white" fill-opacity="0.01"/>
<rect x="9" width="3" height="3" fill="white" fill-opacity="0.01"/>
<rect x="12" width="3" height="3" fill="white" fill-opacity="0.01"/>
<rect x="15" width="3" height="3" fill="white" fill-opacity="0.01"/>
<rect x="18" width="3" height="3" fill="white" fill-opacity="0.01"/>
<rect x="21" width="3" height="3" fill="white" fill-opacity="0.01"/>
<rect y="3" width="3" height="3" fill="white" fill-opacity="0.01"/>
<rect x="3" y="3" width="3" height="3" fill="white" fill-opacity="0.01"/>
<rect x="6" y="3" width="3" height="3" fill="white" fill-opacity="0.01"/>
<rect x="9" y="3" width="3" height="3" fill="white" fill-opacity="0.01"/>
<rect x="12" y="3" width="3" height="3" fill="white" fill-opacity="0.01"/>
<rect x="15" y="3" width="3" height="3" fill="white" fill-opacity="0.01"/>
<rect x="18" y="3" width="3" height="3" fill="white" fill-opacity="0.01"/>
<rect x="21" y="3" width="3" height="3" fill="white" fill-opacity="0.01"/>
<rect y="6" width="3" height="3" fill="white" fill-opacity="0.01"/>
<rect x="3" y="6" width="3" height="3" fill="white" fill-opacity="0.01"/>
<rect x="6" y="6" width="3" height="3" fill="white" fill-opacity="0.01"/>
<rect x="9" y="6" width="3" height="3" fill="white" fill-opacity="0.01"/>
<rect x="12" y="6" width="3" height="3" fill="white" fill-opacity="0.01"/>
<rect x="15" y="6" width="3" height="3" fill="white" fill-opacity="0.01"/>
<rect x="18" y="6" width="3" height="3" fill="white" fill-opacity="0.01"/>
<rect x="21" y="6" width="3" height="3" fill="white" fill-opacity="0.01"/>
<rect y="9" width="3" height="3" fill="white" fill-opacity="0.01"/>
<rect x="3" y="9" width="3" height="3" fill="white" fill-opacity="0.01"/>
<rect x="6" y="9" width="3" height="3" fill="white" fill-opacity="0.01"/>
<rect x="9" y="9" width="3" height="3" fill="white" fill-opacity="0.01"/>
<rect x="12" y="9" width="3" height="3" fill="white" fill-opacity="0.01"/>
<rect x="15" y="9" width="3" height="3" fill="white" fill-opacity="0.01"/>
<rect x="18" y="9" width="3" height="3" fill="white" fill-opacity="0.01"/>
<rect x="21" y="9" width="3" height="3" fill="white" fill-opacity="0.01"/>
<rect y="12" width="3" height="3" fill="white" fill-opacity="0.01"/>
<rect x="3" y="12" width="3" height="3" fill="white" fill-opacity="0.01"/>
<rect x="6" y="12" width="3" height="3" fill="white" fill-opacity="0.01"/>
<rect x="9" y="12" width="3" height="3" fill="white" fill-opacity="0.01"/>
<rect x="12" y="12" width="3" height="3" fill="white" fill-opacity="0.01"/>
<rect x="15" y="12" width="3" height="3" fill="white" fill-opacity="0.01"/>
<rect x="18" y="12" width="3" height="3" fill="white" fill-opacity="0.01"/>
<rect x="21" y="12" width="3" height="3" fill="white" fill-opacity="0.01"/>
<rect y="15" width="3" height="3" fill="white" fill-opacity="0.01"/>
<rect x="3" y="15" width="3" height="3" fill="white" fill-opacity="0.01"/>
<rect x="6" y="15" width="3" height="3" fill="white" fill-opacity="0.01"/>
<rect x="9" y="15" width="3" height="3" fill="white" fill-opacity="0.01"/>
<rect x="12" y="15" width="3" height="3" fill="white" fill-opacity="0.01"/>
<rect x="15" y="15" width="3" height="3" fill="white" fill-opacity="0.01"/>
<rect x="18" y="15" width="3" height="3" fill="white" fill-opacity="0.01"/>
<rect x="21" y="15" width="3" height="3" fill="white" fill-opacity="0.01"/>
<rect y="18" width="3" height="3" fill="white" fill-opacity="0.01"/>
<rect x="3" y="18" width="3" height="3" fill="white" fill-opacity="0.01"/>
<rect x="6" y="18" width="3" height="3" fill="white" fill-opacity="0.01"/>
<rect x="9" y="18" width="3" height="3" fill="white" fill-opacity="0.01"/>
<rect x="12" y="18" width="3" height="3" fill="white" fill-opacity="0.01"/>
<rect x="15" y="18" width="3" height="3" fill="white" fill-opacity="0.01"/>
<rect x="18" y="18" width="3" height="3" fill="white" fill-opacity="0.01"/>
<rect x="21" y="18" width="3" height="3" fill="white" fill-opacity="0.01"/>
<rect y="21" width="3" height="3" fill="white" fill-opacity="0.01"/>
<rect x="3" y="21" width="3" height="3" fill="white" fill-opacity="0.01"/>
<rect x="6" y="21" width="3" height="3" fill="white" fill-opacity="0.01"/>
<rect x="9" y="21" width="3" height="3" fill="white" fill-opacity="0.01"/>
<rect x="12" y="21" width="3" height="3" fill="white" fill-opacity="0.01"/>
<rect x="15" y="21" width="3" height="3" fill="white" fill-opacity="0.01"/>
<rect x="18" y="21" width="3" height="3" fill="white" fill-opacity="0.01"/>
<rect x="21" y="21" width="3" height="3" fill="white" fill-opacity="0.01"/>
<g filter="url(#filter64_dd_1642_7762)">
<path d="M3.65067 1.31994L6.39951 0.157654V4.22629L1.7204 10.0401L3.65067 1.31994Z" fill="#D4D4D8"/>
<path d="M2.10602 8.44346L6.34065 0.248657H6.51056L6.66739 3.43771L2.10602 8.44346Z" fill="#9F9FA9"/>
<path d="M20.3494 1.31994L17.6006 0.157654V4.22629L22.2797 10.0401L20.3494 1.31994Z" fill="#D4D4D8"/>
<path d="M21.894 8.44352L17.6594 0.248718H17.4895L17.3327 3.43777L21.894 8.44352Z" fill="#9F9FA9"/>
<path d="M3.65073 22.6802L6.39957 23.8425V19.7738L1.72046 13.96L3.65073 22.6802Z" fill="#D4D4D8"/>
<path d="M2.10608 15.5567L6.34071 23.7515H6.51062L6.66746 20.5624L2.10608 15.5567Z" fill="#9F9FA9"/>
<path d="M20.3495 22.6802L17.6006 23.8425V19.7738L22.2797 13.96L20.3495 22.6802Z" fill="#D4D4D8"/>
<path d="M21.8941 15.5567L17.6595 23.7515H17.4896L17.3327 20.5624L21.8941 15.5567Z" fill="#9F9FA9"/>
<rect x="6.375" width="11.2549" height="24.0325" fill="#09090B"/>
<rect x="11.3215" width="1.36206" height="24.0325" fill="#FE4707"/>
<g clip-path="url(#clip1_1642_7762)">
<rect x="1.5" y="1.5" width="21" height="21" rx="10.5" fill="#3F3F46"/>
<rect x="2.83234" y="2.83228" width="18.3355" height="18.3355" rx="9.16773" fill="#1E1E1E"/>
<circle cx="11.9996" cy="16.175" r="2.51133" fill="url(#paint1_linear_1642_7762)"/>
<circle cx="11.9995" cy="16.175" r="1.90328" fill="#18181B"/>
<circle cx="7.58537" cy="12.4413" r="2.51133" fill="url(#paint2_linear_1642_7762)"/>
<circle cx="16.4144" cy="12.4413" r="2.51133" fill="url(#paint3_linear_1642_7762)"/>
<circle cx="7.58534" cy="12.4413" r="1.90328" fill="#18181B"/>
<circle cx="16.4144" cy="12.4413" r="1.90328" fill="#18181B"/>
<rect x="3.72296" y="3.7229" width="16.5542" height="16.5542" rx="8.27711" stroke="#F4F4F5" stroke-width="1.78125" stroke-dasharray="0.56 3.75"/>
<rect x="3.16046" y="3.1604" width="17.6792" height="17.6792" rx="8.83961" stroke="#18181B" stroke-width="0.65625" stroke-dasharray="0.56 3.75"/>
<rect x="3.11359" y="3.11353" width="17.773" height="17.773" rx="8.88648" stroke="#FE4707" stroke-width="0.5625" stroke-dasharray="0.56 3.75"/>
<rect x="10.6835" y="12.1672" width="1.875" height="1.875" rx="0.9375" transform="rotate(-52 10.6835 12.1672)" fill="#F4F4F5"/>
<path d="M7.4741 8.82686L7.34302 8.36754L7.82041 8.3836L11.5158 11.2707L11.1695 11.714L7.4741 8.82686Z" fill="#F4F4F5"/>
<g filter="url(#filter65_i_1642_7762)">
<path d="M7.7428 8.85833L7.91596 8.6367L11.247 11.2392L11.0739 11.4609L7.7428 8.85833Z" fill="#D4D4D8"/>
</g>
<g filter="url(#filter66_f_1642_7762)">
<rect x="12.1813" y="10.7992" width="1.72796" height="1.72796" rx="0.86398" transform="rotate(53.0823 12.1813 10.7992)" fill="#D4D4D8"/>
</g>
<path d="M18.293 6.9362L18.7706 6.92916L18.6309 7.38592L12.6739 11.855L12.336 11.4052L18.293 6.9362Z" fill="#F4F4F5"/>
<g filter="url(#filter67_i_1642_7762)">
<path d="M18.281 7.1211L18.4499 7.34596L12.9394 11.4861L12.7704 11.2612L18.281 7.1211Z" fill="#D4D4D8"/>
</g>
<rect x="11.3042" y="11.3042" width="1.39158" height="1.39158" rx="0.695789" fill="#F4F4F5"/>
<path d="M12.0696 3.52747L12.3743 14.2618H11.6653L11.97 3.52747H12.0696Z" fill="#FE4707"/>
<circle cx="12.0143" cy="12" r="10.5" fill="url(#paint4_linear_1642_7762)"/>
<g opacity="0.1" filter="url(#filter68_f_1642_7762)">
<path d="M15.7216 7.6712C13.7061 5.75695 11.3035 5.0146 11.7602 4.53378C12.2168 4.05296 14.7861 4.61988 16.8016 6.53413C18.817 8.44838 19.5154 10.9851 19.0588 11.4659C18.6021 11.9467 17.737 9.58545 15.7216 7.6712Z" fill="white"/>
</g>
</g>
</g>
</g>
<defs>
<filter id="filter64_dd_1642_7762" x="-0.375" y="0" width="24.75" height="27.7825" filterUnits="userSpaceOnUse" color-interpolation-filters="sRGB">
<feFlood flood-opacity="0" result="BackgroundImageFix"/>
<feColorMatrix in="SourceAlpha" type="matrix" values="0 0 0 0 0 0 0 0 0 0 0 0 0 0 0 0 0 0 127 0" result="hardAlpha"/>
<feMorphology radius="0.46875" operator="erode" in="SourceAlpha" result="effect1_dropShadow_1642_7762"/>
<feOffset dy="0.9375"/>
<feGaussianBlur stdDeviation="0.46875"/>
<feColorMatrix type="matrix" values="0 0 0 0 0 0 0 0 0 0 0 0 0 0 0 0 0 0 0.04 0"/>
<feBlend mode="normal" in2="BackgroundImageFix" result="effect1_dropShadow_1642_7762"/>
<feColorMatrix in="SourceAlpha" type="matrix" values="0 0 0 0 0 0 0 0 0 0 0 0 0 0 0 0 0 0 127 0" result="hardAlpha"/>
<feMorphology radius="0.46875" operator="erode" in="SourceAlpha" result="effect2_dropShadow_1642_7762"/>
<feOffset dy="1.875"/>
<feGaussianBlur stdDeviation="1.17188"/>
<feColorMatrix type="matrix" values="0 0 0 0 0 0 0 0 0 0 0 0 0 0 0 0 0 0 0.1 0"/>
<feBlend mode="normal" in2="effect1_dropShadow_1642_7762" result="effect2_dropShadow_1642_7762"/>
<feBlend mode="normal" in="SourceGraphic" in2="effect2_dropShadow_1642_7762" result="shape"/>
</filter>
<filter id="filter65_i_1642_7762" x="7.7428" y="8.63672" width="3.50427" height="2.82416" filterUnits="userSpaceOnUse" color-interpolation-filters="sRGB">
<feFlood flood-opacity="0" result="BackgroundImageFix"/>
<feBlend mode="normal" in="SourceGraphic" in2="BackgroundImageFix" result="shape"/>
<feColorMatrix in="SourceAlpha" type="matrix" values="0 0 0 0 0 0 0 0 0 0 0 0 0 0 0 0 0 0 127 0" result="hardAlpha"/>
<feOffset/>
<feGaussianBlur stdDeviation="0.09375"/>
<feComposite in2="hardAlpha" operator="arithmetic" k2="-1" k3="1"/>
<feColorMatrix type="matrix" values="0 0 0 0 0 0 0 0 0 0 0 0 0 0 0 0 0 0 0.2 0"/>
<feBlend mode="normal" in2="shape" result="effect1_innerShadow_1642_7762"/>
</filter>
<filter id="filter66_f_1642_7762" x="10.9579" y="10.9574" width="2.10309" height="2.10303" filterUnits="userSpaceOnUse" color-interpolation-filters="sRGB">
<feFlood flood-opacity="0" result="BackgroundImageFix"/>
<feBlend mode="normal" in="SourceGraphic" in2="BackgroundImageFix" result="shape"/>
<feGaussianBlur stdDeviation="0.09375" result="effect1_foregroundBlur_1642_7762"/>
</filter>
<filter id="filter67_i_1642_7762" x="12.7704" y="7.12109" width="5.6795" height="4.36499" filterUnits="userSpaceOnUse" color-interpolation-filters="sRGB">
<feFlood flood-opacity="0" result="BackgroundImageFix"/>
<feBlend mode="normal" in="SourceGraphic" in2="BackgroundImageFix" result="shape"/>
<feColorMatrix in="SourceAlpha" type="matrix" values="0 0 0 0 0 0 0 0 0 0 0 0 0 0 0 0 0 0 127 0" result="hardAlpha"/>
<feOffset/>
<feGaussianBlur stdDeviation="0.09375"/>
<feComposite in2="hardAlpha" operator="arithmetic" k2="-1" k3="1"/>
<feColorMatrix type="matrix" values="0 0 0 0 0 0 0 0 0 0 0 0 0 0 0 0 0 0 0.2 0"/>
<feBlend mode="normal" in2="shape" result="effect1_innerShadow_1642_7762"/>
</filter>
<filter id="filter68_f_1642_7762" x="10.1287" y="2.79677" width="10.6393" height="10.3073" filterUnits="userSpaceOnUse" color-interpolation-filters="sRGB">
<feFlood flood-opacity="0" result="BackgroundImageFix"/>
<feBlend mode="normal" in="SourceGraphic" in2="BackgroundImageFix" result="shape"/>
<feGaussianBlur stdDeviation="0.7875" result="effect1_foregroundBlur_1642_7762"/>
</filter>
<linearGradient id="paint0_linear_1642_7762" x1="24" y1="0" x2="0" y2="24" gradientUnits="userSpaceOnUse">
<stop stop-color="#FAFAFA"/>
<stop offset="1" stop-color="#9F9FA9"/>
</linearGradient>
<linearGradient id="paint1_linear_1642_7762" x1="11.9996" y1="13.6636" x2="11.9996" y2="18.6863" gradientUnits="userSpaceOnUse">
<stop stop-color="white" stop-opacity="0"/>
<stop offset="1" stop-color="white" stop-opacity="0.12"/>
</linearGradient>
<linearGradient id="paint2_linear_1642_7762" x1="7.58537" y1="9.92999" x2="7.58537" y2="14.9527" gradientUnits="userSpaceOnUse">
<stop stop-color="white" stop-opacity="0"/>
<stop offset="1" stop-color="white" stop-opacity="0.12"/>
</linearGradient>
<linearGradient id="paint3_linear_1642_7762" x1="16.4144" y1="9.92999" x2="16.4144" y2="14.9527" gradientUnits="userSpaceOnUse">
<stop stop-color="white" stop-opacity="0"/>
<stop offset="1" stop-color="white" stop-opacity="0.12"/>
</linearGradient>
<linearGradient id="paint4_linear_1642_7762" x1="18.8309" y1="3.95773" x2="5.35527" y2="20.2232" gradientUnits="userSpaceOnUse">
<stop stop-color="white" stop-opacity="0.3"/>
<stop offset="0.548077" stop-color="white" stop-opacity="0"/>
</linearGradient>
<clipPath id="clip0_1642_7762">
<rect width="24" height="24" rx="6" fill="white"/>
</clipPath>
<clipPath id="clip1_1642_7762">
<rect x="1.5" y="1.5" width="21" height="21" rx="10.5" fill="white"/>
</clipPath>
</defs>
</svg>
