<svg width="24" height="24" viewBox="0 0 24 24" fill="none" xmlns="http://www.w3.org/2000/svg">
<g filter="url(#filter0_dd_1633_5984)">
<g clip-path="url(#clip0_1633_5984)">
<rect x="3" y="2" width="18" height="18" rx="4.5" fill="url(#paint0_linear_1633_5984)"/>
<rect x="4.01611" y="3.01596" width="15.9681" height="15.9681" rx="7.98403" fill="white"/>
<rect x="3" y="2" width="2.25" height="2.25" fill="white" fill-opacity="0.01"/>
<rect x="5.25" y="2" width="2.25" height="2.25" fill="white" fill-opacity="0.01"/>
<rect x="7.5" y="2" width="2.25" height="2.25" fill="white" fill-opacity="0.01"/>
<rect x="9.75" y="2" width="2.25" height="2.25" fill="white" fill-opacity="0.01"/>
<rect x="12" y="2" width="2.25" height="2.25" fill="white" fill-opacity="0.01"/>
<rect x="14.25" y="2" width="2.25" height="2.25" fill="white" fill-opacity="0.01"/>
<rect x="16.5" y="2" width="2.25" height="2.25" fill="white" fill-opacity="0.01"/>
<rect x="18.75" y="2" width="2.25" height="2.25" fill="white" fill-opacity="0.01"/>
<rect x="3" y="4.25" width="2.25" height="2.25" fill="white" fill-opacity="0.01"/>
<rect x="5.25" y="4.25" width="2.25" height="2.25" fill="white" fill-opacity="0.01"/>
<rect x="7.5" y="4.25" width="2.25" height="2.25" fill="white" fill-opacity="0.01"/>
<rect x="9.75" y="4.25" width="2.25" height="2.25" fill="white" fill-opacity="0.01"/>
<rect x="12" y="4.25" width="2.25" height="2.25" fill="white" fill-opacity="0.01"/>
<rect x="14.25" y="4.25" width="2.25" height="2.25" fill="white" fill-opacity="0.01"/>
<rect x="16.5" y="4.25" width="2.25" height="2.25" fill="white" fill-opacity="0.01"/>
<rect x="18.75" y="4.25" width="2.25" height="2.25" fill="white" fill-opacity="0.01"/>
<rect x="3" y="6.5" width="2.25" height="2.25" fill="white" fill-opacity="0.01"/>
<rect x="5.25" y="6.5" width="2.25" height="2.25" fill="white" fill-opacity="0.01"/>
<rect x="7.5" y="6.5" width="2.25" height="2.25" fill="white" fill-opacity="0.01"/>
<rect x="9.75" y="6.5" width="2.25" height="2.25" fill="white" fill-opacity="0.01"/>
<rect x="12" y="6.5" width="2.25" height="2.25" fill="white" fill-opacity="0.01"/>
<rect x="14.25" y="6.5" width="2.25" height="2.25" fill="white" fill-opacity="0.01"/>
<rect x="16.5" y="6.5" width="2.25" height="2.25" fill="white" fill-opacity="0.01"/>
<rect x="18.75" y="6.5" width="2.25" height="2.25" fill="white" fill-opacity="0.01"/>
<rect x="3" y="8.75" width="2.25" height="2.25" fill="white" fill-opacity="0.01"/>
<rect x="5.25" y="8.75" width="2.25" height="2.25" fill="white" fill-opacity="0.01"/>
<rect x="7.5" y="8.75" width="2.25" height="2.25" fill="white" fill-opacity="0.01"/>
<rect x="9.75" y="8.75" width="2.25" height="2.25" fill="white" fill-opacity="0.01"/>
<rect x="12" y="8.75" width="2.25" height="2.25" fill="white" fill-opacity="0.01"/>
<rect x="14.25" y="8.75" width="2.25" height="2.25" fill="white" fill-opacity="0.01"/>
<rect x="16.5" y="8.75" width="2.25" height="2.25" fill="white" fill-opacity="0.01"/>
<rect x="18.75" y="8.75" width="2.25" height="2.25" fill="white" fill-opacity="0.01"/>
<rect x="3" y="11" width="2.25" height="2.25" fill="white" fill-opacity="0.01"/>
<rect x="5.25" y="11" width="2.25" height="2.25" fill="white" fill-opacity="0.01"/>
<rect x="7.5" y="11" width="2.25" height="2.25" fill="white" fill-opacity="0.01"/>
<rect x="9.75" y="11" width="2.25" height="2.25" fill="white" fill-opacity="0.01"/>
<rect x="12" y="11" width="2.25" height="2.25" fill="white" fill-opacity="0.01"/>
<rect x="14.25" y="11" width="2.25" height="2.25" fill="white" fill-opacity="0.01"/>
<rect x="16.5" y="11" width="2.25" height="2.25" fill="white" fill-opacity="0.01"/>
<rect x="18.75" y="11" width="2.25" height="2.25" fill="white" fill-opacity="0.01"/>
<rect x="3" y="13.25" width="2.25" height="2.25" fill="white" fill-opacity="0.01"/>
<rect x="5.25" y="13.25" width="2.25" height="2.25" fill="white" fill-opacity="0.01"/>
<rect x="7.5" y="13.25" width="2.25" height="2.25" fill="white" fill-opacity="0.01"/>
<rect x="9.75" y="13.25" width="2.25" height="2.25" fill="white" fill-opacity="0.01"/>
<rect x="12" y="13.25" width="2.25" height="2.25" fill="white" fill-opacity="0.01"/>
<rect x="14.25" y="13.25" width="2.25" height="2.25" fill="white" fill-opacity="0.01"/>
<rect x="16.5" y="13.25" width="2.25" height="2.25" fill="white" fill-opacity="0.01"/>
<rect x="18.75" y="13.25" width="2.25" height="2.25" fill="white" fill-opacity="0.01"/>
<rect x="3" y="15.5" width="2.25" height="2.25" fill="white" fill-opacity="0.01"/>
<rect x="5.25" y="15.5" width="2.25" height="2.25" fill="white" fill-opacity="0.01"/>
<rect x="7.5" y="15.5" width="2.25" height="2.25" fill="white" fill-opacity="0.01"/>
<rect x="9.75" y="15.5" width="2.25" height="2.25" fill="white" fill-opacity="0.01"/>
<rect x="12" y="15.5" width="2.25" height="2.25" fill="white" fill-opacity="0.01"/>
<rect x="14.25" y="15.5" width="2.25" height="2.25" fill="white" fill-opacity="0.01"/>
<rect x="16.5" y="15.5" width="2.25" height="2.25" fill="white" fill-opacity="0.01"/>
<rect x="18.75" y="15.5" width="2.25" height="2.25" fill="white" fill-opacity="0.01"/>
<rect x="3" y="17.75" width="2.25" height="2.25" fill="white" fill-opacity="0.01"/>
<rect x="5.25" y="17.75" width="2.25" height="2.25" fill="white" fill-opacity="0.01"/>
<rect x="7.5" y="17.75" width="2.25" height="2.25" fill="white" fill-opacity="0.01"/>
<rect x="9.75" y="17.75" width="2.25" height="2.25" fill="white" fill-opacity="0.01"/>
<rect x="12" y="17.75" width="2.25" height="2.25" fill="white" fill-opacity="0.01"/>
<rect x="14.25" y="17.75" width="2.25" height="2.25" fill="white" fill-opacity="0.01"/>
<rect x="16.5" y="17.75" width="2.25" height="2.25" fill="white" fill-opacity="0.01"/>
<rect x="18.75" y="17.75" width="2.25" height="2.25" fill="white" fill-opacity="0.01"/>
<g filter="url(#filter65_dd_1633_5984)">
<path d="M5.73823 2.98993L7.79986 2.11821V5.16969L4.29053 9.53004L5.73823 2.98993Z" fill="#D4D4D8"/>
<path d="M4.57959 8.3326L7.75557 2.18649H7.88299L8.00062 4.57828L4.57959 8.3326Z" fill="#9F9FA9"/>
<path d="M18.2623 2.98993L16.2006 2.11821V5.16969L19.71 9.53004L18.2623 2.98993Z" fill="#D4D4D8"/>
<path d="M19.4209 8.33261L16.2449 2.18651H16.1175L15.9999 4.57829L19.4209 8.33261Z" fill="#9F9FA9"/>
<path d="M5.73823 19.0101L7.79986 19.8818V16.8303L4.29053 12.47L5.73823 19.0101Z" fill="#D4D4D8"/>
<path d="M4.57959 13.6674L7.75557 19.8136H7.88299L8.00062 17.4218L4.57959 13.6674Z" fill="#9F9FA9"/>
<path d="M18.2623 19.0101L16.2006 19.8818V16.8303L19.71 12.47L18.2623 19.0101Z" fill="#D4D4D8"/>
<path d="M19.4209 13.6674L16.2449 19.8135H16.1175L15.9999 17.4218L19.4209 13.6674Z" fill="#9F9FA9"/>
<rect x="7.78125" y="2" width="8.4412" height="18.0244" fill="#09090B"/>
<rect x="11.4912" y="2" width="1.02155" height="18.0244" fill="#27272A"/>
<g clip-path="url(#clip1_1633_5984)">
<rect x="4.125" y="3.125" width="15.75" height="15.75" rx="7.875" fill="#3F3F46"/>
<rect x="5.12402" y="4.12421" width="13.7516" height="13.7516" rx="6.8758" fill="#1E1E1E"/>
<circle cx="11.9997" cy="14.1312" r="1.8835" fill="url(#paint1_linear_1633_5984)"/>
<circle cx="11.9997" cy="14.1313" r="1.42746" fill="#18181B"/>
<circle cx="8.68916" cy="11.331" r="1.8835" fill="url(#paint2_linear_1633_5984)"/>
<circle cx="15.3112" cy="11.331" r="1.8835" fill="url(#paint3_linear_1633_5984)"/>
<circle cx="8.68918" cy="11.331" r="1.42746" fill="#18181B"/>
<circle cx="15.3112" cy="11.331" r="1.42746" fill="#18181B"/>
<rect x="5.79199" y="4.79218" width="12.4157" height="12.4157" rx="6.20783" stroke="#F4F4F5" stroke-width="1.33594" stroke-dasharray="0.42 2.81"/>
<rect x="5.37012" y="4.3703" width="13.2594" height="13.2594" rx="6.6297" stroke="#18181B" stroke-width="0.492188" stroke-dasharray="0.42 2.81"/>
<rect x="5.33496" y="4.33514" width="13.3297" height="13.3297" rx="6.66486" stroke="#9F9FA9" stroke-width="0.421875" stroke-dasharray="0.42 2.81"/>
<rect x="11.0122" y="11.1254" width="1.40625" height="1.40625" rx="0.703125" transform="rotate(-52 11.0122 11.1254)" fill="#F4F4F5"/>
<path d="M8.60562 8.62018L8.50731 8.27569L8.86535 8.28774L11.6369 10.4531L11.3771 10.7855L8.60562 8.62018Z" fill="#F4F4F5"/>
<g filter="url(#filter66_i_1633_5984)">
<path d="M8.80713 8.64379L8.937 8.47756L11.4353 10.4295L11.3055 10.5957L8.80713 8.64379Z" fill="#D4D4D8"/>
</g>
<g filter="url(#filter67_f_1633_5984)">
<rect x="12.1362" y="10.0994" width="1.29597" height="1.29597" rx="0.647985" transform="rotate(53.0823 12.1362 10.0994)" fill="#D4D4D8"/>
</g>
<path d="M16.7201 7.20216L17.0783 7.19688L16.9735 7.53945L12.5057 10.8912L12.2523 10.5539L16.7201 7.20216Z" fill="#F4F4F5"/>
<g filter="url(#filter68_i_1633_5984)">
<path d="M16.7109 7.3408L16.8376 7.50945L12.7047 10.6145L12.578 10.4459L16.7109 7.3408Z" fill="#D4D4D8"/>
</g>
<rect x="11.478" y="10.4781" width="1.04368" height="1.04368" rx="0.521842" fill="#F4F4F5"/>
<path d="M12.0527 4.64561L12.2812 12.6964H11.749L11.9775 4.64561H12.0527Z" fill="white"/>
<circle cx="12.0107" cy="11" r="7.875" fill="url(#paint4_linear_1633_5984)"/>
<g opacity="0.1" filter="url(#filter69_f_1633_5984)">
<path d="M14.7914 7.75339C13.2798 6.3177 11.4778 5.76094 11.8203 5.40032C12.1629 5.0397 14.0898 5.46489 15.6014 6.90058C17.113 8.33627 17.6368 10.2388 17.2943 10.5994C16.9518 10.96 16.303 9.18907 14.7914 7.75339Z" fill="white"/>
</g>
</g>
</g>
</g>
</g>
<defs>
<filter id="filter0_dd_1633_5984" x="0" y="0" width="24" height="24" filterUnits="userSpaceOnUse" color-interpolation-filters="sRGB">
<feFlood flood-opacity="0" result="BackgroundImageFix"/>
<feColorMatrix in="SourceAlpha" type="matrix" values="0 0 0 0 0 0 0 0 0 0 0 0 0 0 0 0 0 0 127 0" result="hardAlpha"/>
<feOffset dy="1"/>
<feGaussianBlur stdDeviation="1"/>
<feColorMatrix type="matrix" values="0 0 0 0 0 0 0 0 0 0 0 0 0 0 0 0 0 0 0.06 0"/>
<feBlend mode="normal" in2="BackgroundImageFix" result="effect1_dropShadow_1633_5984"/>
<feColorMatrix in="SourceAlpha" type="matrix" values="0 0 0 0 0 0 0 0 0 0 0 0 0 0 0 0 0 0 127 0" result="hardAlpha"/>
<feOffset dy="1"/>
<feGaussianBlur stdDeviation="1.5"/>
<feColorMatrix type="matrix" values="0 0 0 0 0 0 0 0 0 0 0 0 0 0 0 0 0 0 0.1 0"/>
<feBlend mode="normal" in2="effect1_dropShadow_1633_5984" result="effect2_dropShadow_1633_5984"/>
<feBlend mode="normal" in="SourceGraphic" in2="effect2_dropShadow_1633_5984" result="shape"/>
</filter>
<filter id="filter65_dd_1633_5984" x="2.71875" y="2" width="18.5625" height="20.8369" filterUnits="userSpaceOnUse" color-interpolation-filters="sRGB">
<feFlood flood-opacity="0" result="BackgroundImageFix"/>
<feColorMatrix in="SourceAlpha" type="matrix" values="0 0 0 0 0 0 0 0 0 0 0 0 0 0 0 0 0 0 127 0" result="hardAlpha"/>
<feMorphology radius="0.351562" operator="erode" in="SourceAlpha" result="effect1_dropShadow_1633_5984"/>
<feOffset dy="0.703125"/>
<feGaussianBlur stdDeviation="0.351562"/>
<feColorMatrix type="matrix" values="0 0 0 0 0 0 0 0 0 0 0 0 0 0 0 0 0 0 0.04 0"/>
<feBlend mode="normal" in2="BackgroundImageFix" result="effect1_dropShadow_1633_5984"/>
<feColorMatrix in="SourceAlpha" type="matrix" values="0 0 0 0 0 0 0 0 0 0 0 0 0 0 0 0 0 0 127 0" result="hardAlpha"/>
<feMorphology radius="0.351562" operator="erode" in="SourceAlpha" result="effect2_dropShadow_1633_5984"/>
<feOffset dy="1.40625"/>
<feGaussianBlur stdDeviation="0.878906"/>
<feColorMatrix type="matrix" values="0 0 0 0 0 0 0 0 0 0 0 0 0 0 0 0 0 0 0.1 0"/>
<feBlend mode="normal" in2="effect1_dropShadow_1633_5984" result="effect2_dropShadow_1633_5984"/>
<feBlend mode="normal" in="SourceGraphic" in2="effect2_dropShadow_1633_5984" result="shape"/>
</filter>
<filter id="filter66_i_1633_5984" x="8.80713" y="8.47756" width="2.62842" height="2.11813" filterUnits="userSpaceOnUse" color-interpolation-filters="sRGB">
<feFlood flood-opacity="0" result="BackgroundImageFix"/>
<feBlend mode="normal" in="SourceGraphic" in2="BackgroundImageFix" result="shape"/>
<feColorMatrix in="SourceAlpha" type="matrix" values="0 0 0 0 0 0 0 0 0 0 0 0 0 0 0 0 0 0 127 0" result="hardAlpha"/>
<feOffset/>
<feGaussianBlur stdDeviation="0.0703125"/>
<feComposite in2="hardAlpha" operator="arithmetic" k2="-1" k3="1"/>
<feColorMatrix type="matrix" values="0 0 0 0 0 0 0 0 0 0 0 0 0 0 0 0 0 0 0.2 0"/>
<feBlend mode="normal" in2="shape" result="effect1_innerShadow_1633_5984"/>
</filter>
<filter id="filter67_f_1633_5984" x="11.2188" y="10.218" width="1.57715" height="1.57729" filterUnits="userSpaceOnUse" color-interpolation-filters="sRGB">
<feFlood flood-opacity="0" result="BackgroundImageFix"/>
<feBlend mode="normal" in="SourceGraphic" in2="BackgroundImageFix" result="shape"/>
<feGaussianBlur stdDeviation="0.0703125" result="effect1_foregroundBlur_1633_5984"/>
</filter>
<filter id="filter68_i_1633_5984" x="12.5781" y="7.34081" width="4.25928" height="3.27373" filterUnits="userSpaceOnUse" color-interpolation-filters="sRGB">
<feFlood flood-opacity="0" result="BackgroundImageFix"/>
<feBlend mode="normal" in="SourceGraphic" in2="BackgroundImageFix" result="shape"/>
<feColorMatrix in="SourceAlpha" type="matrix" values="0 0 0 0 0 0 0 0 0 0 0 0 0 0 0 0 0 0 127 0" result="hardAlpha"/>
<feOffset/>
<feGaussianBlur stdDeviation="0.0703125"/>
<feComposite in2="hardAlpha" operator="arithmetic" k2="-1" k3="1"/>
<feColorMatrix type="matrix" values="0 0 0 0 0 0 0 0 0 0 0 0 0 0 0 0 0 0 0.2 0"/>
<feBlend mode="normal" in2="shape" result="effect1_innerShadow_1633_5984"/>
</filter>
<filter id="filter69_f_1633_5984" x="10.5966" y="4.09754" width="7.97969" height="7.73048" filterUnits="userSpaceOnUse" color-interpolation-filters="sRGB">
<feFlood flood-opacity="0" result="BackgroundImageFix"/>
<feBlend mode="normal" in="SourceGraphic" in2="BackgroundImageFix" result="shape"/>
<feGaussianBlur stdDeviation="0.590625" result="effect1_foregroundBlur_1633_5984"/>
</filter>
<linearGradient id="paint0_linear_1633_5984" x1="21" y1="2" x2="3" y2="20" gradientUnits="userSpaceOnUse">
<stop stop-color="#FAFAFA"/>
<stop offset="1" stop-color="#9F9FA9"/>
</linearGradient>
<linearGradient id="paint1_linear_1633_5984" x1="11.9997" y1="12.2477" x2="11.9997" y2="16.0147" gradientUnits="userSpaceOnUse">
<stop stop-color="white" stop-opacity="0"/>
<stop offset="1" stop-color="white" stop-opacity="0.12"/>
</linearGradient>
<linearGradient id="paint2_linear_1633_5984" x1="8.68916" y1="9.44749" x2="8.68916" y2="13.2145" gradientUnits="userSpaceOnUse">
<stop stop-color="white" stop-opacity="0"/>
<stop offset="1" stop-color="white" stop-opacity="0.12"/>
</linearGradient>
<linearGradient id="paint3_linear_1633_5984" x1="15.3112" y1="9.44748" x2="15.3112" y2="13.2145" gradientUnits="userSpaceOnUse">
<stop stop-color="white" stop-opacity="0"/>
<stop offset="1" stop-color="white" stop-opacity="0.12"/>
</linearGradient>
<linearGradient id="paint4_linear_1633_5984" x1="17.1232" y1="4.9683" x2="7.01644" y2="17.1674" gradientUnits="userSpaceOnUse">
<stop stop-color="white" stop-opacity="0.3"/>
<stop offset="0.548077" stop-color="white" stop-opacity="0"/>
</linearGradient>
<clipPath id="clip0_1633_5984">
<rect x="3" y="2" width="18" height="18" rx="4.5" fill="white"/>
</clipPath>
<clipPath id="clip1_1633_5984">
<rect x="4.125" y="3.125" width="15.75" height="15.75" rx="7.875" fill="white"/>
</clipPath>
</defs>
</svg>
