<svg width="262" height="262" viewBox="0 0 262 262" fill="none" xmlns="http://www.w3.org/2000/svg">
<g filter="url(#filter0_dd_1633_4645)">
<g clip-path="url(#clip0_1633_4645)">
<rect x="3" y="2" width="256" height="256" rx="64" fill="url(#paint0_linear_1633_4645)"/>
<rect x="17.45" y="16.4492" width="227.101" height="227.101" rx="113.551" fill="white"/>
<rect x="3" y="2" width="32" height="32" fill="white" fill-opacity="0.01"/>
<rect x="35" y="2" width="32" height="32" fill="white" fill-opacity="0.01"/>
<rect x="67" y="2" width="32" height="32" fill="white" fill-opacity="0.01"/>
<rect x="99" y="2" width="32" height="32" fill="white" fill-opacity="0.01"/>
<rect x="131" y="2" width="32" height="32" fill="white" fill-opacity="0.01"/>
<rect x="163" y="2" width="32" height="32" fill="white" fill-opacity="0.01"/>
<rect x="195" y="2" width="32" height="32" fill="white" fill-opacity="0.01"/>
<rect x="227" y="2" width="32" height="32" fill="white" fill-opacity="0.01"/>
<rect x="3" y="34" width="32" height="32" fill="white" fill-opacity="0.01"/>
<rect x="35" y="34" width="32" height="32" fill="white" fill-opacity="0.01"/>
<rect x="67" y="34" width="32" height="32" fill="white" fill-opacity="0.01"/>
<rect x="99" y="34" width="32" height="32" fill="white" fill-opacity="0.01"/>
<rect x="131" y="34" width="32" height="32" fill="white" fill-opacity="0.01"/>
<rect x="163" y="34" width="32" height="32" fill="white" fill-opacity="0.01"/>
<rect x="195" y="34" width="32" height="32" fill="white" fill-opacity="0.01"/>
<rect x="227" y="34" width="32" height="32" fill="white" fill-opacity="0.01"/>
<rect x="3" y="66" width="32" height="32" fill="white" fill-opacity="0.01"/>
<rect x="35" y="66" width="32" height="32" fill="white" fill-opacity="0.01"/>
<rect x="67" y="66" width="32" height="32" fill="white" fill-opacity="0.01"/>
<rect x="99" y="66" width="32" height="32" fill="white" fill-opacity="0.01"/>
<rect x="131" y="66" width="32" height="32" fill="white" fill-opacity="0.01"/>
<rect x="163" y="66" width="32" height="32" fill="white" fill-opacity="0.01"/>
<rect x="195" y="66" width="32" height="32" fill="white" fill-opacity="0.01"/>
<rect x="227" y="66" width="32" height="32" fill="white" fill-opacity="0.01"/>
<rect x="3" y="98" width="32" height="32" fill="white" fill-opacity="0.01"/>
<rect x="35" y="98" width="32" height="32" fill="white" fill-opacity="0.01"/>
<rect x="67" y="98" width="32" height="32" fill="white" fill-opacity="0.01"/>
<rect x="99" y="98" width="32" height="32" fill="white" fill-opacity="0.01"/>
<rect x="131" y="98" width="32" height="32" fill="white" fill-opacity="0.01"/>
<rect x="163" y="98" width="32" height="32" fill="white" fill-opacity="0.01"/>
<rect x="195" y="98" width="32" height="32" fill="white" fill-opacity="0.01"/>
<rect x="227" y="98" width="32" height="32" fill="white" fill-opacity="0.01"/>
<rect x="3" y="130" width="32" height="32" fill="white" fill-opacity="0.01"/>
<rect x="35" y="130" width="32" height="32" fill="white" fill-opacity="0.01"/>
<rect x="67" y="130" width="32" height="32" fill="white" fill-opacity="0.01"/>
<rect x="99" y="130" width="32" height="32" fill="white" fill-opacity="0.01"/>
<rect x="131" y="130" width="32" height="32" fill="white" fill-opacity="0.01"/>
<rect x="163" y="130" width="32" height="32" fill="white" fill-opacity="0.01"/>
<rect x="195" y="130" width="32" height="32" fill="white" fill-opacity="0.01"/>
<rect x="227" y="130" width="32" height="32" fill="white" fill-opacity="0.01"/>
<rect x="3" y="162" width="32" height="32" fill="white" fill-opacity="0.01"/>
<rect x="35" y="162" width="32" height="32" fill="white" fill-opacity="0.01"/>
<rect x="67" y="162" width="32" height="32" fill="white" fill-opacity="0.01"/>
<rect x="99" y="162" width="32" height="32" fill="white" fill-opacity="0.01"/>
<rect x="131" y="162" width="32" height="32" fill="white" fill-opacity="0.01"/>
<rect x="163" y="162" width="32" height="32" fill="white" fill-opacity="0.01"/>
<rect x="195" y="162" width="32" height="32" fill="white" fill-opacity="0.01"/>
<rect x="227" y="162" width="32" height="32" fill="white" fill-opacity="0.01"/>
<rect x="3" y="194" width="32" height="32" fill="white" fill-opacity="0.01"/>
<rect x="35" y="194" width="32" height="32" fill="white" fill-opacity="0.01"/>
<rect x="67" y="194" width="32" height="32" fill="white" fill-opacity="0.01"/>
<rect x="99" y="194" width="32" height="32" fill="white" fill-opacity="0.01"/>
<rect x="131" y="194" width="32" height="32" fill="white" fill-opacity="0.01"/>
<rect x="163" y="194" width="32" height="32" fill="white" fill-opacity="0.01"/>
<rect x="195" y="194" width="32" height="32" fill="white" fill-opacity="0.01"/>
<rect x="227" y="194" width="32" height="32" fill="white" fill-opacity="0.01"/>
<rect x="3" y="226" width="32" height="32" fill="white" fill-opacity="0.01"/>
<rect x="35" y="226" width="32" height="32" fill="white" fill-opacity="0.01"/>
<rect x="67" y="226" width="32" height="32" fill="white" fill-opacity="0.01"/>
<rect x="99" y="226" width="32" height="32" fill="white" fill-opacity="0.01"/>
<rect x="131" y="226" width="32" height="32" fill="white" fill-opacity="0.01"/>
<rect x="163" y="226" width="32" height="32" fill="white" fill-opacity="0.01"/>
<rect x="195" y="226" width="32" height="32" fill="white" fill-opacity="0.01"/>
<rect x="227" y="226" width="32" height="32" fill="white" fill-opacity="0.01"/>
<g filter="url(#filter65_dd_1633_4645)">
<path d="M41.9404 16.0791L71.2614 3.68131V47.0801L21.3508 109.094L41.9404 16.0791Z" fill="#D4D4D8"/>
<path d="M25.4641 92.0636L70.6335 4.65236H72.4459L74.1188 38.6689L25.4641 92.0636Z" fill="#9F9FA9"/>
<path d="M220.06 16.0791L190.739 3.68132V47.0801L240.65 109.094L220.06 16.0791Z" fill="#D4D4D8"/>
<path d="M236.536 92.0639L191.367 4.65269H189.555L187.882 38.6692L236.536 92.0639Z" fill="#9F9FA9"/>
<path d="M41.9411 243.921L71.2621 256.319V212.92L21.3516 150.906L41.9411 243.921Z" fill="#D4D4D8"/>
<path d="M25.4648 167.938L70.6343 255.349H72.4466L74.1195 221.332L25.4648 167.938Z" fill="#9F9FA9"/>
<path d="M220.061 243.922L190.74 256.32V212.921L240.65 150.907L220.061 243.922Z" fill="#D4D4D8"/>
<path d="M236.537 167.937L191.368 255.348H189.555L187.882 221.332L236.537 167.937Z" fill="#9F9FA9"/>
<rect x="71" y="2" width="120.053" height="256.347" fill="#09090B"/>
<rect x="123.762" y="2" width="14.5287" height="256.347" fill="#27272A"/>
<g clip-path="url(#clip1_1633_4645)">
<rect x="19" y="18" width="224" height="224" rx="112" fill="#3F3F46"/>
<rect x="33.2117" y="32.2109" width="195.578" height="195.578" rx="97.7891" fill="#1E1E1E"/>
<circle cx="130.996" cy="174.533" r="26.7875" fill="url(#paint1_linear_1633_4645)"/>
<circle cx="130.994" cy="174.533" r="20.3016" fill="#18181B"/>
<circle cx="83.9106" cy="134.707" r="26.7875" fill="url(#paint2_linear_1633_4645)"/>
<circle cx="178.087" cy="134.707" r="26.7875" fill="url(#paint3_linear_1633_4645)"/>
<circle cx="83.9102" cy="134.707" r="20.3016" fill="#18181B"/>
<circle cx="178.087" cy="134.707" r="20.3016" fill="#18181B"/>
<rect x="42.7117" y="41.7109" width="176.578" height="176.578" rx="88.2891" stroke="#F4F4F5" stroke-width="19" stroke-dasharray="6 40"/>
<rect x="36.7117" y="35.7109" width="188.578" height="188.578" rx="94.2891" stroke="#18181B" stroke-width="7" stroke-dasharray="6 40"/>
<rect x="36.2117" y="35.2109" width="189.578" height="189.578" rx="94.7891" stroke="#9F9FA9" stroke-width="6" stroke-dasharray="6 40"/>
<rect x="116.958" y="131.783" width="20" height="20" rx="10" transform="rotate(-52 116.958 131.783)" fill="#F4F4F5"/>
<path d="M82.7237 96.1536L81.3256 91.2542L86.4177 91.4255L125.835 122.222L122.141 126.95L82.7237 96.1536Z" fill="#F4F4F5"/>
<g filter="url(#filter66_i_1633_4645)">
<path d="M85.5899 96.4893L87.4369 94.1253L122.969 121.886L121.122 124.25L85.5899 96.4893Z" fill="#D4D4D8"/>
</g>
<g filter="url(#filter67_f_1633_4645)">
<rect x="132.934" y="117.191" width="18.4316" height="18.4316" rx="9.21578" transform="rotate(53.0823 132.934 117.191)" fill="#D4D4D8"/>
</g>
<path d="M198.126 75.9862L203.22 75.9111L201.73 80.7832L138.188 128.453L134.584 123.656L198.126 75.9862Z" fill="#F4F4F5"/>
<g filter="url(#filter68_i_1633_4645)">
<path d="M197.997 77.9582L199.799 80.3567L141.02 124.518L139.218 122.119L197.997 77.9582Z" fill="#D4D4D8"/>
</g>
<rect x="123.578" y="122.578" width="14.8435" height="14.8435" rx="7.42175" fill="#F4F4F5"/>
<path d="M131.743 39.6253L134.996 154.131H131.214V39.6253H131.743ZM131.212 154.129H127.429L130.682 39.6244H131.212V154.129Z" fill="white"/>
<circle cx="131.153" cy="130" r="112" fill="url(#paint4_linear_1633_4645)"/>
<g opacity="0.1" filter="url(#filter69_f_1633_4645)">
<path d="M170.697 83.826C149.199 63.4073 123.57 55.4889 128.442 50.3602C133.313 45.2314 160.719 51.2785 182.217 71.6972C203.715 92.1159 211.165 119.174 206.293 124.303C201.422 129.431 192.195 104.245 170.697 83.826Z" fill="white"/>
</g>
</g>
</g>
</g>
</g>
<defs>
<filter id="filter0_dd_1633_4645" x="0" y="0" width="262" height="262" filterUnits="userSpaceOnUse" color-interpolation-filters="sRGB">
<feFlood flood-opacity="0" result="BackgroundImageFix"/>
<feColorMatrix in="SourceAlpha" type="matrix" values="0 0 0 0 0 0 0 0 0 0 0 0 0 0 0 0 0 0 127 0" result="hardAlpha"/>
<feOffset dy="1"/>
<feGaussianBlur stdDeviation="1"/>
<feColorMatrix type="matrix" values="0 0 0 0 0 0 0 0 0 0 0 0 0 0 0 0 0 0 0.06 0"/>
<feBlend mode="normal" in2="BackgroundImageFix" result="effect1_dropShadow_1633_4645"/>
<feColorMatrix in="SourceAlpha" type="matrix" values="0 0 0 0 0 0 0 0 0 0 0 0 0 0 0 0 0 0 127 0" result="hardAlpha"/>
<feOffset dy="1"/>
<feGaussianBlur stdDeviation="1.5"/>
<feColorMatrix type="matrix" values="0 0 0 0 0 0 0 0 0 0 0 0 0 0 0 0 0 0 0.1 0"/>
<feBlend mode="normal" in2="effect1_dropShadow_1633_4645" result="effect2_dropShadow_1633_4645"/>
<feBlend mode="normal" in="SourceGraphic" in2="effect2_dropShadow_1633_4645" result="shape"/>
</filter>
<filter id="filter65_dd_1633_4645" x="-1" y="2" width="264" height="296.347" filterUnits="userSpaceOnUse" color-interpolation-filters="sRGB">
<feFlood flood-opacity="0" result="BackgroundImageFix"/>
<feColorMatrix in="SourceAlpha" type="matrix" values="0 0 0 0 0 0 0 0 0 0 0 0 0 0 0 0 0 0 127 0" result="hardAlpha"/>
<feMorphology radius="5" operator="erode" in="SourceAlpha" result="effect1_dropShadow_1633_4645"/>
<feOffset dy="10"/>
<feGaussianBlur stdDeviation="5"/>
<feColorMatrix type="matrix" values="0 0 0 0 0 0 0 0 0 0 0 0 0 0 0 0 0 0 0.04 0"/>
<feBlend mode="normal" in2="BackgroundImageFix" result="effect1_dropShadow_1633_4645"/>
<feColorMatrix in="SourceAlpha" type="matrix" values="0 0 0 0 0 0 0 0 0 0 0 0 0 0 0 0 0 0 127 0" result="hardAlpha"/>
<feMorphology radius="5" operator="erode" in="SourceAlpha" result="effect2_dropShadow_1633_4645"/>
<feOffset dy="20"/>
<feGaussianBlur stdDeviation="12.5"/>
<feColorMatrix type="matrix" values="0 0 0 0 0 0 0 0 0 0 0 0 0 0 0 0 0 0 0.1 0"/>
<feBlend mode="normal" in2="effect1_dropShadow_1633_4645" result="effect2_dropShadow_1633_4645"/>
<feBlend mode="normal" in="SourceGraphic" in2="effect2_dropShadow_1633_4645" result="shape"/>
</filter>
<filter id="filter66_i_1633_4645" x="85.5898" y="94.1253" width="37.3787" height="30.1245" filterUnits="userSpaceOnUse" color-interpolation-filters="sRGB">
<feFlood flood-opacity="0" result="BackgroundImageFix"/>
<feBlend mode="normal" in="SourceGraphic" in2="BackgroundImageFix" result="shape"/>
<feColorMatrix in="SourceAlpha" type="matrix" values="0 0 0 0 0 0 0 0 0 0 0 0 0 0 0 0 0 0 127 0" result="hardAlpha"/>
<feOffset/>
<feGaussianBlur stdDeviation="1"/>
<feComposite in2="hardAlpha" operator="arithmetic" k2="-1" k3="1"/>
<feColorMatrix type="matrix" values="0 0 0 0 0 0 0 0 0 0 0 0 0 0 0 0 0 0 0.2 0"/>
<feBlend mode="normal" in2="shape" result="effect1_innerShadow_1633_4645"/>
</filter>
<filter id="filter67_f_1633_4645" x="119.885" y="118.879" width="22.4329" height="22.4326" filterUnits="userSpaceOnUse" color-interpolation-filters="sRGB">
<feFlood flood-opacity="0" result="BackgroundImageFix"/>
<feBlend mode="normal" in="SourceGraphic" in2="BackgroundImageFix" result="shape"/>
<feGaussianBlur stdDeviation="1" result="effect1_foregroundBlur_1633_4645"/>
</filter>
<filter id="filter68_i_1633_4645" x="139.218" y="77.9582" width="60.5815" height="46.5597" filterUnits="userSpaceOnUse" color-interpolation-filters="sRGB">
<feFlood flood-opacity="0" result="BackgroundImageFix"/>
<feBlend mode="normal" in="SourceGraphic" in2="BackgroundImageFix" result="shape"/>
<feColorMatrix in="SourceAlpha" type="matrix" values="0 0 0 0 0 0 0 0 0 0 0 0 0 0 0 0 0 0 127 0" result="hardAlpha"/>
<feOffset/>
<feGaussianBlur stdDeviation="1"/>
<feComposite in2="hardAlpha" operator="arithmetic" k2="-1" k3="1"/>
<feColorMatrix type="matrix" values="0 0 0 0 0 0 0 0 0 0 0 0 0 0 0 0 0 0 0.2 0"/>
<feBlend mode="normal" in2="shape" result="effect1_innerShadow_1633_4645"/>
</filter>
<filter id="filter69_f_1633_4645" x="111.039" y="31.8317" width="113.486" height="109.945" filterUnits="userSpaceOnUse" color-interpolation-filters="sRGB">
<feFlood flood-opacity="0" result="BackgroundImageFix"/>
<feBlend mode="normal" in="SourceGraphic" in2="BackgroundImageFix" result="shape"/>
<feGaussianBlur stdDeviation="8.4" result="effect1_foregroundBlur_1633_4645"/>
</filter>
<linearGradient id="paint0_linear_1633_4645" x1="259" y1="2" x2="3" y2="258" gradientUnits="userSpaceOnUse">
<stop stop-color="#FAFAFA"/>
<stop offset="1" stop-color="#9F9FA9"/>
</linearGradient>
<linearGradient id="paint1_linear_1633_4645" x1="130.996" y1="147.746" x2="130.996" y2="201.321" gradientUnits="userSpaceOnUse">
<stop stop-color="white" stop-opacity="0"/>
<stop offset="1" stop-color="white" stop-opacity="0.12"/>
</linearGradient>
<linearGradient id="paint2_linear_1633_4645" x1="83.9106" y1="107.92" x2="83.9106" y2="161.495" gradientUnits="userSpaceOnUse">
<stop stop-color="white" stop-opacity="0"/>
<stop offset="1" stop-color="white" stop-opacity="0.12"/>
</linearGradient>
<linearGradient id="paint3_linear_1633_4645" x1="178.087" y1="107.92" x2="178.087" y2="161.495" gradientUnits="userSpaceOnUse">
<stop stop-color="white" stop-opacity="0"/>
<stop offset="1" stop-color="white" stop-opacity="0.12"/>
</linearGradient>
<linearGradient id="paint4_linear_1633_4645" x1="203.863" y1="44.2158" x2="60.123" y2="217.715" gradientUnits="userSpaceOnUse">
<stop stop-color="white" stop-opacity="0.3"/>
<stop offset="0.548077" stop-color="white" stop-opacity="0"/>
</linearGradient>
<clipPath id="clip0_1633_4645">
<rect x="3" y="2" width="256" height="256" rx="64" fill="white"/>
</clipPath>
<clipPath id="clip1_1633_4645">
<rect x="19" y="18" width="224" height="224" rx="112" fill="white"/>
</clipPath>
</defs>
</svg>
