<svg width="256" height="256" viewBox="0 0 256 256" fill="none" xmlns="http://www.w3.org/2000/svg">
<g clip-path="url(#clip0_1642_7767)">
<rect width="256" height="256" rx="64" fill="url(#paint0_linear_1642_7767)"/>
<rect x="14.4499" y="14.4492" width="227.101" height="227.101" rx="113.551" fill="#FE4707"/>
<rect width="32" height="32" fill="white" fill-opacity="0.01"/>
<rect x="32" width="32" height="32" fill="white" fill-opacity="0.01"/>
<rect x="64" width="32" height="32" fill="white" fill-opacity="0.01"/>
<rect x="96" width="32" height="32" fill="white" fill-opacity="0.01"/>
<rect x="128" width="32" height="32" fill="white" fill-opacity="0.01"/>
<rect x="160" width="32" height="32" fill="white" fill-opacity="0.01"/>
<rect x="192" width="32" height="32" fill="white" fill-opacity="0.01"/>
<rect x="224" width="32" height="32" fill="white" fill-opacity="0.01"/>
<rect y="32" width="32" height="32" fill="white" fill-opacity="0.01"/>
<rect x="32" y="32" width="32" height="32" fill="white" fill-opacity="0.01"/>
<rect x="64" y="32" width="32" height="32" fill="white" fill-opacity="0.01"/>
<rect x="96" y="32" width="32" height="32" fill="white" fill-opacity="0.01"/>
<rect x="128" y="32" width="32" height="32" fill="white" fill-opacity="0.01"/>
<rect x="160" y="32" width="32" height="32" fill="white" fill-opacity="0.01"/>
<rect x="192" y="32" width="32" height="32" fill="white" fill-opacity="0.01"/>
<rect x="224" y="32" width="32" height="32" fill="white" fill-opacity="0.01"/>
<rect y="64" width="32" height="32" fill="white" fill-opacity="0.01"/>
<rect x="32" y="64" width="32" height="32" fill="white" fill-opacity="0.01"/>
<rect x="64" y="64" width="32" height="32" fill="white" fill-opacity="0.01"/>
<rect x="96" y="64" width="32" height="32" fill="white" fill-opacity="0.01"/>
<rect x="128" y="64" width="32" height="32" fill="white" fill-opacity="0.01"/>
<rect x="160" y="64" width="32" height="32" fill="white" fill-opacity="0.01"/>
<rect x="192" y="64" width="32" height="32" fill="white" fill-opacity="0.01"/>
<rect x="224" y="64" width="32" height="32" fill="white" fill-opacity="0.01"/>
<rect y="96" width="32" height="32" fill="white" fill-opacity="0.01"/>
<rect x="32" y="96" width="32" height="32" fill="white" fill-opacity="0.01"/>
<rect x="64" y="96" width="32" height="32" fill="white" fill-opacity="0.01"/>
<rect x="96" y="96" width="32" height="32" fill="white" fill-opacity="0.01"/>
<rect x="128" y="96" width="32" height="32" fill="white" fill-opacity="0.01"/>
<rect x="160" y="96" width="32" height="32" fill="white" fill-opacity="0.01"/>
<rect x="192" y="96" width="32" height="32" fill="white" fill-opacity="0.01"/>
<rect x="224" y="96" width="32" height="32" fill="white" fill-opacity="0.01"/>
<rect y="128" width="32" height="32" fill="white" fill-opacity="0.01"/>
<rect x="32" y="128" width="32" height="32" fill="white" fill-opacity="0.01"/>
<rect x="64" y="128" width="32" height="32" fill="white" fill-opacity="0.01"/>
<rect x="96" y="128" width="32" height="32" fill="white" fill-opacity="0.01"/>
<rect x="128" y="128" width="32" height="32" fill="white" fill-opacity="0.01"/>
<rect x="160" y="128" width="32" height="32" fill="white" fill-opacity="0.01"/>
<rect x="192" y="128" width="32" height="32" fill="white" fill-opacity="0.01"/>
<rect x="224" y="128" width="32" height="32" fill="white" fill-opacity="0.01"/>
<rect y="160" width="32" height="32" fill="white" fill-opacity="0.01"/>
<rect x="32" y="160" width="32" height="32" fill="white" fill-opacity="0.01"/>
<rect x="64" y="160" width="32" height="32" fill="white" fill-opacity="0.01"/>
<rect x="96" y="160" width="32" height="32" fill="white" fill-opacity="0.01"/>
<rect x="128" y="160" width="32" height="32" fill="white" fill-opacity="0.01"/>
<rect x="160" y="160" width="32" height="32" fill="white" fill-opacity="0.01"/>
<rect x="192" y="160" width="32" height="32" fill="white" fill-opacity="0.01"/>
<rect x="224" y="160" width="32" height="32" fill="white" fill-opacity="0.01"/>
<rect y="192" width="32" height="32" fill="white" fill-opacity="0.01"/>
<rect x="32" y="192" width="32" height="32" fill="white" fill-opacity="0.01"/>
<rect x="64" y="192" width="32" height="32" fill="white" fill-opacity="0.01"/>
<rect x="96" y="192" width="32" height="32" fill="white" fill-opacity="0.01"/>
<rect x="128" y="192" width="32" height="32" fill="white" fill-opacity="0.01"/>
<rect x="160" y="192" width="32" height="32" fill="white" fill-opacity="0.01"/>
<rect x="192" y="192" width="32" height="32" fill="white" fill-opacity="0.01"/>
<rect x="224" y="192" width="32" height="32" fill="white" fill-opacity="0.01"/>
<rect y="224" width="32" height="32" fill="white" fill-opacity="0.01"/>
<rect x="32" y="224" width="32" height="32" fill="white" fill-opacity="0.01"/>
<rect x="64" y="224" width="32" height="32" fill="white" fill-opacity="0.01"/>
<rect x="96" y="224" width="32" height="32" fill="white" fill-opacity="0.01"/>
<rect x="128" y="224" width="32" height="32" fill="white" fill-opacity="0.01"/>
<rect x="160" y="224" width="32" height="32" fill="white" fill-opacity="0.01"/>
<rect x="192" y="224" width="32" height="32" fill="white" fill-opacity="0.01"/>
<rect x="224" y="224" width="32" height="32" fill="white" fill-opacity="0.01"/>
<g filter="url(#filter64_dd_1642_7767)">
<path d="M38.9405 14.0791L68.2615 1.68132V45.0801L18.3509 107.094L38.9405 14.0791Z" fill="#D4D4D8"/>
<path d="M22.4642 90.0636L67.6336 2.65234H69.4459L71.1189 36.6689L22.4642 90.0636Z" fill="#9F9FA9"/>
<path d="M217.06 14.0791L187.739 1.68132V45.0801L237.65 107.094L217.06 14.0791Z" fill="#D4D4D8"/>
<path d="M233.536 90.064L188.367 2.65271H186.555L184.882 36.6692L233.536 90.064Z" fill="#9F9FA9"/>
<path d="M38.9411 241.921L68.2621 254.319V210.92L18.3515 148.907L38.9411 241.921Z" fill="#D4D4D8"/>
<path d="M22.4648 165.938L67.6342 253.349H69.4466L71.1195 219.332L22.4648 165.938Z" fill="#9F9FA9"/>
<path d="M217.061 241.922L187.74 254.32V210.921L237.65 148.907L217.061 241.922Z" fill="#D4D4D8"/>
<path d="M233.537 165.937L188.368 253.349H186.555L184.882 219.332L233.537 165.937Z" fill="#9F9FA9"/>
<rect x="68" width="120.053" height="256.347" fill="#09090B"/>
<rect x="120.762" width="14.5287" height="256.347" fill="#FE4707"/>
<g clip-path="url(#clip1_1642_7767)">
<rect x="16" y="16" width="224" height="224" rx="112" fill="#3F3F46"/>
<rect x="30.2116" y="30.2109" width="195.578" height="195.578" rx="97.7891" fill="#1E1E1E"/>
<circle cx="127.996" cy="172.533" r="26.7875" fill="url(#paint1_linear_1642_7767)"/>
<circle cx="127.994" cy="172.533" r="20.3016" fill="#18181B"/>
<circle cx="80.9106" cy="132.707" r="26.7875" fill="url(#paint2_linear_1642_7767)"/>
<circle cx="175.087" cy="132.707" r="26.7875" fill="url(#paint3_linear_1642_7767)"/>
<circle cx="80.9103" cy="132.707" r="20.3016" fill="#18181B"/>
<circle cx="175.087" cy="132.707" r="20.3016" fill="#18181B"/>
<rect x="39.7116" y="39.7109" width="176.578" height="176.578" rx="88.2891" stroke="#F4F4F5" stroke-width="19" stroke-dasharray="6 40"/>
<rect x="33.7116" y="33.7109" width="188.578" height="188.578" rx="94.2891" stroke="#18181B" stroke-width="7" stroke-dasharray="6 40"/>
<rect x="33.2116" y="33.2109" width="189.578" height="189.578" rx="94.7891" stroke="#FE4707" stroke-width="6" stroke-dasharray="6 40"/>
<rect x="113.958" y="129.783" width="20" height="20" rx="10" transform="rotate(-52 113.958 129.783)" fill="#F4F4F5"/>
<path d="M79.7237 94.1536L78.3256 89.2542L83.4177 89.4256L122.835 120.222L119.141 124.95L79.7237 94.1536Z" fill="#F4F4F5"/>
<g filter="url(#filter65_i_1642_7767)">
<path d="M82.5899 94.4894L84.4369 92.1253L119.969 119.886L118.122 122.25L82.5899 94.4894Z" fill="#D4D4D8"/>
</g>
<g filter="url(#filter66_f_1642_7767)">
<rect x="129.934" y="115.191" width="18.4316" height="18.4316" rx="9.21578" transform="rotate(53.0823 129.934 115.191)" fill="#D4D4D8"/>
</g>
<path d="M195.126 73.9862L200.22 73.911L198.73 78.7832L135.188 126.453L131.584 121.656L195.126 73.9862Z" fill="#F4F4F5"/>
<g filter="url(#filter67_i_1642_7767)">
<path d="M194.997 75.9583L196.799 78.3568L138.02 122.518L136.218 120.119L194.997 75.9583Z" fill="#D4D4D8"/>
</g>
<rect x="120.578" y="120.578" width="14.8435" height="14.8435" rx="7.42175" fill="#F4F4F5"/>
<path d="M128.743 37.6253L131.996 152.131H128.214V37.6253H128.743ZM128.212 152.129H124.429L127.682 37.6243H128.212V152.129Z" fill="#FE4707"/>
<circle cx="128.153" cy="128" r="112" fill="url(#paint4_linear_1642_7767)"/>
<g opacity="0.1" filter="url(#filter68_f_1642_7767)">
<path d="M167.697 81.826C146.199 61.4073 120.57 53.4889 125.442 48.3602C130.313 43.2314 157.719 49.2785 179.217 69.6972C200.715 90.1159 208.165 117.174 203.293 122.303C198.422 127.431 189.195 102.245 167.697 81.826Z" fill="white"/>
</g>
</g>
</g>
</g>
<defs>
<filter id="filter64_dd_1642_7767" x="-4" y="0" width="264" height="296.347" filterUnits="userSpaceOnUse" color-interpolation-filters="sRGB">
<feFlood flood-opacity="0" result="BackgroundImageFix"/>
<feColorMatrix in="SourceAlpha" type="matrix" values="0 0 0 0 0 0 0 0 0 0 0 0 0 0 0 0 0 0 127 0" result="hardAlpha"/>
<feMorphology radius="5" operator="erode" in="SourceAlpha" result="effect1_dropShadow_1642_7767"/>
<feOffset dy="10"/>
<feGaussianBlur stdDeviation="5"/>
<feColorMatrix type="matrix" values="0 0 0 0 0 0 0 0 0 0 0 0 0 0 0 0 0 0 0.04 0"/>
<feBlend mode="normal" in2="BackgroundImageFix" result="effect1_dropShadow_1642_7767"/>
<feColorMatrix in="SourceAlpha" type="matrix" values="0 0 0 0 0 0 0 0 0 0 0 0 0 0 0 0 0 0 127 0" result="hardAlpha"/>
<feMorphology radius="5" operator="erode" in="SourceAlpha" result="effect2_dropShadow_1642_7767"/>
<feOffset dy="20"/>
<feGaussianBlur stdDeviation="12.5"/>
<feColorMatrix type="matrix" values="0 0 0 0 0 0 0 0 0 0 0 0 0 0 0 0 0 0 0.1 0"/>
<feBlend mode="normal" in2="effect1_dropShadow_1642_7767" result="effect2_dropShadow_1642_7767"/>
<feBlend mode="normal" in="SourceGraphic" in2="effect2_dropShadow_1642_7767" result="shape"/>
</filter>
<filter id="filter65_i_1642_7767" x="82.5899" y="92.1253" width="37.3786" height="30.1245" filterUnits="userSpaceOnUse" color-interpolation-filters="sRGB">
<feFlood flood-opacity="0" result="BackgroundImageFix"/>
<feBlend mode="normal" in="SourceGraphic" in2="BackgroundImageFix" result="shape"/>
<feColorMatrix in="SourceAlpha" type="matrix" values="0 0 0 0 0 0 0 0 0 0 0 0 0 0 0 0 0 0 127 0" result="hardAlpha"/>
<feOffset/>
<feGaussianBlur stdDeviation="1"/>
<feComposite in2="hardAlpha" operator="arithmetic" k2="-1" k3="1"/>
<feColorMatrix type="matrix" values="0 0 0 0 0 0 0 0 0 0 0 0 0 0 0 0 0 0 0.2 0"/>
<feBlend mode="normal" in2="shape" result="effect1_innerShadow_1642_7767"/>
</filter>
<filter id="filter66_f_1642_7767" x="116.885" y="116.879" width="22.4326" height="22.4326" filterUnits="userSpaceOnUse" color-interpolation-filters="sRGB">
<feFlood flood-opacity="0" result="BackgroundImageFix"/>
<feBlend mode="normal" in="SourceGraphic" in2="BackgroundImageFix" result="shape"/>
<feGaussianBlur stdDeviation="1" result="effect1_foregroundBlur_1642_7767"/>
</filter>
<filter id="filter67_i_1642_7767" x="136.218" y="75.9583" width="60.5816" height="46.5597" filterUnits="userSpaceOnUse" color-interpolation-filters="sRGB">
<feFlood flood-opacity="0" result="BackgroundImageFix"/>
<feBlend mode="normal" in="SourceGraphic" in2="BackgroundImageFix" result="shape"/>
<feColorMatrix in="SourceAlpha" type="matrix" values="0 0 0 0 0 0 0 0 0 0 0 0 0 0 0 0 0 0 127 0" result="hardAlpha"/>
<feOffset/>
<feGaussianBlur stdDeviation="1"/>
<feComposite in2="hardAlpha" operator="arithmetic" k2="-1" k3="1"/>
<feColorMatrix type="matrix" values="0 0 0 0 0 0 0 0 0 0 0 0 0 0 0 0 0 0 0.2 0"/>
<feBlend mode="normal" in2="shape" result="effect1_innerShadow_1642_7767"/>
</filter>
<filter id="filter68_f_1642_7767" x="108.039" y="29.8317" width="113.486" height="109.945" filterUnits="userSpaceOnUse" color-interpolation-filters="sRGB">
<feFlood flood-opacity="0" result="BackgroundImageFix"/>
<feBlend mode="normal" in="SourceGraphic" in2="BackgroundImageFix" result="shape"/>
<feGaussianBlur stdDeviation="8.4" result="effect1_foregroundBlur_1642_7767"/>
</filter>
<linearGradient id="paint0_linear_1642_7767" x1="256" y1="0" x2="0" y2="256" gradientUnits="userSpaceOnUse">
<stop stop-color="#FAFAFA"/>
<stop offset="1" stop-color="#9F9FA9"/>
</linearGradient>
<linearGradient id="paint1_linear_1642_7767" x1="127.996" y1="145.746" x2="127.996" y2="199.321" gradientUnits="userSpaceOnUse">
<stop stop-color="white" stop-opacity="0"/>
<stop offset="1" stop-color="white" stop-opacity="0.12"/>
</linearGradient>
<linearGradient id="paint2_linear_1642_7767" x1="80.9106" y1="105.92" x2="80.9106" y2="159.495" gradientUnits="userSpaceOnUse">
<stop stop-color="white" stop-opacity="0"/>
<stop offset="1" stop-color="white" stop-opacity="0.12"/>
</linearGradient>
<linearGradient id="paint3_linear_1642_7767" x1="175.087" y1="105.92" x2="175.087" y2="159.495" gradientUnits="userSpaceOnUse">
<stop stop-color="white" stop-opacity="0"/>
<stop offset="1" stop-color="white" stop-opacity="0.12"/>
</linearGradient>
<linearGradient id="paint4_linear_1642_7767" x1="200.863" y1="42.2158" x2="57.1229" y2="215.715" gradientUnits="userSpaceOnUse">
<stop stop-color="white" stop-opacity="0.3"/>
<stop offset="0.548077" stop-color="white" stop-opacity="0"/>
</linearGradient>
<clipPath id="clip0_1642_7767">
<rect width="256" height="256" rx="64" fill="white"/>
</clipPath>
<clipPath id="clip1_1642_7767">
<rect x="16" y="16" width="224" height="224" rx="112" fill="white"/>
</clipPath>
</defs>
</svg>
