<svg width="48" height="48" viewBox="0 0 48 48" fill="none" xmlns="http://www.w3.org/2000/svg">
<g clip-path="url(#clip0_1642_7764)">
<rect width="48" height="48" rx="12" fill="url(#paint0_linear_1642_7764)"/>
<rect x="2.70923" y="2.70923" width="42.5815" height="42.5815" rx="21.2908" fill="#FE4707"/>
<rect width="6" height="6" fill="white" fill-opacity="0.01"/>
<rect x="6" width="6" height="6" fill="white" fill-opacity="0.01"/>
<rect x="12" width="6" height="6" fill="white" fill-opacity="0.01"/>
<rect x="18" width="6" height="6" fill="white" fill-opacity="0.01"/>
<rect x="24" width="6" height="6" fill="white" fill-opacity="0.01"/>
<rect x="30" width="6" height="6" fill="white" fill-opacity="0.01"/>
<rect x="36" width="6" height="6" fill="white" fill-opacity="0.01"/>
<rect x="42" width="6" height="6" fill="white" fill-opacity="0.01"/>
<rect y="6" width="6" height="6" fill="white" fill-opacity="0.01"/>
<rect x="6" y="6" width="6" height="6" fill="white" fill-opacity="0.01"/>
<rect x="12" y="6" width="6" height="6" fill="white" fill-opacity="0.01"/>
<rect x="18" y="6" width="6" height="6" fill="white" fill-opacity="0.01"/>
<rect x="24" y="6" width="6" height="6" fill="white" fill-opacity="0.01"/>
<rect x="30" y="6" width="6" height="6" fill="white" fill-opacity="0.01"/>
<rect x="36" y="6" width="6" height="6" fill="white" fill-opacity="0.01"/>
<rect x="42" y="6" width="6" height="6" fill="white" fill-opacity="0.01"/>
<rect y="12" width="6" height="6" fill="white" fill-opacity="0.01"/>
<rect x="6" y="12" width="6" height="6" fill="white" fill-opacity="0.01"/>
<rect x="12" y="12" width="6" height="6" fill="white" fill-opacity="0.01"/>
<rect x="18" y="12" width="6" height="6" fill="white" fill-opacity="0.01"/>
<rect x="24" y="12" width="6" height="6" fill="white" fill-opacity="0.01"/>
<rect x="30" y="12" width="6" height="6" fill="white" fill-opacity="0.01"/>
<rect x="36" y="12" width="6" height="6" fill="white" fill-opacity="0.01"/>
<rect x="42" y="12" width="6" height="6" fill="white" fill-opacity="0.01"/>
<rect y="18" width="6" height="6" fill="white" fill-opacity="0.01"/>
<rect x="6" y="18" width="6" height="6" fill="white" fill-opacity="0.01"/>
<rect x="12" y="18" width="6" height="6" fill="white" fill-opacity="0.01"/>
<rect x="18" y="18" width="6" height="6" fill="white" fill-opacity="0.01"/>
<rect x="24" y="18" width="6" height="6" fill="white" fill-opacity="0.01"/>
<rect x="30" y="18" width="6" height="6" fill="white" fill-opacity="0.01"/>
<rect x="36" y="18" width="6" height="6" fill="white" fill-opacity="0.01"/>
<rect x="42" y="18" width="6" height="6" fill="white" fill-opacity="0.01"/>
<rect y="24" width="6" height="6" fill="white" fill-opacity="0.01"/>
<rect x="6" y="24" width="6" height="6" fill="white" fill-opacity="0.01"/>
<rect x="12" y="24" width="6" height="6" fill="white" fill-opacity="0.01"/>
<rect x="18" y="24" width="6" height="6" fill="white" fill-opacity="0.01"/>
<rect x="24" y="24" width="6" height="6" fill="white" fill-opacity="0.01"/>
<rect x="30" y="24" width="6" height="6" fill="white" fill-opacity="0.01"/>
<rect x="36" y="24" width="6" height="6" fill="white" fill-opacity="0.01"/>
<rect x="42" y="24" width="6" height="6" fill="white" fill-opacity="0.01"/>
<rect y="30" width="6" height="6" fill="white" fill-opacity="0.01"/>
<rect x="6" y="30" width="6" height="6" fill="white" fill-opacity="0.01"/>
<rect x="12" y="30" width="6" height="6" fill="white" fill-opacity="0.01"/>
<rect x="18" y="30" width="6" height="6" fill="white" fill-opacity="0.01"/>
<rect x="24" y="30" width="6" height="6" fill="white" fill-opacity="0.01"/>
<rect x="30" y="30" width="6" height="6" fill="white" fill-opacity="0.01"/>
<rect x="36" y="30" width="6" height="6" fill="white" fill-opacity="0.01"/>
<rect x="42" y="30" width="6" height="6" fill="white" fill-opacity="0.01"/>
<rect y="36" width="6" height="6" fill="white" fill-opacity="0.01"/>
<rect x="6" y="36" width="6" height="6" fill="white" fill-opacity="0.01"/>
<rect x="12" y="36" width="6" height="6" fill="white" fill-opacity="0.01"/>
<rect x="18" y="36" width="6" height="6" fill="white" fill-opacity="0.01"/>
<rect x="24" y="36" width="6" height="6" fill="white" fill-opacity="0.01"/>
<rect x="30" y="36" width="6" height="6" fill="white" fill-opacity="0.01"/>
<rect x="36" y="36" width="6" height="6" fill="white" fill-opacity="0.01"/>
<rect x="42" y="36" width="6" height="6" fill="white" fill-opacity="0.01"/>
<rect y="42" width="6" height="6" fill="white" fill-opacity="0.01"/>
<rect x="6" y="42" width="6" height="6" fill="white" fill-opacity="0.01"/>
<rect x="12" y="42" width="6" height="6" fill="white" fill-opacity="0.01"/>
<rect x="18" y="42" width="6" height="6" fill="white" fill-opacity="0.01"/>
<rect x="24" y="42" width="6" height="6" fill="white" fill-opacity="0.01"/>
<rect x="30" y="42" width="6" height="6" fill="white" fill-opacity="0.01"/>
<rect x="36" y="42" width="6" height="6" fill="white" fill-opacity="0.01"/>
<rect x="42" y="42" width="6" height="6" fill="white" fill-opacity="0.01"/>
<g filter="url(#filter64_dd_1642_7764)">
<path d="M7.30122 2.63983L12.7989 0.315244V8.45252L3.44067 20.0801L7.30122 2.63983Z" fill="#D4D4D8"/>
<path d="M4.21191 16.8869L12.6812 0.497314H13.021L13.3347 6.87541L4.21191 16.8869Z" fill="#9F9FA9"/>
<path d="M40.6988 2.63983L35.2011 0.315244V8.45252L44.5593 20.0801L40.6988 2.63983Z" fill="#D4D4D8"/>
<path d="M43.7881 16.887L35.3188 0.497375H34.979L34.6653 6.87547L43.7881 16.887Z" fill="#9F9FA9"/>
<path d="M7.30122 45.3602L12.7989 47.6848V39.5475L3.44067 27.9199L7.30122 45.3602Z" fill="#D4D4D8"/>
<path d="M4.21191 31.1133L12.6812 47.5029H13.021L13.3347 41.1248L4.21191 31.1133Z" fill="#9F9FA9"/>
<path d="M40.6988 45.3603L35.2011 47.6849V39.5476L44.5593 27.92L40.6988 45.3603Z" fill="#D4D4D8"/>
<path d="M43.7881 31.1132L35.3188 47.5028H34.979L34.6653 41.1247L43.7881 31.1132Z" fill="#9F9FA9"/>
<rect x="12.75" width="22.5099" height="48.065" fill="#09090B"/>
<rect x="22.6428" width="2.72413" height="48.065" fill="#FE4707"/>
<g clip-path="url(#clip1_1642_7764)">
<rect x="3" y="3" width="42" height="42" rx="21" fill="#3F3F46"/>
<rect x="5.66479" y="5.66455" width="36.6709" height="36.6709" rx="18.3355" fill="#1E1E1E"/>
<circle cx="23.9992" cy="32.3499" r="5.02266" fill="url(#paint1_linear_1642_7764)"/>
<circle cx="23.9989" cy="32.35" r="3.80655" fill="#18181B"/>
<circle cx="15.1709" cy="24.8826" r="5.02266" fill="url(#paint2_linear_1642_7764)"/>
<circle cx="32.8291" cy="24.8826" r="5.02266" fill="url(#paint3_linear_1642_7764)"/>
<circle cx="15.1708" cy="24.8826" r="3.80655" fill="#18181B"/>
<circle cx="32.829" cy="24.8826" r="3.80655" fill="#18181B"/>
<rect x="7.44604" y="7.4458" width="33.1084" height="33.1084" rx="16.5542" stroke="#F4F4F5" stroke-width="3.5625" stroke-dasharray="1.12 7.5"/>
<rect x="6.32104" y="6.3208" width="35.3584" height="35.3584" rx="17.6792" stroke="#18181B" stroke-width="1.3125" stroke-dasharray="1.12 7.5"/>
<rect x="6.22729" y="6.22705" width="35.5459" height="35.5459" rx="17.773" stroke="#FE4707" stroke-width="1.125" stroke-dasharray="1.12 7.5"/>
<rect x="21.3672" y="24.3343" width="3.75" height="3.75" rx="1.875" transform="rotate(-52 21.3672 24.3343)" fill="#F4F4F5"/>
<path d="M14.9483 17.6538L14.6862 16.7351L15.6409 16.7673L23.0317 22.5415L22.339 23.4281L14.9483 17.6538Z" fill="#F4F4F5"/>
<g filter="url(#filter65_i_1642_7764)">
<path d="M15.4856 17.7167L15.8319 17.2735L22.4941 22.4786L22.1478 22.9218L15.4856 17.7167Z" fill="#D4D4D8"/>
</g>
<g filter="url(#filter66_f_1642_7764)">
<rect x="24.3625" y="21.5984" width="3.45592" height="3.45592" rx="1.72796" transform="rotate(53.0823 24.3625 21.5984)" fill="#D4D4D8"/>
</g>
<path d="M36.5862 13.8724L37.5414 13.8583L37.262 14.7718L25.3478 23.7099L24.6721 22.8105L36.5862 13.8724Z" fill="#F4F4F5"/>
<g filter="url(#filter67_i_1642_7764)">
<path d="M36.5623 14.2421L36.9001 14.6919L25.879 22.9721L25.5411 22.5224L36.5623 14.2421Z" fill="#D4D4D8"/>
</g>
<rect x="22.6084" y="22.6084" width="2.78316" height="2.78316" rx="1.39158" fill="#F4F4F5"/>
<path d="M24.1394 7.05493L24.7498 28.5247H23.3308L23.9402 7.05493H24.1394Z" fill="#FE4707"/>
<circle cx="24.0286" cy="24" r="21" fill="url(#paint4_linear_1642_7764)"/>
<g opacity="0.1" filter="url(#filter68_f_1642_7764)">
<path d="M31.4431 15.3424C27.4122 11.5139 22.6068 10.0292 23.5202 9.06756C24.4336 8.10592 29.5721 9.23975 33.603 13.0683C37.6339 16.8968 39.0307 21.9701 38.1174 22.9318C37.204 23.8934 35.474 19.1709 31.4431 15.3424Z" fill="white"/>
</g>
</g>
</g>
</g>
<defs>
<filter id="filter64_dd_1642_7764" x="-0.75" y="0" width="49.5" height="55.565" filterUnits="userSpaceOnUse" color-interpolation-filters="sRGB">
<feFlood flood-opacity="0" result="BackgroundImageFix"/>
<feColorMatrix in="SourceAlpha" type="matrix" values="0 0 0 0 0 0 0 0 0 0 0 0 0 0 0 0 0 0 127 0" result="hardAlpha"/>
<feMorphology radius="0.9375" operator="erode" in="SourceAlpha" result="effect1_dropShadow_1642_7764"/>
<feOffset dy="1.875"/>
<feGaussianBlur stdDeviation="0.9375"/>
<feColorMatrix type="matrix" values="0 0 0 0 0 0 0 0 0 0 0 0 0 0 0 0 0 0 0.04 0"/>
<feBlend mode="normal" in2="BackgroundImageFix" result="effect1_dropShadow_1642_7764"/>
<feColorMatrix in="SourceAlpha" type="matrix" values="0 0 0 0 0 0 0 0 0 0 0 0 0 0 0 0 0 0 127 0" result="hardAlpha"/>
<feMorphology radius="0.9375" operator="erode" in="SourceAlpha" result="effect2_dropShadow_1642_7764"/>
<feOffset dy="3.75"/>
<feGaussianBlur stdDeviation="2.34375"/>
<feColorMatrix type="matrix" values="0 0 0 0 0 0 0 0 0 0 0 0 0 0 0 0 0 0 0.1 0"/>
<feBlend mode="normal" in2="effect1_dropShadow_1642_7764" result="effect2_dropShadow_1642_7764"/>
<feBlend mode="normal" in="SourceGraphic" in2="effect2_dropShadow_1642_7764" result="shape"/>
</filter>
<filter id="filter65_i_1642_7764" x="15.4856" y="17.2734" width="7.00848" height="5.64838" filterUnits="userSpaceOnUse" color-interpolation-filters="sRGB">
<feFlood flood-opacity="0" result="BackgroundImageFix"/>
<feBlend mode="normal" in="SourceGraphic" in2="BackgroundImageFix" result="shape"/>
<feColorMatrix in="SourceAlpha" type="matrix" values="0 0 0 0 0 0 0 0 0 0 0 0 0 0 0 0 0 0 127 0" result="hardAlpha"/>
<feOffset/>
<feGaussianBlur stdDeviation="0.1875"/>
<feComposite in2="hardAlpha" operator="arithmetic" k2="-1" k3="1"/>
<feColorMatrix type="matrix" values="0 0 0 0 0 0 0 0 0 0 0 0 0 0 0 0 0 0 0.2 0"/>
<feBlend mode="normal" in2="shape" result="effect1_innerShadow_1642_7764"/>
</filter>
<filter id="filter66_f_1642_7764" x="21.9159" y="21.9147" width="4.20612" height="4.20612" filterUnits="userSpaceOnUse" color-interpolation-filters="sRGB">
<feFlood flood-opacity="0" result="BackgroundImageFix"/>
<feBlend mode="normal" in="SourceGraphic" in2="BackgroundImageFix" result="shape"/>
<feGaussianBlur stdDeviation="0.1875" result="effect1_foregroundBlur_1642_7764"/>
</filter>
<filter id="filter67_i_1642_7764" x="25.5411" y="14.2421" width="11.3591" height="8.72998" filterUnits="userSpaceOnUse" color-interpolation-filters="sRGB">
<feFlood flood-opacity="0" result="BackgroundImageFix"/>
<feBlend mode="normal" in="SourceGraphic" in2="BackgroundImageFix" result="shape"/>
<feColorMatrix in="SourceAlpha" type="matrix" values="0 0 0 0 0 0 0 0 0 0 0 0 0 0 0 0 0 0 127 0" result="hardAlpha"/>
<feOffset/>
<feGaussianBlur stdDeviation="0.1875"/>
<feComposite in2="hardAlpha" operator="arithmetic" k2="-1" k3="1"/>
<feColorMatrix type="matrix" values="0 0 0 0 0 0 0 0 0 0 0 0 0 0 0 0 0 0 0.2 0"/>
<feBlend mode="normal" in2="shape" result="effect1_innerShadow_1642_7764"/>
</filter>
<filter id="filter68_f_1642_7764" x="20.2572" y="5.59347" width="21.2785" height="20.6146" filterUnits="userSpaceOnUse" color-interpolation-filters="sRGB">
<feFlood flood-opacity="0" result="BackgroundImageFix"/>
<feBlend mode="normal" in="SourceGraphic" in2="BackgroundImageFix" result="shape"/>
<feGaussianBlur stdDeviation="1.575" result="effect1_foregroundBlur_1642_7764"/>
</filter>
<linearGradient id="paint0_linear_1642_7764" x1="48" y1="0" x2="0" y2="48" gradientUnits="userSpaceOnUse">
<stop stop-color="#FAFAFA"/>
<stop offset="1" stop-color="#9F9FA9"/>
</linearGradient>
<linearGradient id="paint1_linear_1642_7764" x1="23.9992" y1="27.3273" x2="23.9992" y2="37.3726" gradientUnits="userSpaceOnUse">
<stop stop-color="white" stop-opacity="0"/>
<stop offset="1" stop-color="white" stop-opacity="0.12"/>
</linearGradient>
<linearGradient id="paint2_linear_1642_7764" x1="15.1709" y1="19.86" x2="15.1709" y2="29.9053" gradientUnits="userSpaceOnUse">
<stop stop-color="white" stop-opacity="0"/>
<stop offset="1" stop-color="white" stop-opacity="0.12"/>
</linearGradient>
<linearGradient id="paint3_linear_1642_7764" x1="32.8291" y1="19.86" x2="32.8291" y2="29.9053" gradientUnits="userSpaceOnUse">
<stop stop-color="white" stop-opacity="0"/>
<stop offset="1" stop-color="white" stop-opacity="0.12"/>
</linearGradient>
<linearGradient id="paint4_linear_1642_7764" x1="37.6617" y1="7.91547" x2="10.7104" y2="40.4465" gradientUnits="userSpaceOnUse">
<stop stop-color="white" stop-opacity="0.3"/>
<stop offset="0.548077" stop-color="white" stop-opacity="0"/>
</linearGradient>
<clipPath id="clip0_1642_7764">
<rect width="48" height="48" rx="12" fill="white"/>
</clipPath>
<clipPath id="clip1_1642_7764">
<rect x="3" y="3" width="42" height="42" rx="21" fill="white"/>
</clipPath>
</defs>
</svg>
