<svg width="70" height="70" viewBox="0 0 70 70" fill="none" xmlns="http://www.w3.org/2000/svg">
<g filter="url(#filter0_dd_1633_4870)">
<g clip-path="url(#clip0_1633_4870)">
<rect x="3" y="2" width="64" height="64" rx="16" fill="url(#paint0_linear_1633_4870)"/>
<rect x="6.6123" y="5.6123" width="56.7753" height="56.7753" rx="28.3877" fill="white"/>
<rect x="3" y="2" width="8" height="8" fill="white" fill-opacity="0.01"/>
<rect x="11" y="2" width="8" height="8" fill="white" fill-opacity="0.01"/>
<rect x="19" y="2" width="8" height="8" fill="white" fill-opacity="0.01"/>
<rect x="27" y="2" width="8" height="8" fill="white" fill-opacity="0.01"/>
<rect x="35" y="2" width="8" height="8" fill="white" fill-opacity="0.01"/>
<rect x="43" y="2" width="8" height="8" fill="white" fill-opacity="0.01"/>
<rect x="51" y="2" width="8" height="8" fill="white" fill-opacity="0.01"/>
<rect x="59" y="2" width="8" height="8" fill="white" fill-opacity="0.01"/>
<rect x="3" y="10" width="8" height="8" fill="white" fill-opacity="0.01"/>
<rect x="11" y="10" width="8" height="8" fill="white" fill-opacity="0.01"/>
<rect x="19" y="10" width="8" height="8" fill="white" fill-opacity="0.01"/>
<rect x="27" y="10" width="8" height="8" fill="white" fill-opacity="0.01"/>
<rect x="35" y="10" width="8" height="8" fill="white" fill-opacity="0.01"/>
<rect x="43" y="10" width="8" height="8" fill="white" fill-opacity="0.01"/>
<rect x="51" y="10" width="8" height="8" fill="white" fill-opacity="0.01"/>
<rect x="59" y="10" width="8" height="8" fill="white" fill-opacity="0.01"/>
<rect x="3" y="18" width="8" height="8" fill="white" fill-opacity="0.01"/>
<rect x="11" y="18" width="8" height="8" fill="white" fill-opacity="0.01"/>
<rect x="19" y="18" width="8" height="8" fill="white" fill-opacity="0.01"/>
<rect x="27" y="18" width="8" height="8" fill="white" fill-opacity="0.01"/>
<rect x="35" y="18" width="8" height="8" fill="white" fill-opacity="0.01"/>
<rect x="43" y="18" width="8" height="8" fill="white" fill-opacity="0.01"/>
<rect x="51" y="18" width="8" height="8" fill="white" fill-opacity="0.01"/>
<rect x="59" y="18" width="8" height="8" fill="white" fill-opacity="0.01"/>
<rect x="3" y="26" width="8" height="8" fill="white" fill-opacity="0.01"/>
<rect x="11" y="26" width="8" height="8" fill="white" fill-opacity="0.01"/>
<rect x="19" y="26" width="8" height="8" fill="white" fill-opacity="0.01"/>
<rect x="27" y="26" width="8" height="8" fill="white" fill-opacity="0.01"/>
<rect x="35" y="26" width="8" height="8" fill="white" fill-opacity="0.01"/>
<rect x="43" y="26" width="8" height="8" fill="white" fill-opacity="0.01"/>
<rect x="51" y="26" width="8" height="8" fill="white" fill-opacity="0.01"/>
<rect x="59" y="26" width="8" height="8" fill="white" fill-opacity="0.01"/>
<rect x="3" y="34" width="8" height="8" fill="white" fill-opacity="0.01"/>
<rect x="11" y="34" width="8" height="8" fill="white" fill-opacity="0.01"/>
<rect x="19" y="34" width="8" height="8" fill="white" fill-opacity="0.01"/>
<rect x="27" y="34" width="8" height="8" fill="white" fill-opacity="0.01"/>
<rect x="35" y="34" width="8" height="8" fill="white" fill-opacity="0.01"/>
<rect x="43" y="34" width="8" height="8" fill="white" fill-opacity="0.01"/>
<rect x="51" y="34" width="8" height="8" fill="white" fill-opacity="0.01"/>
<rect x="59" y="34" width="8" height="8" fill="white" fill-opacity="0.01"/>
<rect x="3" y="42" width="8" height="8" fill="white" fill-opacity="0.01"/>
<rect x="11" y="42" width="8" height="8" fill="white" fill-opacity="0.01"/>
<rect x="19" y="42" width="8" height="8" fill="white" fill-opacity="0.01"/>
<rect x="27" y="42" width="8" height="8" fill="white" fill-opacity="0.01"/>
<rect x="35" y="42" width="8" height="8" fill="white" fill-opacity="0.01"/>
<rect x="43" y="42" width="8" height="8" fill="white" fill-opacity="0.01"/>
<rect x="51" y="42" width="8" height="8" fill="white" fill-opacity="0.01"/>
<rect x="59" y="42" width="8" height="8" fill="white" fill-opacity="0.01"/>
<rect x="3" y="50" width="8" height="8" fill="white" fill-opacity="0.01"/>
<rect x="11" y="50" width="8" height="8" fill="white" fill-opacity="0.01"/>
<rect x="19" y="50" width="8" height="8" fill="white" fill-opacity="0.01"/>
<rect x="27" y="50" width="8" height="8" fill="white" fill-opacity="0.01"/>
<rect x="35" y="50" width="8" height="8" fill="white" fill-opacity="0.01"/>
<rect x="43" y="50" width="8" height="8" fill="white" fill-opacity="0.01"/>
<rect x="51" y="50" width="8" height="8" fill="white" fill-opacity="0.01"/>
<rect x="59" y="50" width="8" height="8" fill="white" fill-opacity="0.01"/>
<rect x="3" y="58" width="8" height="8" fill="white" fill-opacity="0.01"/>
<rect x="11" y="58" width="8" height="8" fill="white" fill-opacity="0.01"/>
<rect x="19" y="58" width="8" height="8" fill="white" fill-opacity="0.01"/>
<rect x="27" y="58" width="8" height="8" fill="white" fill-opacity="0.01"/>
<rect x="35" y="58" width="8" height="8" fill="white" fill-opacity="0.01"/>
<rect x="43" y="58" width="8" height="8" fill="white" fill-opacity="0.01"/>
<rect x="51" y="58" width="8" height="8" fill="white" fill-opacity="0.01"/>
<rect x="59" y="58" width="8" height="8" fill="white" fill-opacity="0.01"/>
<g filter="url(#filter65_dd_1633_4870)">
<path d="M12.7348 5.51977L20.065 2.42032V13.27L7.5874 28.7735L12.7348 5.51977Z" fill="#D4D4D8"/>
<path d="M8.61572 24.5159L19.9081 2.66309H20.3612L20.7794 11.1672L8.61572 24.5159Z" fill="#9F9FA9"/>
<path d="M57.2647 5.51978L49.9345 2.42033V13.27L62.4121 28.7735L57.2647 5.51978Z" fill="#D4D4D8"/>
<path d="M61.3838 24.516L50.0914 2.66319H49.6384L49.2201 11.1673L61.3838 24.516Z" fill="#9F9FA9"/>
<path d="M12.7348 62.4804L20.065 65.5798V54.7301L7.5874 39.2266L12.7348 62.4804Z" fill="#D4D4D8"/>
<path d="M8.61572 43.4844L19.9081 65.3372H20.3612L20.7794 56.8331L8.61572 43.4844Z" fill="#9F9FA9"/>
<path d="M57.2647 62.4804L49.9345 65.5799V54.7302L62.4121 39.2267L57.2647 62.4804Z" fill="#D4D4D8"/>
<path d="M61.3838 43.4843L50.0914 65.3371H49.6384L49.2201 56.833L61.3838 43.4843Z" fill="#9F9FA9"/>
<rect x="20" y="2" width="30.0132" height="64.0867" fill="#09090B"/>
<rect x="33.1904" y="2" width="3.63217" height="64.0867" fill="#27272A"/>
<g clip-path="url(#clip1_1633_4870)">
<rect x="7" y="6" width="56" height="56" rx="28" fill="#3F3F46"/>
<rect x="10.5532" y="9.55273" width="48.8946" height="48.8946" rx="24.4473" fill="#1E1E1E"/>
<circle cx="34.9991" cy="45.1333" r="6.69688" fill="url(#paint1_linear_1633_4870)"/>
<circle cx="34.9987" cy="45.1333" r="5.0754" fill="#18181B"/>
<circle cx="23.2276" cy="35.1769" r="6.69688" fill="url(#paint2_linear_1633_4870)"/>
<circle cx="46.7721" cy="35.1768" r="6.69688" fill="url(#paint3_linear_1633_4870)"/>
<circle cx="23.2277" cy="35.1768" r="5.0754" fill="#18181B"/>
<circle cx="46.7717" cy="35.1768" r="5.0754" fill="#18181B"/>
<rect x="12.9282" y="11.9277" width="44.1446" height="44.1446" rx="22.0723" stroke="#F4F4F5" stroke-width="4.75" stroke-dasharray="1.5 10"/>
<rect x="11.4282" y="10.4277" width="47.1446" height="47.1446" rx="23.5723" stroke="#18181B" stroke-width="1.75" stroke-dasharray="1.5 10"/>
<rect x="11.3032" y="10.3027" width="47.3946" height="47.3946" rx="23.6973" stroke="#9F9FA9" stroke-width="1.5" stroke-dasharray="1.5 10"/>
<rect x="31.4897" y="34.4458" width="5" height="5" rx="2.5" transform="rotate(-52 31.4897 34.4458)" fill="#F4F4F5"/>
<path d="M22.9314 25.5384L22.5819 24.3136L23.8549 24.3564L33.7092 32.0554L32.7857 33.2374L22.9314 25.5384Z" fill="#F4F4F5"/>
<g filter="url(#filter66_i_1633_4870)">
<path d="M23.6475 25.6223L24.1092 25.0313L32.9921 31.9714L32.5304 32.5624L23.6475 25.6223Z" fill="#D4D4D8"/>
</g>
<g filter="url(#filter67_f_1633_4870)">
<rect x="35.4834" y="30.7979" width="4.60789" height="4.60789" rx="2.30395" transform="rotate(53.0823 35.4834 30.7979)" fill="#D4D4D8"/>
</g>
<path d="M51.7814 20.4965L53.055 20.4778L52.6824 21.6958L36.797 33.6132L35.896 32.414L51.7814 20.4965Z" fill="#F4F4F5"/>
<g filter="url(#filter68_i_1633_4870)">
<path d="M51.7495 20.9896L52.2 21.5892L37.5051 32.6295L37.0546 32.0299L51.7495 20.9896Z" fill="#D4D4D8"/>
</g>
<rect x="33.1445" y="32.1445" width="3.71088" height="3.71088" rx="1.85544" fill="#F4F4F5"/>
<path d="M35.0532 11.4066H35.186L35.9995 40.0326H34.1079L34.9204 11.4056H35.0532V11.4066Z" fill="white"/>
<circle cx="35.0381" cy="34" r="28" fill="url(#paint4_linear_1633_4870)"/>
<g opacity="0.1" filter="url(#filter69_f_1633_4870)">
<path d="M44.9242 22.4565C39.5497 17.3518 33.1426 15.3722 34.3604 14.09C35.5782 12.8078 42.4296 14.3196 47.8042 19.4243C53.1787 24.529 55.0412 31.2935 53.8233 32.5757C52.6055 33.8579 50.2988 27.5612 44.9242 22.4565Z" fill="white"/>
</g>
</g>
</g>
</g>
</g>
<defs>
<filter id="filter0_dd_1633_4870" x="0" y="0" width="70" height="70" filterUnits="userSpaceOnUse" color-interpolation-filters="sRGB">
<feFlood flood-opacity="0" result="BackgroundImageFix"/>
<feColorMatrix in="SourceAlpha" type="matrix" values="0 0 0 0 0 0 0 0 0 0 0 0 0 0 0 0 0 0 127 0" result="hardAlpha"/>
<feOffset dy="1"/>
<feGaussianBlur stdDeviation="1"/>
<feColorMatrix type="matrix" values="0 0 0 0 0 0 0 0 0 0 0 0 0 0 0 0 0 0 0.06 0"/>
<feBlend mode="normal" in2="BackgroundImageFix" result="effect1_dropShadow_1633_4870"/>
<feColorMatrix in="SourceAlpha" type="matrix" values="0 0 0 0 0 0 0 0 0 0 0 0 0 0 0 0 0 0 127 0" result="hardAlpha"/>
<feOffset dy="1"/>
<feGaussianBlur stdDeviation="1.5"/>
<feColorMatrix type="matrix" values="0 0 0 0 0 0 0 0 0 0 0 0 0 0 0 0 0 0 0.1 0"/>
<feBlend mode="normal" in2="effect1_dropShadow_1633_4870" result="effect2_dropShadow_1633_4870"/>
<feBlend mode="normal" in="SourceGraphic" in2="effect2_dropShadow_1633_4870" result="shape"/>
</filter>
<filter id="filter65_dd_1633_4870" x="2" y="2" width="66" height="74.0867" filterUnits="userSpaceOnUse" color-interpolation-filters="sRGB">
<feFlood flood-opacity="0" result="BackgroundImageFix"/>
<feColorMatrix in="SourceAlpha" type="matrix" values="0 0 0 0 0 0 0 0 0 0 0 0 0 0 0 0 0 0 127 0" result="hardAlpha"/>
<feMorphology radius="1.25" operator="erode" in="SourceAlpha" result="effect1_dropShadow_1633_4870"/>
<feOffset dy="2.5"/>
<feGaussianBlur stdDeviation="1.25"/>
<feColorMatrix type="matrix" values="0 0 0 0 0 0 0 0 0 0 0 0 0 0 0 0 0 0 0.04 0"/>
<feBlend mode="normal" in2="BackgroundImageFix" result="effect1_dropShadow_1633_4870"/>
<feColorMatrix in="SourceAlpha" type="matrix" values="0 0 0 0 0 0 0 0 0 0 0 0 0 0 0 0 0 0 127 0" result="hardAlpha"/>
<feMorphology radius="1.25" operator="erode" in="SourceAlpha" result="effect2_dropShadow_1633_4870"/>
<feOffset dy="5"/>
<feGaussianBlur stdDeviation="3.125"/>
<feColorMatrix type="matrix" values="0 0 0 0 0 0 0 0 0 0 0 0 0 0 0 0 0 0 0.1 0"/>
<feBlend mode="normal" in2="effect1_dropShadow_1633_4870" result="effect2_dropShadow_1633_4870"/>
<feBlend mode="normal" in="SourceGraphic" in2="effect2_dropShadow_1633_4870" result="shape"/>
</filter>
<filter id="filter66_i_1633_4870" x="23.6475" y="25.0313" width="9.34473" height="7.53112" filterUnits="userSpaceOnUse" color-interpolation-filters="sRGB">
<feFlood flood-opacity="0" result="BackgroundImageFix"/>
<feBlend mode="normal" in="SourceGraphic" in2="BackgroundImageFix" result="shape"/>
<feColorMatrix in="SourceAlpha" type="matrix" values="0 0 0 0 0 0 0 0 0 0 0 0 0 0 0 0 0 0 127 0" result="hardAlpha"/>
<feOffset/>
<feGaussianBlur stdDeviation="0.25"/>
<feComposite in2="hardAlpha" operator="arithmetic" k2="-1" k3="1"/>
<feColorMatrix type="matrix" values="0 0 0 0 0 0 0 0 0 0 0 0 0 0 0 0 0 0 0.2 0"/>
<feBlend mode="normal" in2="shape" result="effect1_innerShadow_1633_4870"/>
</filter>
<filter id="filter67_f_1633_4870" x="32.2212" y="31.2197" width="5.6084" height="5.60815" filterUnits="userSpaceOnUse" color-interpolation-filters="sRGB">
<feFlood flood-opacity="0" result="BackgroundImageFix"/>
<feBlend mode="normal" in="SourceGraphic" in2="BackgroundImageFix" result="shape"/>
<feGaussianBlur stdDeviation="0.25" result="effect1_foregroundBlur_1633_4870"/>
</filter>
<filter id="filter68_i_1633_4870" x="37.0547" y="20.9896" width="15.1455" height="11.6399" filterUnits="userSpaceOnUse" color-interpolation-filters="sRGB">
<feFlood flood-opacity="0" result="BackgroundImageFix"/>
<feBlend mode="normal" in="SourceGraphic" in2="BackgroundImageFix" result="shape"/>
<feColorMatrix in="SourceAlpha" type="matrix" values="0 0 0 0 0 0 0 0 0 0 0 0 0 0 0 0 0 0 127 0" result="hardAlpha"/>
<feOffset/>
<feGaussianBlur stdDeviation="0.25"/>
<feComposite in2="hardAlpha" operator="arithmetic" k2="-1" k3="1"/>
<feColorMatrix type="matrix" values="0 0 0 0 0 0 0 0 0 0 0 0 0 0 0 0 0 0 0.2 0"/>
<feBlend mode="normal" in2="shape" result="effect1_innerShadow_1633_4870"/>
</filter>
<filter id="filter69_f_1633_4870" x="30.01" y="9.45794" width="28.3712" height="27.4862" filterUnits="userSpaceOnUse" color-interpolation-filters="sRGB">
<feFlood flood-opacity="0" result="BackgroundImageFix"/>
<feBlend mode="normal" in="SourceGraphic" in2="BackgroundImageFix" result="shape"/>
<feGaussianBlur stdDeviation="2.1" result="effect1_foregroundBlur_1633_4870"/>
</filter>
<linearGradient id="paint0_linear_1633_4870" x1="67" y1="2" x2="3" y2="66" gradientUnits="userSpaceOnUse">
<stop stop-color="#FAFAFA"/>
<stop offset="1" stop-color="#9F9FA9"/>
</linearGradient>
<linearGradient id="paint1_linear_1633_4870" x1="34.9991" y1="38.4364" x2="34.9991" y2="51.8302" gradientUnits="userSpaceOnUse">
<stop stop-color="white" stop-opacity="0"/>
<stop offset="1" stop-color="white" stop-opacity="0.12"/>
</linearGradient>
<linearGradient id="paint2_linear_1633_4870" x1="23.2276" y1="28.48" x2="23.2276" y2="41.8737" gradientUnits="userSpaceOnUse">
<stop stop-color="white" stop-opacity="0"/>
<stop offset="1" stop-color="white" stop-opacity="0.12"/>
</linearGradient>
<linearGradient id="paint3_linear_1633_4870" x1="46.7721" y1="28.4799" x2="46.7721" y2="41.8737" gradientUnits="userSpaceOnUse">
<stop stop-color="white" stop-opacity="0"/>
<stop offset="1" stop-color="white" stop-opacity="0.12"/>
</linearGradient>
<linearGradient id="paint4_linear_1633_4870" x1="53.2156" y1="12.554" x2="17.2806" y2="55.9287" gradientUnits="userSpaceOnUse">
<stop stop-color="white" stop-opacity="0.3"/>
<stop offset="0.548077" stop-color="white" stop-opacity="0"/>
</linearGradient>
<clipPath id="clip0_1633_4870">
<rect x="3" y="2" width="64" height="64" rx="16" fill="white"/>
</clipPath>
<clipPath id="clip1_1633_4870">
<rect x="7" y="6" width="56" height="56" rx="28" fill="white"/>
</clipPath>
</defs>
</svg>
