<svg width="30" height="30" viewBox="0 0 30 30" fill="none" xmlns="http://www.w3.org/2000/svg">
<g filter="url(#filter0_dd_1633_5761)">
<g clip-path="url(#clip0_1633_5761)">
<rect x="3" y="2" width="24" height="24" rx="6" fill="url(#paint0_linear_1633_5761)"/>
<rect x="4.35449" y="3.35461" width="21.2908" height="21.2908" rx="10.6454" fill="white"/>
<rect x="3" y="2" width="3" height="3" fill="white" fill-opacity="0.01"/>
<rect x="6" y="2" width="3" height="3" fill="white" fill-opacity="0.01"/>
<rect x="9" y="2" width="3" height="3" fill="white" fill-opacity="0.01"/>
<rect x="12" y="2" width="3" height="3" fill="white" fill-opacity="0.01"/>
<rect x="15" y="2" width="3" height="3" fill="white" fill-opacity="0.01"/>
<rect x="18" y="2" width="3" height="3" fill="white" fill-opacity="0.01"/>
<rect x="21" y="2" width="3" height="3" fill="white" fill-opacity="0.01"/>
<rect x="24" y="2" width="3" height="3" fill="white" fill-opacity="0.01"/>
<rect x="3" y="5" width="3" height="3" fill="white" fill-opacity="0.01"/>
<rect x="6" y="5" width="3" height="3" fill="white" fill-opacity="0.01"/>
<rect x="9" y="5" width="3" height="3" fill="white" fill-opacity="0.01"/>
<rect x="12" y="5" width="3" height="3" fill="white" fill-opacity="0.01"/>
<rect x="15" y="5" width="3" height="3" fill="white" fill-opacity="0.01"/>
<rect x="18" y="5" width="3" height="3" fill="white" fill-opacity="0.01"/>
<rect x="21" y="5" width="3" height="3" fill="white" fill-opacity="0.01"/>
<rect x="24" y="5" width="3" height="3" fill="white" fill-opacity="0.01"/>
<rect x="3" y="8" width="3" height="3" fill="white" fill-opacity="0.01"/>
<rect x="6" y="8" width="3" height="3" fill="white" fill-opacity="0.01"/>
<rect x="9" y="8" width="3" height="3" fill="white" fill-opacity="0.01"/>
<rect x="12" y="8" width="3" height="3" fill="white" fill-opacity="0.01"/>
<rect x="15" y="8" width="3" height="3" fill="white" fill-opacity="0.01"/>
<rect x="18" y="8" width="3" height="3" fill="white" fill-opacity="0.01"/>
<rect x="21" y="8" width="3" height="3" fill="white" fill-opacity="0.01"/>
<rect x="24" y="8" width="3" height="3" fill="white" fill-opacity="0.01"/>
<rect x="3" y="11" width="3" height="3" fill="white" fill-opacity="0.01"/>
<rect x="6" y="11" width="3" height="3" fill="white" fill-opacity="0.01"/>
<rect x="9" y="11" width="3" height="3" fill="white" fill-opacity="0.01"/>
<rect x="12" y="11" width="3" height="3" fill="white" fill-opacity="0.01"/>
<rect x="15" y="11" width="3" height="3" fill="white" fill-opacity="0.01"/>
<rect x="18" y="11" width="3" height="3" fill="white" fill-opacity="0.01"/>
<rect x="21" y="11" width="3" height="3" fill="white" fill-opacity="0.01"/>
<rect x="24" y="11" width="3" height="3" fill="white" fill-opacity="0.01"/>
<rect x="3" y="14" width="3" height="3" fill="white" fill-opacity="0.01"/>
<rect x="6" y="14" width="3" height="3" fill="white" fill-opacity="0.01"/>
<rect x="9" y="14" width="3" height="3" fill="white" fill-opacity="0.01"/>
<rect x="12" y="14" width="3" height="3" fill="white" fill-opacity="0.01"/>
<rect x="15" y="14" width="3" height="3" fill="white" fill-opacity="0.01"/>
<rect x="18" y="14" width="3" height="3" fill="white" fill-opacity="0.01"/>
<rect x="21" y="14" width="3" height="3" fill="white" fill-opacity="0.01"/>
<rect x="24" y="14" width="3" height="3" fill="white" fill-opacity="0.01"/>
<rect x="3" y="17" width="3" height="3" fill="white" fill-opacity="0.01"/>
<rect x="6" y="17" width="3" height="3" fill="white" fill-opacity="0.01"/>
<rect x="9" y="17" width="3" height="3" fill="white" fill-opacity="0.01"/>
<rect x="12" y="17" width="3" height="3" fill="white" fill-opacity="0.01"/>
<rect x="15" y="17" width="3" height="3" fill="white" fill-opacity="0.01"/>
<rect x="18" y="17" width="3" height="3" fill="white" fill-opacity="0.01"/>
<rect x="21" y="17" width="3" height="3" fill="white" fill-opacity="0.01"/>
<rect x="24" y="17" width="3" height="3" fill="white" fill-opacity="0.01"/>
<rect x="3" y="20" width="3" height="3" fill="white" fill-opacity="0.01"/>
<rect x="6" y="20" width="3" height="3" fill="white" fill-opacity="0.01"/>
<rect x="9" y="20" width="3" height="3" fill="white" fill-opacity="0.01"/>
<rect x="12" y="20" width="3" height="3" fill="white" fill-opacity="0.01"/>
<rect x="15" y="20" width="3" height="3" fill="white" fill-opacity="0.01"/>
<rect x="18" y="20" width="3" height="3" fill="white" fill-opacity="0.01"/>
<rect x="21" y="20" width="3" height="3" fill="white" fill-opacity="0.01"/>
<rect x="24" y="20" width="3" height="3" fill="white" fill-opacity="0.01"/>
<rect x="3" y="23" width="3" height="3" fill="white" fill-opacity="0.01"/>
<rect x="6" y="23" width="3" height="3" fill="white" fill-opacity="0.01"/>
<rect x="9" y="23" width="3" height="3" fill="white" fill-opacity="0.01"/>
<rect x="12" y="23" width="3" height="3" fill="white" fill-opacity="0.01"/>
<rect x="15" y="23" width="3" height="3" fill="white" fill-opacity="0.01"/>
<rect x="18" y="23" width="3" height="3" fill="white" fill-opacity="0.01"/>
<rect x="21" y="23" width="3" height="3" fill="white" fill-opacity="0.01"/>
<rect x="24" y="23" width="3" height="3" fill="white" fill-opacity="0.01"/>
<g filter="url(#filter65_dd_1633_5761)">
<path d="M6.65049 3.31992L9.39933 2.15763V6.22627L4.72021 12.0401L6.65049 3.31992Z" fill="#D4D4D8"/>
<path d="M5.10596 10.4435L9.34059 2.24866H9.5105L9.66733 5.43771L5.10596 10.4435Z" fill="#9F9FA9"/>
<path d="M23.349 3.31993L20.6002 2.15764V6.22627L25.2793 12.0401L23.349 3.31993Z" fill="#D4D4D8"/>
<path d="M24.8936 10.4435L20.6589 2.24871H20.489L20.3322 5.43776L24.8936 10.4435Z" fill="#9F9FA9"/>
<path d="M6.65049 24.6801L9.39933 25.8424V21.7738L4.72021 15.96L6.65049 24.6801Z" fill="#D4D4D8"/>
<path d="M5.10596 17.5567L9.34059 25.7515H9.5105L9.66733 22.5624L5.10596 17.5567Z" fill="#9F9FA9"/>
<path d="M23.349 24.6802L20.6002 25.8425V21.7738L25.2793 15.96L23.349 24.6802Z" fill="#D4D4D8"/>
<path d="M24.8936 17.5566L20.6589 25.7514H20.489L20.3322 22.5624L24.8936 17.5566Z" fill="#9F9FA9"/>
<rect x="9.375" y="2" width="11.2549" height="24.0325" fill="#09090B"/>
<rect x="14.3213" y="2" width="1.36206" height="24.0325" fill="#27272A"/>
<g clip-path="url(#clip1_1633_5761)">
<rect x="4.5" y="3.5" width="21" height="21" rx="10.5" fill="#3F3F46"/>
<rect x="5.83252" y="4.83228" width="18.3355" height="18.3355" rx="9.16773" fill="#1E1E1E"/>
<circle cx="14.9996" cy="18.175" r="2.51133" fill="url(#paint1_linear_1633_5761)"/>
<circle cx="14.9995" cy="18.175" r="1.90328" fill="#18181B"/>
<circle cx="10.5856" cy="14.4413" r="2.51133" fill="url(#paint2_linear_1633_5761)"/>
<circle cx="19.4147" cy="14.4413" r="2.51133" fill="url(#paint3_linear_1633_5761)"/>
<circle cx="10.5854" cy="14.4413" r="1.90328" fill="#18181B"/>
<circle cx="19.4145" cy="14.4413" r="1.90328" fill="#18181B"/>
<rect x="6.72314" y="5.7229" width="16.5542" height="16.5542" rx="8.27711" stroke="#F4F4F5" stroke-width="1.78125" stroke-dasharray="0.56 3.75"/>
<rect x="6.16064" y="5.1604" width="17.6792" height="17.6792" rx="8.83961" stroke="#18181B" stroke-width="0.65625" stroke-dasharray="0.56 3.75"/>
<rect x="6.11377" y="5.11353" width="17.773" height="17.773" rx="8.88648" stroke="#9F9FA9" stroke-width="0.5625" stroke-dasharray="0.56 3.75"/>
<rect x="13.6836" y="14.1672" width="1.875" height="1.875" rx="0.9375" transform="rotate(-52 13.6836 14.1672)" fill="#F4F4F5"/>
<path d="M10.4742 10.8269L10.3431 10.3676L10.8205 10.3836L14.5158 13.2708L14.1695 13.714L10.4742 10.8269Z" fill="#F4F4F5"/>
<g filter="url(#filter66_i_1633_5761)">
<path d="M10.7432 10.8584L10.9163 10.6367L14.2474 13.2393L14.0743 13.4609L10.7432 10.8584Z" fill="#D4D4D8"/>
</g>
<g filter="url(#filter67_f_1633_5761)">
<rect x="15.1816" y="12.7992" width="1.72796" height="1.72796" rx="0.86398" transform="rotate(53.0823 15.1816 12.7992)" fill="#D4D4D8"/>
</g>
<path d="M21.2931 8.9362L21.7707 8.92916L21.631 9.38592L15.6739 13.855L15.336 13.4052L21.2931 8.9362Z" fill="#F4F4F5"/>
<g filter="url(#filter68_i_1633_5761)">
<path d="M21.2813 9.12108L21.4502 9.34594L15.9396 13.486L15.7707 13.2612L21.2813 9.12108Z" fill="#D4D4D8"/>
</g>
<rect x="14.3042" y="13.3042" width="1.39158" height="1.39158" rx="0.695789" fill="#F4F4F5"/>
<path d="M15.0698 5.52747L15.3745 16.2618H14.6655L14.9702 5.52747H15.0698Z" fill="white"/>
<circle cx="15.0142" cy="14" r="10.5" fill="url(#paint4_linear_1633_5761)"/>
<g opacity="0.1" filter="url(#filter69_f_1633_5761)">
<path d="M18.7214 9.67118C16.706 7.75693 14.3033 7.01458 14.76 6.53376C15.2167 6.05294 17.7859 6.61985 19.8014 8.5341C21.8168 10.4484 22.5153 12.985 22.0586 13.4659C21.6019 13.9467 20.7369 11.5854 18.7214 9.67118Z" fill="white"/>
</g>
</g>
</g>
</g>
</g>
<defs>
<filter id="filter0_dd_1633_5761" x="0" y="0" width="30" height="30" filterUnits="userSpaceOnUse" color-interpolation-filters="sRGB">
<feFlood flood-opacity="0" result="BackgroundImageFix"/>
<feColorMatrix in="SourceAlpha" type="matrix" values="0 0 0 0 0 0 0 0 0 0 0 0 0 0 0 0 0 0 127 0" result="hardAlpha"/>
<feOffset dy="1"/>
<feGaussianBlur stdDeviation="1"/>
<feColorMatrix type="matrix" values="0 0 0 0 0 0 0 0 0 0 0 0 0 0 0 0 0 0 0.06 0"/>
<feBlend mode="normal" in2="BackgroundImageFix" result="effect1_dropShadow_1633_5761"/>
<feColorMatrix in="SourceAlpha" type="matrix" values="0 0 0 0 0 0 0 0 0 0 0 0 0 0 0 0 0 0 127 0" result="hardAlpha"/>
<feOffset dy="1"/>
<feGaussianBlur stdDeviation="1.5"/>
<feColorMatrix type="matrix" values="0 0 0 0 0 0 0 0 0 0 0 0 0 0 0 0 0 0 0.1 0"/>
<feBlend mode="normal" in2="effect1_dropShadow_1633_5761" result="effect2_dropShadow_1633_5761"/>
<feBlend mode="normal" in="SourceGraphic" in2="effect2_dropShadow_1633_5761" result="shape"/>
</filter>
<filter id="filter65_dd_1633_5761" x="2.625" y="2" width="24.75" height="27.7825" filterUnits="userSpaceOnUse" color-interpolation-filters="sRGB">
<feFlood flood-opacity="0" result="BackgroundImageFix"/>
<feColorMatrix in="SourceAlpha" type="matrix" values="0 0 0 0 0 0 0 0 0 0 0 0 0 0 0 0 0 0 127 0" result="hardAlpha"/>
<feMorphology radius="0.46875" operator="erode" in="SourceAlpha" result="effect1_dropShadow_1633_5761"/>
<feOffset dy="0.9375"/>
<feGaussianBlur stdDeviation="0.46875"/>
<feColorMatrix type="matrix" values="0 0 0 0 0 0 0 0 0 0 0 0 0 0 0 0 0 0 0.04 0"/>
<feBlend mode="normal" in2="BackgroundImageFix" result="effect1_dropShadow_1633_5761"/>
<feColorMatrix in="SourceAlpha" type="matrix" values="0 0 0 0 0 0 0 0 0 0 0 0 0 0 0 0 0 0 127 0" result="hardAlpha"/>
<feMorphology radius="0.46875" operator="erode" in="SourceAlpha" result="effect2_dropShadow_1633_5761"/>
<feOffset dy="1.875"/>
<feGaussianBlur stdDeviation="1.17188"/>
<feColorMatrix type="matrix" values="0 0 0 0 0 0 0 0 0 0 0 0 0 0 0 0 0 0 0.1 0"/>
<feBlend mode="normal" in2="effect1_dropShadow_1633_5761" result="effect2_dropShadow_1633_5761"/>
<feBlend mode="normal" in="SourceGraphic" in2="effect2_dropShadow_1633_5761" result="shape"/>
</filter>
<filter id="filter66_i_1633_5761" x="10.7432" y="10.6367" width="3.50439" height="2.82417" filterUnits="userSpaceOnUse" color-interpolation-filters="sRGB">
<feFlood flood-opacity="0" result="BackgroundImageFix"/>
<feBlend mode="normal" in="SourceGraphic" in2="BackgroundImageFix" result="shape"/>
<feColorMatrix in="SourceAlpha" type="matrix" values="0 0 0 0 0 0 0 0 0 0 0 0 0 0 0 0 0 0 127 0" result="hardAlpha"/>
<feOffset/>
<feGaussianBlur stdDeviation="0.09375"/>
<feComposite in2="hardAlpha" operator="arithmetic" k2="-1" k3="1"/>
<feColorMatrix type="matrix" values="0 0 0 0 0 0 0 0 0 0 0 0 0 0 0 0 0 0 0.2 0"/>
<feBlend mode="normal" in2="shape" result="effect1_innerShadow_1633_5761"/>
</filter>
<filter id="filter67_f_1633_5761" x="13.9585" y="12.9574" width="2.10303" height="2.10306" filterUnits="userSpaceOnUse" color-interpolation-filters="sRGB">
<feFlood flood-opacity="0" result="BackgroundImageFix"/>
<feBlend mode="normal" in="SourceGraphic" in2="BackgroundImageFix" result="shape"/>
<feGaussianBlur stdDeviation="0.09375" result="effect1_foregroundBlur_1633_5761"/>
</filter>
<filter id="filter68_i_1633_5761" x="15.7705" y="9.12108" width="5.67969" height="4.36497" filterUnits="userSpaceOnUse" color-interpolation-filters="sRGB">
<feFlood flood-opacity="0" result="BackgroundImageFix"/>
<feBlend mode="normal" in="SourceGraphic" in2="BackgroundImageFix" result="shape"/>
<feColorMatrix in="SourceAlpha" type="matrix" values="0 0 0 0 0 0 0 0 0 0 0 0 0 0 0 0 0 0 127 0" result="hardAlpha"/>
<feOffset/>
<feGaussianBlur stdDeviation="0.09375"/>
<feComposite in2="hardAlpha" operator="arithmetic" k2="-1" k3="1"/>
<feColorMatrix type="matrix" values="0 0 0 0 0 0 0 0 0 0 0 0 0 0 0 0 0 0 0.2 0"/>
<feBlend mode="normal" in2="shape" result="effect1_innerShadow_1633_5761"/>
</filter>
<filter id="filter69_f_1633_5761" x="13.1286" y="4.79672" width="10.6393" height="10.3073" filterUnits="userSpaceOnUse" color-interpolation-filters="sRGB">
<feFlood flood-opacity="0" result="BackgroundImageFix"/>
<feBlend mode="normal" in="SourceGraphic" in2="BackgroundImageFix" result="shape"/>
<feGaussianBlur stdDeviation="0.7875" result="effect1_foregroundBlur_1633_5761"/>
</filter>
<linearGradient id="paint0_linear_1633_5761" x1="27" y1="2" x2="3" y2="26" gradientUnits="userSpaceOnUse">
<stop stop-color="#FAFAFA"/>
<stop offset="1" stop-color="#9F9FA9"/>
</linearGradient>
<linearGradient id="paint1_linear_1633_5761" x1="14.9996" y1="15.6637" x2="14.9996" y2="20.6863" gradientUnits="userSpaceOnUse">
<stop stop-color="white" stop-opacity="0"/>
<stop offset="1" stop-color="white" stop-opacity="0.12"/>
</linearGradient>
<linearGradient id="paint2_linear_1633_5761" x1="10.5856" y1="11.93" x2="10.5856" y2="16.9527" gradientUnits="userSpaceOnUse">
<stop stop-color="white" stop-opacity="0"/>
<stop offset="1" stop-color="white" stop-opacity="0.12"/>
</linearGradient>
<linearGradient id="paint3_linear_1633_5761" x1="19.4147" y1="11.93" x2="19.4147" y2="16.9526" gradientUnits="userSpaceOnUse">
<stop stop-color="white" stop-opacity="0"/>
<stop offset="1" stop-color="white" stop-opacity="0.12"/>
</linearGradient>
<linearGradient id="paint4_linear_1633_5761" x1="21.8307" y1="5.95773" x2="8.35509" y2="22.2232" gradientUnits="userSpaceOnUse">
<stop stop-color="white" stop-opacity="0.3"/>
<stop offset="0.548077" stop-color="white" stop-opacity="0"/>
</linearGradient>
<clipPath id="clip0_1633_5761">
<rect x="3" y="2" width="24" height="24" rx="6" fill="white"/>
</clipPath>
<clipPath id="clip1_1633_5761">
<rect x="4.5" y="3.5" width="21" height="21" rx="10.5" fill="white"/>
</clipPath>
</defs>
</svg>
